SplineFontDB: 3.0
FontName: Amatic
FullName: Amatic Regular
FamilyName: Amatic
Weight: Book
Copyright: Copyright 2011 vernon adams. All rights reserved.
Version: 1.000
ItalicAngle: 0
UnderlinePosition: -102
UnderlineWidth: 102
Ascent: 1536
Descent: 512
sfntRevision: 0x00010000
LayerCount: 2
Layer: 0 1 "Back"  1
Layer: 1 1 "Fore"  0
XUID: [1021 913 -2060267417 12252498]
FSType: 0
OS2Version: 4
OS2_WeightWidthSlopeOnly: 0
OS2_UseTypoMetrics: 1
CreationTime: 1313668917
ModificationTime: 1369575069
PfmFamily: 81
TTFWeight: 400
TTFWidth: 3
LineGap: 18
VLineGap: 0
Panose: 0 0 0 0 0 0 0 0 0 0
OS2TypoAscent: 1536
OS2TypoAOffset: 0
OS2TypoDescent: -512
OS2TypoDOffset: 0
OS2TypoLinegap: 0
OS2WinAscent: 2064
OS2WinAOffset: 0
OS2WinDescent: 20
OS2WinDOffset: 0
HheadAscent: 1397
HheadAOffset: 0
HheadDescent: -532
HheadDOffset: 0
OS2SubXSize: 1331
OS2SubYSize: 1229
OS2SubXOff: 0
OS2SubYOff: 154
OS2SupXSize: 1331
OS2SupYSize: 1229
OS2SupXOff: 0
OS2SupYOff: 717
OS2StrikeYSize: 102
OS2StrikeYPos: 614
OS2Vendor: 'newt'
OS2CodePages: 00000001.00000000
OS2UnicodeRanges: 00000001.00000000.00000000.00000000
Lookup: 4 0 1 "'liga' Standard Ligatures in Latin lookup 0"  {"'liga' Standard Ligatures in Latin lookup 0 subtable"  } ['liga' ('DFLT' <'dflt' > 'latn' <'dflt' > ) ]
Lookup: 258 0 0 "'kern' Horizontal Kerning in Latin lookup 0"  {"'kern' Horizontal Kerning in Latin lookup 0 per glyph data 0"  "'kern' Horizontal Kerning in Latin lookup 0 kerning class 1"  } ['kern' ('DFLT' <'dflt' > 'latn' <'dflt' > ) ]
MarkAttachClasses: 1
DEI: 91125
KernClass2: 32 23 "'kern' Horizontal Kerning in Latin lookup 0 kerning class 1" 
 73 A Agrave Aacute Acircumflex Atilde Adieresis Aring Abreve Amacron Aogonek
 1 B
 8 D Dcaron
 1 F
 13 J Jcircumflex
 14 K Kcommaaccent
 28 L Lcaron Lcommaaccent Lacute
 35 N Ntilde Ncommaaccent Ncaron Nacute
 73 O Ograve Oacute Ocircumflex Otilde Odieresis Ohungarumlaut Omacron Obreve
 1 P
 24 R Rcedilla Rcaron Racute
 29 T uni021A Tcaron Tcommaaccent

StartChar: .notdef
Encoding: 65536 -1 0
Width: 748
Flags: W
LayerCount: 2
UndoRedoHistory
Layer: 1
Undoes
EndUndoes
Redoes
EndRedoes
EndUndoRedoHistory
Fore
SplineSet
136 68 m 1,0,-1
 544 68 l 1,1,-1
 544 1297 l 1,2,-1
 136 1297 l 1,3,-1
 136 68 l 1,0,-1
68 0 m 1,4,-1
 68 1365 l 1,5,-1
 612 1365 l 1,6,-1
 612 0 l 1,7,-1
 68 0 l 1,4,-1
EndSplineSet
EndChar

StartChar: exclam
Encoding: 33 33 4
Width: 329
GlyphClass: 2
Flags: W
LayerCount: 2
UndoRedoHistory
Layer: 1
Undoes
EndUndoes
Redoes
EndRedoes
EndUndoRedoHistory
Fore
SplineSet
145 330 m 2,0,-1
 145 821 l 2,1,2
 145 880 145 880 147.5 996 c 128,-1,3
 150 1112 150 1112 150 1171 c 0,4,5
 150 1227 150 1227 142.5 1334 c 128,-1,6
 135 1441 135 1441 135 1493 c 0,7,8
 135 1514 135 1514 156.5 1531 c 128,-1,9
 178 1548 178 1548 199 1548 c 0,10,11
 225 1548 225 1548 225 1522 c 0,12,13
 225 1358 225 1358 203.5 1032.5 c 128,-1,14
 182 707 182 707 182 543 c 0,15,16
 182 532 182 532 183 501.5 c 128,-1,17
 184 471 184 471 184 453 c 0,18,19
 184 371 184 371 168 332 c 1,20,-1
 174 322 l 1,21,-1
 147 322 l 1,22,23
 147 323 147 323 146 326 c 128,-1,24
 145 329 145 329 145 330 c 2,0,-1
88 39 m 1,25,26
 88 59 88 59 109 80.5 c 128,-1,27
 130 102 130 102 150 102 c 0,28,29
 180 102 180 102 195.5 80.5 c 128,-1,30
 211 59 211 59 211 27 c 0,31,32
 211 -24 211 -24 160 -27 c 1,33,34
 157 -18 157 -18 147 -16.5 c 128,-1,35
 137 -15 137 -15 120.5 -4 c 128,-1,36
 104 7 104 7 88 39 c 1,25,26
EndSplineSet
EndChar

StartChar: quotedbl
Encoding: 34 34 5
Width: 636
GlyphClass: 2
Flags: W
LayerCount: 2
UndoRedoHistory
Layer: 1
Undoes
EndUndoes
Redoes
EndRedoes
EndUndoRedoHistory
Fore
SplineSet
444 1257 m 0,0,1
 418 1297 418 1297 418 1409 c 0,2,3
 418 1440 418 1440 418 1455 c 128,-1,4
 418 1470 418 1470 419.5 1494 c 128,-1,5
 421 1518 421 1518 423.5 1529 c 128,-1,6
 426 1540 426 1540 430.5 1552.5 c 128,-1,7
 435 1565 435 1565 442 1570 c 128,-1,8
 449 1575 449 1575 459 1575 c 0,9,10
 470 1575 470 1575 477.5 1551.5 c 128,-1,11
 485 1528 485 1528 485 1497 c 0,12,13
 485 1445 485 1445 473 1350 c 128,-1,14
 461 1255 461 1255 451 1255 c 0,15,16
 446 1255 446 1255 444 1257 c 0,0,1
207 1262 m 1,17,18
 211 1291 211 1291 211 1384 c 2,19,-1
 211 1401 l 2,20,21
 211 1575 211 1575 233 1575 c 0,22,23
 254 1575 254 1575 267.5 1551.5 c 128,-1,24
 281 1528 281 1528 281 1497 c 0,25,26
 281 1442 281 1442 257.5 1349.5 c 128,-1,27
 234 1257 234 1257 215 1257 c 0,28,29
 212 1257 212 1257 207 1262 c 1,17,18
EndSplineSet
EndChar

StartChar: numbersign
Encoding: 35 35 6
Width: 790
GlyphClass: 2
Flags: W
LayerCount: 2
UndoRedoHistory
Layer: 1
Undoes
EndUndoes
Redoes
EndRedoes
EndUndoRedoHistory
Fore
SplineSet
283 666 m 0,0,1
 307 662 307 662 317 662 c 0,2,3
 445 662 445 662 506 670 c 1,4,5
 509 686 509 686 516 726 c 128,-1,6
 523 766 523 766 526.5 788 c 128,-1,7
 530 810 530 810 534.5 843.5 c 128,-1,8
 539 877 539 877 541 906 c 128,-1,9
 543 935 543 935 543 963 c 0,10,11
 543 983 543 983 385 983 c 0,12,13
 339 983 339 983 317 971 c 1,14,15
 306 946 306 946 293.5 832 c 128,-1,16
 281 718 281 718 281 674 c 0,17,18
 281 673 281 673 282 670 c 128,-1,19
 283 667 283 667 283 666 c 0,0,1
444 -37 m 0,20,21
 444 6 444 6 457.5 91 c 128,-1,22
 471 176 471 176 471 219 c 0,23,24
 471 284 471 284 490.5 410.5 c 128,-1,25
 510 537 510 537 510 602 c 1,26,27
 455 608 455 608 344 608 c 0,28,29
 295 608 295 608 272 600 c 1,30,31
 262 529 262 529 246 348.5 c 128,-1,32
 230 168 230 168 215 55.5 c 128,-1,33
 200 -57 200 -57 184 -57 c 0,34,35
 174 -57 174 -57 162 -51.5 c 128,-1,36
 150 -46 150 -46 150 -37 c 0,37,38
 150 42 150 42 172 244 c 1,39,40
 200 484 200 484 225 600 c 1,41,42
 211 600 211 600 182 596 c 128,-1,43
 153 592 153 592 137 592 c 0,44,45
 76 592 76 592 76 635 c 0,46,47
 76 655 76 655 145 655 c 2,48,-1
 188 655 l 2,49,50
 219 655 219 655 229 657 c 1,51,52
 235 670 235 670 250.5 806.5 c 128,-1,53
 266 943 266 943 266 971 c 1,54,55
 255 971 255 971 232.5 969 c 128,-1,56
 210 967 210 967 197 967 c 0,57,58
 119 967 119 967 117 1004 c 1,59,-1
 133 1022 l 1,60,-1
 176 1022 l 2,61,62
 250 1022 250 1022 270 1028 c 1,63,64
 275 1073 275 1073 288.5 1161.5 c 128,-1,65
 302 1250 302 1250 309.5 1321 c 128,-1,66
 317 1392 317 1392 317 1456 c 0,67,68
 317 1463 317 1463 316 1476.5 c 128,-1,69
 315 1490 315 1490 315 1497 c 0,70,71
 315 1542 315 1542 346 1542 c 1,72,-1
 360 1513 l 1,73,74
 360 1433 360 1433 342 1275.5 c 128,-1,75
 324 1118 324 1118 324 1038 c 1,76,77
 353 1030 353 1030 412 1030 c 2,78,-1
 438 1030 l 2,79,80
 510 1030 510 1030 547 1044 c 1,81,82
 610 1349 610 1349 623 1526 c 1,83,84
 636 1542 636 1542 653 1542 c 128,-1,85
 670 1542 670 1542 678 1522 c 1,86,87
 677 1443 677 1443 640.5 1289.5 c 128,-1,88
 604 1136 604 1136 604 1055 c 1,89,-1
 608 1044 l 1,90,-1
 684 1044 l 1,91,-1
 711 1016 l 1,92,93
 698 983 698 983 684 983 c 128,-1,94
 670 983 670 983 641 985 c 128,-1,95
 612 987 612 987 598 987 c 1,96,97
 567 865 567 865 567 678 c 1,98,-1
 578 674 l 1,99,100
 582 674 582 674 595 675 c 128,-1,101
 608 676 608 676 616 676 c 0,102,103
 674 676 674 676 674 637 c 0,104,105
 674 623 674 623 641 610 c 1,106,-1
 561 610 l 1,107,108
 557 555 557 555 530.5 324.5 c 128,-1,109
 504 94 504 94 504 -31 c 1,110,-1
 481 -57 l 1,111,112
 444 -57 444 -57 444 -37 c 0,20,21
EndSplineSet
EndChar

StartChar: dollar
Encoding: 36 36 7
Width: 538
GlyphClass: 2
Flags: W
LayerCount: 2
UndoRedoHistory
Layer: 1
Undoes
EndUndoes
Redoes
EndRedoes
EndUndoRedoHistory
Fore
SplineSet
135 1288 m 0,0,1
 135 1160 135 1160 213 989 c 1,2,3
 213 984 213 984 219 981 c 1,4,5
 217 1070 217 1070 201 1236 c 128,-1,6
 185 1402 185 1402 182 1473 c 1,7,8
 162 1469 162 1469 148.5 1397.5 c 128,-1,9
 135 1326 135 1326 135 1288 c 0,0,1
315 240 m 1,10,-1
 317 236 l 1,11,12
 357 255 357 255 385.5 299 c 128,-1,13
 414 343 414 343 414 387 c 0,14,15
 414 441 414 441 367 580.5 c 128,-1,16
 320 720 320 720 281 776 c 1,17,18
 281 686 281 686 298 508 c 128,-1,19
 315 330 315 330 315 240 c 1,10,-1
274 23 m 1,20,-1
 283 29 l 1,21,-1
 283 164 l 1,22,-1
 276 170 l 1,23,24
 207 170 207 170 174 166 c 1,25,26
 102 216 102 216 102 268 c 0,27,28
 102 289 102 289 121 289 c 2,29,-1
 125 289 l 1,30,31
 145 277 145 277 151.5 254.5 c 128,-1,32
 158 232 158 232 170 218.5 c 128,-1,33
 182 205 182 205 221 205 c 0,34,35
 255 205 255 205 279 213 c 1,36,37
 279 293 279 293 258.5 526.5 c 128,-1,38
 238 760 238 760 225 881 c 0,39,40
 224 891 224 891 202 938.5 c 128,-1,41
 180 986 180 986 155 1040.5 c 128,-1,42
 130 1095 130 1095 109 1168.5 c 128,-1,43
 88 1242 88 1242 88 1300 c 0,44,45
 88 1325 88 1325 93 1359 c 128,-1,46
 98 1393 98 1393 108 1431 c 128,-1,47
 118 1469 118 1469 138.5 1495.5 c 128,-1,48
 159 1522 159 1522 186 1522 c 1,49,50
 186 1536 186 1536 182 1565 c 128,-1,51
 178 1594 178 1594 178 1610 c 0,52,53
 178 1663 178 1663 207 1663 c 1,54,-1
 223 1645 l 1,55,56
 221 1631 221 1631 221 1599 c 0,57,58
 221 1524 221 1524 254 1524 c 0,59,60
 293 1524 293 1524 332 1479 c 1,61,62
 383 1428 383 1428 383 1417 c 0,63,64
 383 1405 383 1405 374.5 1394 c 128,-1,65
 366 1383 366 1383 358 1391 c 0,66,67
 346 1403 346 1403 329 1430 c 128,-1,68
 312 1457 312 1457 293 1470 c 128,-1,69
 274 1483 274 1483 238 1487 c 1,70,-1
 231 1470 l 1,71,72
 231 1444 231 1444 234.5 1390 c 128,-1,73
 238 1336 238 1336 238 1309 c 0,74,75
 238 1248 238 1248 254.5 1075 c 128,-1,76
 271 902 271 902 285 870 c 1,77,78
 294 845 294 845 339.5 753 c 128,-1,79
 385 661 385 661 419 569.5 c 128,-1,80
 453 478 453 478 459 403 c 1,81,82
 459 359 459 359 451 328.5 c 128,-1,83
 443 298 443 298 421.5 271.5 c 128,-1,84
 400 245 400 245 380 229 c 128,-1,85
 360 213 360 213 319 184 c 1,86,87
 319 164 319 164 323.5 126 c 128,-1,88
 328 88 328 88 328 68 c 0,89,90
 328 -18 328 -18 293 -18 c 0,91,92
 284 -18 284 -18 279 -3 c 128,-1,93
 274 12 274 12 274 23 c 1,20,-1
EndSplineSet
EndChar

StartChar: percent
Encoding: 37 37 8
Width: 1120
GlyphClass: 2
Flags: W
LayerCount: 2
UndoRedoHistory
Layer: 1
Undoes
EndUndoes
Redoes
EndRedoes
EndUndoRedoHistory
Fore
SplineSet
766 1505 m 0,0,1
 766 1498 766 1498 757 1456 c 128,-1,2
 748 1414 748 1414 737 1368.5 c 128,-1,3
 726 1323 726 1323 725 1317 c 0,4,5
 700 1204 700 1204 494 299 c 1,6,-1
 453 121 l 2,7,8
 451 114 451 114 447 92.5 c 128,-1,9
 443 71 443 71 439.5 58 c 128,-1,10
 436 45 436 45 430 28.5 c 128,-1,11
 424 12 424 12 414.5 3.5 c 128,-1,12
 405 -5 405 -5 393 -6 c 1,13,14
 373 7 373 7 373 31 c 0,15,16
 373 75 373 75 383 130 c 128,-1,17
 393 185 393 185 415.5 273.5 c 128,-1,18
 438 362 438 362 444 387 c 0,19,20
 580 989 580 989 700 1448 c 0,21,22
 701 1450 701 1450 703.5 1461 c 128,-1,23
 706 1472 706 1472 709.5 1483 c 128,-1,24
 713 1494 713 1494 717 1505.5 c 128,-1,25
 721 1517 721 1517 726 1524.5 c 128,-1,26
 731 1532 731 1532 735 1532 c 0,27,28
 748 1532 748 1532 757 1525 c 128,-1,29
 766 1518 766 1518 766 1505 c 0,0,1
741 475 m 0,30,31
 741 456 741 456 739 420 c 128,-1,32
 737 384 737 384 737 367 c 0,33,34
 737 358 737 358 741 339.5 c 128,-1,35
 745 321 745 321 745 313 c 1,36,37
 746 309 746 309 752.5 266 c 128,-1,38
 759 223 759 223 766 189.5 c 128,-1,39
 773 156 773 156 791.5 125 c 128,-1,40
 810 94 810 94 836 94 c 0,41,42
 864 94 864 94 887 104.5 c 128,-1,43
 910 115 910 115 925 132 c 128,-1,44
 940 149 940 149 951 175 c 128,-1,45
 962 201 962 201 968 226.5 c 128,-1,46
 974 252 974 252 977.5 285.5 c 128,-1,47
 981 319 981 319 982 344.5 c 128,-1,48
 983 370 983 370 983 403 c 2,49,-1
 983 469 l 2,50,51
 983 498 983 498 981.5 526.5 c 128,-1,52
 980 555 980 555 972 600 c 128,-1,53
 964 645 964 645 951 677.5 c 128,-1,54
 938 710 938 710 912.5 734 c 128,-1,55
 887 758 887 758 852 758 c 0,56,57
 818 758 818 758 794 721.5 c 128,-1,58
 770 685 770 685 759.5 631.5 c 128,-1,59
 749 578 749 578 745 539.5 c 128,-1,60
 741 501 741 501 741 475 c 0,30,31
858 815 m 0,61,62
 906 815 906 815 941 788 c 128,-1,63
 976 761 976 761 993.5 724.5 c 128,-1,64
 1011 688 1011 688 1021.5 636 c 128,-1,65
 1032 584 1032 584 1034 550 c 128,-1,66
 1036 516 1036 516 1036 479 c 0,67,68
 1036 462 1036 462 1034 432 c 128,-1,69
 1032 402 1032 402 1032 385 c 1,70,-1
 1036 379 l 1,71,72
 1036 322 1036 322 1028.5 269.5 c 128,-1,73
 1021 217 1021 217 1001 158 c 128,-1,74
 981 99 981 99 937.5 63 c 128,-1,75
 894 27 894 27 831 27 c 0,76,77
 792 27 792 27 762 68.5 c 128,-1,78
 732 110 732 110 716.5 168.5 c 128,-1,79
 701 227 701 227 693.5 275 c 128,-1,80
 686 323 686 323 686 350 c 2,81,-1
 686 358 l 2,82,83
 686 815 686 815 858 815 c 0,61,62
145 1065 m 0,84,85
 145 1039 145 1039 149 1000 c 128,-1,86
 153 961 153 961 163.5 906 c 128,-1,87
 174 851 174 851 198.5 813.5 c 128,-1,88
 223 776 223 776 258 776 c 0,89,90
 302 776 302 776 332 810 c 128,-1,91
 362 844 362 844 373.5 899 c 128,-1,92
 385 954 385 954 389 992.5 c 128,-1,93
 393 1031 393 1031 393 1071 c 0,94,95
 393 1116 393 1116 385 1199 c 128,-1,96
 377 1282 377 1282 377 1327 c 1,97,-1
 373 1346 l 1,98,99
 373 1407 373 1407 335.5 1452 c 128,-1,100
 298 1497 298 1497 242 1497 c 0,101,102
 221 1497 221 1497 204.5 1474 c 128,-1,103
 188 1451 188 1451 179 1414 c 128,-1,104
 170 1377 170 1377 164.5 1343 c 128,-1,105
 159 1309 159 1309 155 1273.5 c 128,-1,106
 151 1238 151 1238 150 1231 c 1,107,108
 150 1223 150 1223 145.5 1205 c 128,-1,109
 141 1187 141 1187 141 1178 c 0,110,111
 141 1160 141 1160 143 1122.5 c 128,-1,112
 145 1085 145 1085 145 1065 c 0,84,85
262 723 m 0,113,114
 90 723 90 723 90 1180 c 2,115,-1
 90 1188 l 2,116,117
 90 1218 90 1218 98 1272.5 c 128,-1,118
 106 1327 106 1327 121.5 1392.5 c 128,-1,119
 137 1458 137 1458 167.5 1505 c 128,-1,120
 198 1552 198 1552 236 1552 c 2,121,-1
 240 1552 l 2,122,123
 340 1552 340 1552 377 1477 c 1,124,125
 440 1369 440 1369 440 1159 c 1,126,-1
 436 1153 l 1,127,128
 436 1136 436 1136 438 1106 c 128,-1,129
 440 1076 440 1076 440 1059 c 0,130,131
 440 1022 440 1022 438 988 c 128,-1,132
 436 954 436 954 425.5 902 c 128,-1,133
 415 850 415 850 397.5 813.5 c 128,-1,134
 380 777 380 777 345 750 c 128,-1,135
 310 723 310 723 262 723 c 0,113,114
EndSplineSet
EndChar

StartChar: ampersand
Encoding: 38 38 9
Width: 942
GlyphClass: 2
Flags: W
LayerCount: 2
UndoRedoHistory
Layer: 1
Undoes
EndUndoes
Redoes
EndRedoes
EndUndoRedoHistory
Fore
SplineSet
313 1315 m 1,0,1
 309 1303 309 1303 309 1280 c 0,2,3
 309 1264 309 1264 312 1235 c 128,-1,4
 315 1206 315 1206 315 1190 c 1,5,6
 350 1222 350 1222 393 1348 c 128,-1,7
 436 1474 436 1474 436 1530 c 0,8,9
 436 1653 436 1653 360 1653 c 0,10,11
 346 1653 346 1653 326.5 1623.5 c 128,-1,12
 307 1594 307 1594 307 1579 c 2,13,-1
 309 1325 l 1,14,-1
 313 1315 l 1,0,1
764 629 m 1,15,16
 766 629 766 629 766 627 c 1,17,-1
 764 629 l 1,15,16
137 569 m 0,18,19
 137 512 137 512 150 459.5 c 128,-1,20
 163 407 163 407 189 360.5 c 128,-1,21
 215 314 215 314 261 286 c 128,-1,22
 307 258 307 258 367 258 c 0,23,24
 408 258 408 258 474 282.5 c 128,-1,25
 540 307 540 307 543 340 c 1,26,27
 534 355 534 355 502 387 c 0,28,29
 437 453 437 453 385.5 589 c 128,-1,30
 334 725 334 725 309 850 c 0,31,32
 305 871 305 871 298 932.5 c 128,-1,33
 291 994 291 994 281 1026 c 1,34,35
 211 935 211 935 174 813.5 c 128,-1,36
 137 692 137 692 137 569 c 0,18,19
352 219 m 0,37,38
 280 219 280 219 218.5 269 c 128,-1,39
 157 319 157 319 124.5 390.5 c 128,-1,40
 92 462 92 462 92 532 c 0,41,42
 92 575 92 575 93.5 611.5 c 128,-1,43
 95 648 95 648 102.5 686.5 c 128,-1,44
 110 725 110 725 113.5 748.5 c 128,-1,45
 117 772 117 772 131.5 812 c 128,-1,46
 146 852 146 852 150.5 867 c 128,-1,47
 155 882 155 882 177.5 927.5 c 128,-1,48
 200 973 200 973 205 983.5 c 128,-1,49
 210 994 210 994 239 1050 c 128,-1,50
 268 1106 268 1106 274 1118 c 1,51,52
 274 1166 274 1166 267 1261.5 c 128,-1,53
 260 1357 260 1357 260 1405 c 2,54,-1
 260 1575 l 2,55,56
 260 1599 260 1599 265.5 1626.5 c 128,-1,57
 271 1654 271 1654 287 1679 c 128,-1,58
 303 1704 303 1704 326 1704 c 0,59,60
 373 1704 373 1704 427 1673 c 128,-1,61
 481 1642 481 1642 481 1599 c 0,62,63
 481 1578 481 1578 478 1538 c 128,-1,64
 475 1498 475 1498 475 1477 c 0,65,66
 475 1460 475 1460 477 1452 c 1,67,68
 469 1430 469 1430 454.5 1388 c 128,-1,69
 440 1346 440 1346 431 1319.5 c 128,-1,70
 422 1293 422 1293 407 1257.5 c 128,-1,71
 392 1222 392 1222 377 1194 c 0,72,73
 371 1183 371 1183 355.5 1161.5 c 128,-1,74
 340 1140 340 1140 331 1121.5 c 128,-1,75
 322 1103 322 1103 322 1085 c 0,76,77
 322 1024 322 1024 361.5 863.5 c 128,-1,78
 401 703 401 703 461.5 550 c 128,-1,79
 522 397 522 397 569 383 c 1,80,81
 647 540 647 540 647 780 c 0,82,83
 647 799 647 799 641.5 806 c 128,-1,84
 636 813 636 813 629 812 c 128,-1,85
 622 811 622 811 613 813.5 c 128,-1,86
 604 816 604 816 598 825 c 1,87,-1
 600 829 l 1,88,-1
 596 842 l 1,89,-1
 602 852 l 1,90,91
 637 852 637 852 719.5 860.5 c 128,-1,92
 802 869 802 869 823 877 c 1,93,94
 836 875 836 875 847 867 c 128,-1,95
 858 859 858 859 858 846 c 0,96,97
 858 831 858 831 823.5 822 c 128,-1,98
 789 813 789 813 756 813 c 0,99,100
 748 813 748 813 731.5 814 c 128,-1,101
 715 815 715 815 707 815 c 2,102,-1
 694 815 l 1,103,104
 694 657 694 657 676.5 554 c 128,-1,105
 659 451 659 451 606 348 c 1,106,107
 677 266 677 266 764 266 c 0,108,109
 776 266 776 266 801.5 269 c 128,-1,110
 827 272 827 272 840 272 c 1,111,-1
 862 254 l 1,112,113
 862 221 862 221 770 221 c 0,114,115
 736 221 736 221 700.5 234.5 c 128,-1,116
 665 248 665 248 641.5 262.5 c 128,-1,117
 618 277 618 277 584 303 c 1,118,119
 517 257 517 257 469.5 238 c 128,-1,120
 422 219 422 219 352 219 c 0,37,38
EndSplineSet
EndChar

StartChar: quotesingle
Encoding: 39 39 10
Width: 636
GlyphClass: 2
Flags: W
LayerCount: 2
UndoRedoHistory
Layer: 1
Undoes
EndUndoes
Redoes
EndRedoes
EndUndoRedoHistory
Fore
SplineSet
207 1262 m 1,0,1
 211 1291 211 1291 211 1384 c 2,2,-1
 211 1401 l 2,3,4
 211 1575 211 1575 233 1575 c 0,5,6
 254 1575 254 1575 267.5 1551.5 c 128,-1,7
 281 1528 281 1528 281 1497 c 0,8,9
 281 1442 281 1442 257.5 1349.5 c 128,-1,10
 234 1257 234 1257 215 1257 c 0,11,12
 212 1257 212 1257 207 1262 c 1,0,1
EndSplineSet
EndChar

StartChar: parenleft
Encoding: 40 40 11
Width: 460
GlyphClass: 2
Flags: W
LayerCount: 2
UndoRedoHistory
Layer: 1
Undoes
EndUndoes
Redoes
EndRedoes
EndUndoRedoHistory
Fore
SplineSet
94 879 m 0,0,1
 94 947 94 947 119.5 1118 c 128,-1,2
 145 1289 145 1289 194 1456.5 c 128,-1,3
 243 1624 243 1624 293 1626 c 1,4,-1
 313 1610 l 1,5,6
 312 1579 312 1579 300 1547.5 c 128,-1,7
 288 1516 288 1516 269 1479.5 c 128,-1,8
 250 1443 250 1443 242 1423 c 0,9,10
 150 1167 150 1167 150 879 c 0,11,12
 150 230 150 230 305 -139 c 0,13,14
 313 -158 313 -158 346.5 -218.5 c 128,-1,15
 380 -279 380 -279 389 -315 c 1,16,17
 374 -340 374 -340 358 -340 c 0,18,19
 347 -340 347 -340 338 -335.5 c 128,-1,20
 329 -331 329 -331 321.5 -318.5 c 128,-1,21
 314 -306 314 -306 310.5 -300 c 128,-1,22
 307 -294 307 -294 300 -276.5 c 128,-1,23
 293 -259 293 -259 293 -258 c 0,24,25
 199 -48 199 -48 146.5 271 c 128,-1,26
 94 590 94 590 94 879 c 0,0,1
EndSplineSet
EndChar

StartChar: parenright
Encoding: 41 41 12
Width: 477
GlyphClass: 2
Flags: W
LayerCount: 2
UndoRedoHistory
Layer: 1
Undoes
EndUndoes
Redoes
EndRedoes
EndUndoRedoHistory
Fore
SplineSet
387 817 m 0,0,1
 387 584 387 584 324 319 c 0,2,3
 309 254 309 254 291 183 c 128,-1,4
 273 112 273 112 238.5 -8 c 128,-1,5
 204 -128 204 -128 167.5 -203.5 c 128,-1,6
 131 -279 131 -279 102 -279 c 0,7,8
 91 -279 91 -279 81.5 -272 c 128,-1,9
 72 -265 72 -265 72 -254 c 0,10,11
 72 -246 72 -246 87 -216.5 c 128,-1,12
 102 -187 102 -187 124 -145.5 c 128,-1,13
 146 -104 146 -104 156 -78 c 0,14,15
 233 126 233 126 282.5 370 c 128,-1,16
 332 614 332 614 332 817 c 0,17,18
 332 1167 332 1167 240 1423 c 0,19,20
 232 1445 232 1445 212.5 1480.5 c 128,-1,21
 193 1516 193 1516 180.5 1547.5 c 128,-1,22
 168 1579 168 1579 168 1610 c 1,23,-1
 188 1626 l 1,24,25
 230 1625 230 1625 269.5 1516 c 128,-1,26
 309 1407 309 1407 333.5 1263 c 128,-1,27
 358 1119 358 1119 372.5 993.5 c 128,-1,28
 387 868 387 868 387 817 c 0,0,1
EndSplineSet
EndChar

StartChar: asterisk
Encoding: 42 42 13
Width: 905
GlyphClass: 2
Flags: W
LayerCount: 2
UndoRedoHistory
Layer: 1
Undoes
EndUndoes
Redoes
EndRedoes
EndUndoRedoHistory
Fore
SplineSet
471 1120 m 1,0,1
 469 1120 469 1120 469 1118 c 1,2,-1
 471 1118 l 1,3,-1
 471 1120 l 1,0,1
537 1120 m 2,4,-1
 512 1120 l 2,5,6
 483 1120 483 1120 473 1114 c 1,7,8
 474 1088 474 1088 552.5 932.5 c 128,-1,9
 631 777 631 777 631 754 c 0,10,11
 631 742 631 742 622 733.5 c 128,-1,12
 613 725 613 725 602 725 c 0,13,14
 581 725 581 725 570 742.5 c 128,-1,15
 559 760 559 760 552.5 793.5 c 128,-1,16
 546 827 546 827 545 831 c 0,17,18
 490 962 490 962 434 1065 c 1,19,20
 425 1053 425 1053 410 1012 c 1,21,-1
 330 823 l 2,22,23
 326 813 326 813 317.5 789.5 c 128,-1,24
 309 766 309 766 302 749.5 c 128,-1,25
 295 733 295 733 287 719 c 1,26,-1
 260 715 l 1,27,-1
 231 745 l 1,28,29
 231 768 231 768 308 919.5 c 128,-1,30
 385 1071 385 1071 393 1118 c 1,31,32
 381 1122 381 1122 371 1122 c 2,33,-1
 139 1122 l 2,34,35
 134 1122 134 1122 123 1121 c 128,-1,36
 112 1120 112 1120 106 1120 c 0,37,38
 84 1120 84 1120 84 1153 c 0,39,40
 84 1163 84 1163 90.5 1170.5 c 128,-1,41
 97 1178 97 1178 106 1178 c 0,42,43
 153 1178 153 1178 245 1177 c 128,-1,44
 337 1176 337 1176 383 1176 c 1,45,-1
 387 1180 l 1,46,47
 365 1220 365 1220 301.5 1355 c 128,-1,48
 238 1490 238 1490 238 1503 c 0,49,50
 238 1514 238 1514 248 1520 c 128,-1,51
 258 1526 258 1526 270 1526 c 0,52,53
 284 1526 284 1526 313.5 1454.5 c 128,-1,54
 343 1383 343 1383 375.5 1304 c 128,-1,55
 408 1225 408 1225 428 1212 c 1,56,57
 437 1228 437 1228 465.5 1315.5 c 128,-1,58
 494 1403 494 1403 524 1473.5 c 128,-1,59
 554 1544 554 1544 575 1544 c 0,60,61
 586 1544 586 1544 597 1533.5 c 128,-1,62
 608 1523 608 1523 608 1513 c 0,63,64
 608 1500 608 1500 582 1458 c 1,65,66
 558 1410 558 1410 526.5 1314 c 128,-1,67
 495 1218 495 1218 477 1178 c 1,68,-1
 479 1176 l 1,69,70
 540 1167 540 1167 602 1167 c 0,71,72
 630 1167 630 1167 690 1172.5 c 128,-1,73
 750 1178 750 1178 778 1178 c 0,74,75
 793 1178 793 1178 805 1165.5 c 128,-1,76
 817 1153 817 1153 817 1139 c 0,77,78
 817 1110 817 1110 770 1110 c 0,79,80
 730 1110 730 1110 653.5 1115 c 128,-1,81
 577 1120 577 1120 537 1120 c 2,4,-1
EndSplineSet
EndChar

StartChar: plus
Encoding: 43 43 14
Width: 727
GlyphClass: 2
Flags: W
LayerCount: 2
UndoRedoHistory
Layer: 1
Undoes
EndUndoes
Redoes
EndRedoes
EndUndoRedoHistory
Fore
SplineSet
315 385 m 2,0,-1
 315 449 l 2,1,2
 315 466 315 466 317 501 c 128,-1,3
 319 536 319 536 319 555 c 0,4,5
 319 579 319 579 318 588 c 128,-1,6
 317 597 317 597 310.5 607.5 c 128,-1,7
 304 618 304 618 290 620.5 c 128,-1,8
 276 623 276 623 250 623 c 0,9,10
 235 623 235 623 205.5 617.5 c 128,-1,11
 176 612 176 612 160 612 c 0,12,13
 100 612 100 612 100 655 c 0,14,15
 100 670 100 670 104.5 677 c 128,-1,16
 109 684 109 684 123 684 c 0,17,18
 142 684 142 684 177 681 c 128,-1,19
 212 678 212 678 231 678 c 0,20,21
 315 678 315 678 315 694 c 0,22,23
 315 728 315 728 310 796.5 c 128,-1,24
 305 865 305 865 305 899 c 0,25,26
 305 923 305 923 313.5 933.5 c 128,-1,27
 322 944 322 944 346 944 c 0,28,29
 383 944 383 944 383 909 c 1,30,-1
 375 889 l 1,31,32
 375 862 375 862 379 808 c 128,-1,33
 383 754 383 754 383 727 c 0,34,35
 383 698 383 698 396.5 688 c 128,-1,36
 410 678 410 678 440 678 c 0,37,38
 461 678 461 678 501.5 681 c 128,-1,39
 542 684 542 684 563 684 c 0,40,41
 627 684 627 684 627 647 c 0,42,43
 627 614 627 614 592 614 c 0,44,45
 572 614 572 614 530.5 617.5 c 128,-1,46
 489 621 489 621 467 621 c 2,47,-1
 457 621 l 2,48,49
 412 621 412 621 397.5 610 c 128,-1,50
 383 599 383 599 383 553 c 0,51,52
 383 516 383 516 392 466 c 128,-1,53
 401 416 401 416 401 389 c 0,54,55
 401 373 401 373 388 364.5 c 128,-1,56
 375 356 375 356 358 356 c 0,57,58
 346 356 346 356 330.5 365 c 128,-1,59
 315 374 315 374 315 385 c 2,0,-1
EndSplineSet
EndChar

StartChar: comma
Encoding: 44 44 15
Width: 407
GlyphClass: 2
Flags: W
LayerCount: 2
UndoRedoHistory
Layer: 1
Undoes
EndUndoes
Redoes
EndRedoes
EndUndoRedoHistory
Fore
SplineSet
100 -162 m 1,0,-1
 104 -143 l 1,1,2
 110 -138 110 -138 130 -119.5 c 128,-1,3
 150 -101 150 -101 160 -91 c 128,-1,4
 170 -81 170 -81 184 -63.5 c 128,-1,5
 198 -46 198 -46 204.5 -29 c 128,-1,6
 211 -12 211 -12 211 6 c 1,7,8
 186 20 186 20 169 45 c 128,-1,9
 152 70 152 70 152 96 c 0,10,11
 152 124 152 124 176.5 142 c 128,-1,12
 201 160 201 160 229 160 c 0,13,14
 275 160 275 160 297 100 c 1,15,-1
 293 94 l 1,16,17
 297 86 297 86 297 70 c 0,18,19
 297 36 297 36 272 -22 c 128,-1,20
 247 -80 247 -80 207 -128.5 c 128,-1,21
 167 -177 167 -177 133 -178 c 1,22,-1
 100 -162 l 1,0,-1
EndSplineSet
EndChar

StartChar: hyphen
Encoding: 45 45 16
AltUni2: 002015.ffffffff.0
Width: 620
GlyphClass: 2
Flags: W
LayerCount: 2
UndoRedoHistory
Layer: 1
Undoes
EndUndoes
Redoes
EndRedoes
EndUndoRedoHistory
Fore
SplineSet
508 739 m 0,0,1
 508 718 508 718 374.5 699 c 128,-1,2
 241 680 241 680 156 680 c 0,3,4
 141 680 141 680 127 689.5 c 128,-1,5
 113 699 113 699 113 715 c 0,6,7
 113 736 113 736 248 755 c 128,-1,8
 383 774 383 774 463 774 c 0,9,10
 478 774 478 774 493 763.5 c 128,-1,11
 508 753 508 753 508 739 c 0,0,1
EndSplineSet
EndChar

StartChar: period
Encoding: 46 46 17
Width: 327
GlyphClass: 2
Flags: W
LayerCount: 2
UndoRedoHistory
Layer: 1
Undoes
EndUndoes
Redoes
EndRedoes
EndUndoRedoHistory
Fore
SplineSet
113 41 m 0,0,1
 113 61 113 61 129.5 78.5 c 128,-1,2
 146 96 146 96 166 96 c 0,3,4
 184 96 184 96 199.5 78.5 c 128,-1,5
 215 61 215 61 215 43 c 0,6,7
 215 -8 215 -8 158 -8 c 0,8,9
 140 -8 140 -8 126.5 7.5 c 128,-1,10
 113 23 113 23 113 41 c 0,0,1
EndSplineSet
EndChar

StartChar: slash
Encoding: 47 47 18
Width: 559
GlyphClass: 2
Flags: W
LayerCount: 2
UndoRedoHistory
Layer: 1
Undoes
EndUndoes
Redoes
EndRedoes
EndUndoRedoHistory
Fore
SplineSet
479 1505 m 0,0,1
 479 1498 479 1498 470 1456 c 128,-1,2
 461 1414 461 1414 450 1368.5 c 128,-1,3
 439 1323 439 1323 438 1317 c 0,4,5
 413 1204 413 1204 207 299 c 1,6,-1
 166 121 l 2,7,8
 164 114 164 114 160 92.5 c 128,-1,9
 156 71 156 71 152.5 58 c 128,-1,10
 149 45 149 45 143 28.5 c 128,-1,11
 137 12 137 12 127.5 3.5 c 128,-1,12
 118 -5 118 -5 106 -6 c 1,13,14
 86 7 86 7 86 31 c 0,15,16
 86 75 86 75 96.5 131 c 128,-1,17
 107 187 107 187 129.5 273 c 128,-1,18
 152 359 152 359 158 387 c 0,19,20
 294 989 294 989 414 1448 c 0,21,22
 415 1450 415 1450 417.5 1461 c 128,-1,23
 420 1472 420 1472 423.5 1483 c 128,-1,24
 427 1494 427 1494 431 1505.5 c 128,-1,25
 435 1517 435 1517 440 1524.5 c 128,-1,26
 445 1532 445 1532 449 1532 c 0,27,28
 479 1532 479 1532 479 1505 c 0,0,1
EndSplineSet
EndChar

StartChar: zero
Encoding: 48 48 19
Width: 606
GlyphClass: 2
Flags: W
LayerCount: 2
UndoRedoHistory
Layer: 1
Undoes
EndUndoes
Redoes
EndRedoes
EndUndoRedoHistory
Fore
SplineSet
176 766 m 2,0,-1
 176 746 l 2,1,2
 176 705 176 705 176.5 669.5 c 128,-1,3
 177 634 177 634 179 569 c 128,-1,4
 181 504 181 504 186 450 c 128,-1,5
 191 396 191 396 198 331 c 128,-1,6
 205 266 205 266 217.5 216 c 128,-1,7
 230 166 230 166 246.5 123 c 128,-1,8
 263 80 263 80 287 56.5 c 128,-1,9
 311 33 311 33 340 33 c 128,-1,10
 369 33 369 33 391.5 62.5 c 128,-1,11
 414 92 414 92 427.5 142 c 128,-1,12
 441 192 441 192 450 245 c 128,-1,13
 459 298 459 298 462.5 359 c 128,-1,14
 466 420 466 420 467.5 456.5 c 128,-1,15
 469 493 469 493 469 524 c 0,16,17
 469 654 469 654 453 823.5 c 128,-1,18
 437 993 437 993 406 1071 c 1,19,-1
 406 1159 l 1,20,21
 394 1189 394 1189 388 1229.5 c 128,-1,22
 382 1270 382 1270 381 1302.5 c 128,-1,23
 380 1335 380 1335 372.5 1369.5 c 128,-1,24
 365 1404 365 1404 351 1429 c 128,-1,25
 337 1454 337 1454 303 1472.5 c 128,-1,26
 269 1491 269 1491 217 1497 c 1,27,28
 169 1458 169 1458 158 1428 c 128,-1,29
 147 1398 147 1398 147 1329 c 0,30,31
 147 1266 147 1266 151.5 1138 c 128,-1,32
 156 1010 156 1010 156 946 c 0,33,34
 156 915 156 915 166 855.5 c 128,-1,35
 176 796 176 796 176 766 c 2,0,-1
322 -14 m 0,36,37
 315 -14 315 -14 290 -3.5 c 128,-1,38
 265 7 265 7 256 12 c 0,39,40
 159 72 159 72 106 774 c 1,41,-1
 115 782 l 1,42,-1
 113 928 l 1,43,44
 100 945 100 945 100 1036 c 0,45,46
 100 1090 100 1090 101 1200 c 128,-1,47
 102 1310 102 1310 102 1364 c 1,48,49
 113 1383 113 1383 119.5 1411.5 c 128,-1,50
 126 1440 126 1440 130.5 1460.5 c 128,-1,51
 135 1481 135 1481 146 1501 c 128,-1,52
 157 1521 157 1521 182 1531.5 c 128,-1,53
 207 1542 207 1542 248 1542 c 0,54,55
 268 1542 268 1542 315 1516 c 1,56,57
 340 1501 340 1501 359.5 1482.5 c 128,-1,58
 379 1464 379 1464 392.5 1438.5 c 128,-1,59
 406 1413 406 1413 415 1395 c 128,-1,60
 424 1377 424 1377 430.5 1342.5 c 128,-1,61
 437 1308 437 1308 439.5 1293 c 128,-1,62
 442 1278 442 1278 447 1236.5 c 128,-1,63
 452 1195 452 1195 453 1184 c 0,64,65
 454 1177 454 1177 462 1117 c 128,-1,66
 470 1057 470 1057 471.5 1045 c 128,-1,67
 473 1033 473 1033 480.5 978.5 c 128,-1,68
 488 924 488 924 489.5 906.5 c 128,-1,69
 491 889 491 889 496.5 840.5 c 128,-1,70
 502 792 502 792 504 768 c 128,-1,71
 506 744 506 744 509.5 701.5 c 128,-1,72
 513 659 513 659 514.5 629.5 c 128,-1,73
 516 600 516 600 517 563 c 128,-1,74
 518 526 518 526 518 492 c 0,75,76
 518 449 518 449 516 408.5 c 128,-1,77
 514 368 514 368 508.5 304.5 c 128,-1,78
 503 241 503 241 489.5 189.5 c 128,-1,79
 476 138 476 138 455.5 89.5 c 128,-1,80
 435 41 435 41 400.5 13.5 c 128,-1,81
 366 -14 366 -14 322 -14 c 0,36,37
EndSplineSet
EndChar

StartChar: one
Encoding: 49 49 20
Width: 606
GlyphClass: 2
Flags: W
LayerCount: 2
UndoRedoHistory
Layer: 1
Undoes
EndUndoes
Redoes
EndRedoes
EndUndoRedoHistory
Fore
SplineSet
197 37 m 1,0,-1
 207 57 l 1,1,2
 216 57 216 57 234.5 56 c 128,-1,3
 253 55 253 55 262 55 c 0,4,5
 291 55 291 55 302 68 c 128,-1,6
 313 81 313 81 313 111 c 0,7,8
 313 248 313 248 306.5 414.5 c 128,-1,9
 300 581 300 581 293.5 687 c 128,-1,10
 287 793 287 793 273 1001.5 c 128,-1,11
 259 1210 259 1210 254 1284 c 0,12,13
 254 1295 254 1295 255 1318 c 128,-1,14
 256 1341 256 1341 256 1354 c 0,15,16
 256 1414 256 1414 237 1448.5 c 128,-1,17
 218 1483 218 1483 162 1483 c 0,18,19
 154 1483 154 1483 138.5 1481 c 128,-1,20
 123 1479 123 1479 115 1479 c 0,21,22
 80 1479 80 1479 80 1501 c 0,23,24
 80 1530 80 1530 260 1530 c 0,25,26
 274 1530 274 1530 283.5 1520 c 128,-1,27
 293 1510 293 1510 293 1497 c 1,28,-1
 297 1497 l 1,29,30
 291 1467 291 1467 291 1434 c 0,31,32
 291 1370 291 1370 306.5 1241 c 128,-1,33
 322 1112 322 1112 322 1047 c 0,34,35
 322 932 322 932 339 703.5 c 128,-1,36
 356 475 356 475 356 360 c 0,37,38
 356 350 356 350 352 334 c 1,39,40
 357 314 357 314 361 230 c 128,-1,41
 365 146 365 146 365 102 c 0,42,43
 365 97 365 97 363.5 87 c 128,-1,44
 362 77 362 77 362 72 c 1,45,-1
 371 66 l 1,46,47
 386 66 386 66 417 69 c 128,-1,48
 448 72 448 72 463 72 c 0,49,50
 526 72 526 72 526 43 c 128,-1,51
 526 14 526 14 481 14 c 0,52,53
 439 14 439 14 355 10 c 128,-1,54
 271 6 271 6 229 6 c 0,55,56
 215 6 215 6 206 15 c 128,-1,57
 197 24 197 24 197 37 c 1,0,-1
EndSplineSet
EndChar

StartChar: two
Encoding: 50 50 21
Width: 571
GlyphClass: 2
Flags: W
LayerCount: 2
UndoRedoHistory
Layer: 1
Undoes
EndUndoes
Redoes
EndRedoes
EndUndoRedoHistory
Fore
SplineSet
78 25 m 1,0,1
 113 69 113 69 147 164.5 c 128,-1,2
 181 260 181 260 188 274 c 0,3,4
 305 530 305 530 363.5 762 c 128,-1,5
 422 994 422 994 422 1249 c 0,6,7
 422 1544 422 1544 295 1544 c 1,8,9
 266 1531 266 1531 249.5 1500 c 128,-1,10
 233 1469 233 1469 230 1440 c 128,-1,11
 227 1411 227 1411 219 1388.5 c 128,-1,12
 211 1366 211 1366 195 1366 c 0,13,14
 182 1366 182 1366 176 1373 c 128,-1,15
 170 1380 170 1380 169 1387 c 128,-1,16
 168 1394 168 1394 168 1407 c 0,17,18
 168 1440 168 1440 179 1479.5 c 128,-1,19
 190 1519 190 1519 216 1552 c 128,-1,20
 242 1585 242 1585 276 1585 c 0,21,22
 362 1585 362 1585 415 1520 c 128,-1,23
 468 1455 468 1455 471 1366 c 1,24,-1
 467 1362 l 1,25,26
 467 1338 467 1338 470 1287 c 128,-1,27
 473 1236 473 1236 473 1212 c 0,28,29
 473 1045 473 1045 427 804 c 128,-1,30
 381 563 381 563 317 420 c 0,31,32
 312 408 312 408 265 311 c 128,-1,33
 218 214 218 214 186.5 140 c 128,-1,34
 155 66 155 66 154 41 c 1,35,-1
 170 39 l 1,36,37
 241 52 241 52 416 61 c 1,38,-1
 446 29 l 1,39,-1
 428 2 l 1,40,41
 378 2 378 2 278.5 -7 c 128,-1,42
 179 -16 179 -16 129 -16 c 0,43,44
 109 -16 109 -16 93.5 -5 c 128,-1,45
 78 6 78 6 78 25 c 1,0,1
EndSplineSet
EndChar

StartChar: three
Encoding: 51 51 22
Width: 589
GlyphClass: 2
Flags: W
LayerCount: 2
UndoRedoHistory
Layer: 1
Undoes
EndUndoes
Redoes
EndRedoes
EndUndoRedoHistory
Fore
SplineSet
195 74 m 1,0,-1
 211 84 l 1,1,2
 226 83 226 83 240.5 75.5 c 128,-1,3
 255 68 255 68 272.5 55 c 128,-1,4
 290 42 290 42 299 37 c 1,5,6
 455 37 455 37 455 297 c 0,7,8
 455 368 455 368 453.5 413.5 c 128,-1,9
 452 459 452 459 444.5 526.5 c 128,-1,10
 437 594 437 594 423 643.5 c 128,-1,11
 409 693 409 693 381.5 747.5 c 128,-1,12
 354 802 354 802 315 844 c 1,13,14
 312 844 312 844 305.5 843 c 128,-1,15
 299 842 299 842 295 842 c 0,16,17
 272 842 272 842 256 850 c 1,18,-1
 256 858 l 1,19,-1
 246 868 l 1,20,21
 247 875 247 875 267.5 899 c 128,-1,22
 288 923 288 923 312.5 952.5 c 128,-1,23
 337 982 337 982 357 1031 c 128,-1,24
 377 1080 377 1080 377 1130 c 0,25,26
 377 1164 377 1164 375 1200.5 c 128,-1,27
 373 1237 373 1237 365.5 1292.5 c 128,-1,28
 358 1348 358 1348 345 1389 c 128,-1,29
 332 1430 332 1430 306 1460.5 c 128,-1,30
 280 1491 280 1491 246 1491 c 128,-1,31
 212 1491 212 1491 189.5 1472.5 c 128,-1,32
 167 1454 167 1454 159 1432.5 c 128,-1,33
 151 1411 151 1411 139 1392.5 c 128,-1,34
 127 1374 127 1374 111 1374 c 0,35,36
 99 1374 99 1374 88 1382.5 c 128,-1,37
 77 1391 77 1391 76 1403 c 1,38,39
 108 1468 108 1468 148 1504 c 128,-1,40
 188 1540 188 1540 252 1540 c 0,41,42
 278 1540 278 1540 303 1526 c 128,-1,43
 328 1512 328 1512 344 1491 c 1,44,-1
 350 1489 l 1,45,46
 432 1370 432 1370 432 1102 c 0,47,48
 432 1052 432 1052 395 987 c 1,49,50
 386 981 386 981 361.5 940 c 128,-1,51
 337 899 337 899 328 889 c 1,52,53
 368 873 368 873 396 841.5 c 128,-1,54
 424 810 424 810 439.5 765 c 128,-1,55
 455 720 455 720 463 681 c 128,-1,56
 471 642 471 642 479.5 588 c 128,-1,57
 488 534 488 534 494 508 c 0,58,59
 506 455 506 455 508 438.5 c 128,-1,60
 510 422 510 422 510 367 c 0,61,62
 510 331 510 331 509 304.5 c 128,-1,63
 508 278 508 278 504 237 c 128,-1,64
 500 196 500 196 493 166 c 128,-1,65
 486 136 486 136 472 102.5 c 128,-1,66
 458 69 458 69 439 47.5 c 128,-1,67
 420 26 420 26 390 12 c 128,-1,68
 360 -2 360 -2 322 -2 c 0,69,70
 281 -2 281 -2 238 18 c 128,-1,71
 195 38 195 38 195 74 c 1,0,-1
EndSplineSet
EndChar

StartChar: four
Encoding: 52 52 23
Width: 526
GlyphClass: 2
Flags: W
LayerCount: 2
UndoRedoHistory
Layer: 1
Undoes
EndUndoes
Redoes
EndRedoes
EndUndoRedoHistory
Fore
SplineSet
301 61 m 1,0,-1
 299 66 l 1,1,2
 307 99 307 99 307 139 c 0,3,4
 307 174 307 174 300 243.5 c 128,-1,5
 293 313 293 313 293 348 c 0,6,7
 293 364 293 364 295 394 c 128,-1,8
 297 424 297 424 297 440 c 0,9,10
 297 520 297 520 276 530 c 1,11,12
 256 530 256 530 216.5 524 c 128,-1,13
 177 518 177 518 156 518 c 0,14,15
 146 518 146 518 140 518.5 c 128,-1,16
 134 519 134 519 129 521 c 128,-1,17
 124 523 124 523 121.5 524.5 c 128,-1,18
 119 526 119 526 112 531.5 c 128,-1,19
 105 537 105 537 100 541 c 1,20,-1
 100 547 l 2,21,22
 100 557 100 557 111 612 c 1,23,-1
 92 653 l 1,24,25
 92 670 92 670 101.5 703 c 128,-1,26
 111 736 111 736 111 754 c 0,27,28
 111 820 111 820 121 954 c 128,-1,29
 131 1088 131 1088 131 1155 c 2,30,-1
 131 1481 l 2,31,32
 131 1489 131 1489 127 1506.5 c 128,-1,33
 123 1524 123 1524 123 1532 c 0,34,35
 123 1559 123 1559 147 1559 c 0,36,37
 161 1559 161 1559 172.5 1551.5 c 128,-1,38
 184 1544 184 1544 184 1530 c 0,39,40
 184 1502 184 1502 180 1448 c 128,-1,41
 176 1394 176 1394 176 1366 c 0,42,43
 176 1330 176 1330 182 1296 c 1,44,-1
 178 1290 l 1,45,46
 182 1254 182 1254 182 1233 c 0,47,48
 182 1147 182 1147 170 975 c 128,-1,49
 158 803 158 803 158 717 c 0,50,51
 158 707 158 707 165 687 c 128,-1,52
 172 667 172 667 172 657 c 128,-1,53
 172 647 172 647 165 629.5 c 128,-1,54
 158 612 158 612 158 602 c 0,55,56
 158 563 158 563 178 563 c 0,57,58
 197 563 197 563 232.5 569 c 128,-1,59
 268 575 268 575 281 582 c 1,60,61
 281 656 281 656 266 1024 c 0,62,63
 265 1049 265 1049 257.5 1104 c 128,-1,64
 250 1159 250 1159 250 1188 c 0,65,66
 250 1200 250 1200 262.5 1206 c 128,-1,67
 275 1212 275 1212 289 1212 c 1,68,-1
 307 1190 l 1,69,70
 307 1142 307 1142 313 1045.5 c 128,-1,71
 319 949 319 949 319 901 c 0,72,73
 319 841 319 841 325 716 c 128,-1,74
 331 591 331 591 340 582 c 1,75,76
 352 582 352 582 377 586 c 128,-1,77
 402 590 402 590 416 590 c 0,78,79
 455 590 455 590 455 567 c 0,80,81
 455 550 455 550 437 545 c 128,-1,82
 419 540 419 540 397.5 542 c 128,-1,83
 376 544 376 544 358 534 c 128,-1,84
 340 524 340 524 340 498 c 0,85,86
 340 442 340 442 345.5 305 c 128,-1,87
 351 168 351 168 358 152 c 1,88,89
 356 144 356 144 356 117 c 0,90,91
 356 83 356 83 365 68 c 1,92,-1
 358 43 l 1,93,-1
 365 29 l 1,94,-1
 365 0 l 1,95,-1
 332 -25 l 1,96,-1
 301 -12 l 1,97,-1
 301 61 l 1,0,-1
EndSplineSet
EndChar

StartChar: five
Encoding: 53 53 24
Width: 569
GlyphClass: 2
Flags: W
LayerCount: 2
UndoRedoHistory
Layer: 1
Undoes
EndUndoes
Redoes
EndRedoes
EndUndoRedoHistory
Fore
SplineSet
152 1337 m 1,0,1
 150 1337 150 1337 150 1335 c 1,2,-1
 152 1337 l 1,0,1
213 12 m 0,3,4
 213 35 213 35 252 35 c 0,5,6
 261 35 261 35 278.5 26.5 c 128,-1,7
 296 18 296 18 305 18 c 0,8,9
 336 18 336 18 362.5 56 c 128,-1,10
 389 94 389 94 403.5 148 c 128,-1,11
 418 202 418 202 426 250.5 c 128,-1,12
 434 299 434 299 434 328 c 0,13,14
 434 391 434 391 429.5 473 c 128,-1,15
 425 555 425 555 411.5 674.5 c 128,-1,16
 398 794 398 794 365.5 873 c 128,-1,17
 333 952 333 952 285 952 c 2,18,-1
 238 952 l 1,19,-1
 229 946 l 2,20,21
 228 946 228 946 226 947 c 128,-1,22
 224 948 224 948 223 948 c 0,23,24
 216 948 216 948 200 939 c 128,-1,25
 184 930 184 930 178 930 c 0,26,27
 157 930 157 930 146 940.5 c 128,-1,28
 135 951 135 951 132.5 962 c 128,-1,29
 130 973 130 973 129 995.5 c 128,-1,30
 128 1018 128 1018 127 1026 c 1,31,32
 137 1084 137 1084 137 1130 c 0,33,34
 137 1206 137 1206 113.5 1351 c 128,-1,35
 90 1496 90 1496 88 1565 c 1,36,-1
 109 1585 l 1,37,-1
 266 1587 l 1,38,-1
 270 1587 l 2,39,40
 328 1587 328 1587 328 1559 c 1,41,-1
 305 1540 l 1,42,-1
 262 1540 l 1,43,-1
 256 1536 l 1,44,-1
 174 1546 l 1,45,-1
 160 1542 l 1,46,-1
 152 1544 l 1,47,48
 152 1505 152 1505 158.5 1434 c 128,-1,49
 165 1363 165 1363 166 1350 c 0,50,51
 178 1182 178 1182 193 1006 c 1,52,-1
 190 1004 l 2,53,54
 190 1003 190 1003 226 999 c 128,-1,55
 262 995 262 995 306.5 987 c 128,-1,56
 351 979 351 979 367 967 c 0,57,58
 407 937 407 937 436 824.5 c 128,-1,59
 465 712 465 712 475 609.5 c 128,-1,60
 485 507 485 507 485 438 c 0,61,62
 485 394 485 394 484.5 368 c 128,-1,63
 484 342 484 342 481 296 c 128,-1,64
 478 250 478 250 472.5 219 c 128,-1,65
 467 188 467 188 455.5 147.5 c 128,-1,66
 444 107 444 107 428 79 c 128,-1,67
 412 51 412 51 387 24 c 128,-1,68
 362 -3 362 -3 330 -20 c 1,69,-1
 319 -20 l 1,70,-1
 314 -20 l 2,71,72
 213 -20 213 -20 213 12 c 0,3,4
EndSplineSet
EndChar

StartChar: six
Encoding: 54 54 25
Width: 516
GlyphClass: 2
Flags: W
LayerCount: 2
UndoRedoHistory
Layer: 1
Undoes
EndUndoes
Redoes
EndRedoes
EndUndoRedoHistory
Fore
SplineSet
154 758 m 2,0,-1
 154 728 l 2,1,2
 154 455 154 455 205 166 c 0,3,4
 206 158 206 158 208.5 137.5 c 128,-1,5
 211 117 211 117 213 106 c 128,-1,6
 215 95 215 95 219 78 c 128,-1,7
 223 61 223 61 229.5 51.5 c 128,-1,8
 236 42 236 42 246 31.5 c 128,-1,9
 256 21 256 21 271.5 16.5 c 128,-1,10
 287 12 287 12 307 12 c 0,11,12
 383 12 383 12 383 174 c 0,13,14
 383 218 383 218 381.5 267.5 c 128,-1,15
 380 317 380 317 375 404.5 c 128,-1,16
 370 492 370 492 358.5 566.5 c 128,-1,17
 347 641 347 641 330 712.5 c 128,-1,18
 313 784 313 784 283 826 c 128,-1,19
 253 868 253 868 215 868 c 1,20,21
 154 828 154 828 154 758 c 2,0,-1
291 -29 m 0,22,23
 251 -29 251 -29 222 -6.5 c 128,-1,24
 193 16 193 16 178.5 49 c 128,-1,25
 164 82 164 82 154.5 129 c 128,-1,26
 145 176 145 176 142.5 215.5 c 128,-1,27
 140 255 140 255 137 301.5 c 128,-1,28
 134 348 134 348 131 369 c 0,29,30
 100 594 100 594 100 807 c 2,31,-1
 100 816 l 2,32,33
 100 859 100 859 100.5 893.5 c 128,-1,34
 101 928 101 928 103 997.5 c 128,-1,35
 105 1067 105 1067 111 1122.5 c 128,-1,36
 117 1178 117 1178 125.5 1248.5 c 128,-1,37
 134 1319 134 1319 149 1372 c 128,-1,38
 164 1425 164 1425 184 1472 c 128,-1,39
 204 1519 204 1519 233 1544 c 128,-1,40
 262 1569 262 1569 297 1569 c 0,41,42
 304 1569 304 1569 313 1563 c 128,-1,43
 322 1557 322 1557 322 1550 c 0,44,45
 322 1537 322 1537 309 1527.5 c 128,-1,46
 296 1518 296 1518 277 1510 c 128,-1,47
 258 1502 258 1502 252 1497 c 0,48,49
 219 1470 219 1470 195 1335.5 c 128,-1,50
 171 1201 171 1201 163.5 1089.5 c 128,-1,51
 156 978 156 978 154 897 c 1,52,53
 178 913 178 913 199 913 c 0,54,55
 233 913 233 913 262 897 c 128,-1,56
 291 881 291 881 312 850.5 c 128,-1,57
 333 820 333 820 351 784 c 128,-1,58
 369 748 369 748 381 698 c 128,-1,59
 393 648 393 648 402 603.5 c 128,-1,60
 411 559 411 559 416.5 502 c 128,-1,61
 422 445 422 445 425.5 403.5 c 128,-1,62
 429 362 429 362 430 309.5 c 128,-1,63
 431 257 431 257 431.5 231 c 128,-1,64
 432 205 432 205 432 170 c 0,65,66
 432 136 432 136 429.5 110.5 c 128,-1,67
 427 85 427 85 418.5 57.5 c 128,-1,68
 410 30 410 30 395 12 c 128,-1,69
 380 -6 380 -6 353.5 -17.5 c 128,-1,70
 327 -29 327 -29 291 -29 c 0,22,23
EndSplineSet
EndChar

StartChar: seven
Encoding: 55 55 26
Width: 450
GlyphClass: 2
Flags: W
LayerCount: 2
UndoRedoHistory
Layer: 1
Undoes
EndUndoes
Redoes
EndRedoes
EndUndoRedoHistory
Fore
SplineSet
86 -4 m 1,0,1
 86 19 86 19 92.5 43.5 c 128,-1,2
 99 68 99 68 109 97 c 128,-1,3
 119 126 119 126 123 143 c 0,4,5
 160 300 160 300 184.5 470 c 128,-1,6
 209 640 209 640 235 881 c 128,-1,7
 261 1122 261 1122 272 1212 c 0,8,9
 276 1244 276 1244 286 1307 c 128,-1,10
 296 1370 296 1370 301.5 1420.5 c 128,-1,11
 307 1471 307 1471 307 1516 c 0,12,13
 307 1528 307 1528 236 1528 c 0,14,15
 216 1528 216 1528 176 1525 c 128,-1,16
 136 1522 136 1522 115 1522 c 1,17,-1
 84 1542 l 1,18,-1
 102 1561 l 1,19,20
 138 1561 138 1561 210.5 1564 c 128,-1,21
 283 1567 283 1567 319 1567 c 0,22,23
 333 1567 333 1567 346.5 1555.5 c 128,-1,24
 360 1544 360 1544 365 1530 c 1,25,26
 358 1511 358 1511 355 1489 c 128,-1,27
 352 1467 352 1467 351.5 1437.5 c 128,-1,28
 351 1408 351 1408 350 1395 c 0,29,30
 338 1251 338 1251 258.5 683.5 c 128,-1,31
 179 116 179 116 158 86 c 1,32,33
 160 80 160 80 160 70 c 0,34,35
 160 41 160 41 147 7.5 c 128,-1,36
 134 -26 134 -26 111 -27 c 1,37,-1
 86 -4 l 1,0,1
EndSplineSet
EndChar

StartChar: eight
Encoding: 56 56 27
Width: 524
GlyphClass: 2
Flags: W
LayerCount: 2
UndoRedoHistory
Layer: 1
Undoes
EndUndoes
Redoes
EndRedoes
EndUndoRedoHistory
Fore
SplineSet
139 1438 m 0,0,1
 139 1374 139 1374 178 1180.5 c 128,-1,2
 217 987 217 987 246 969 c 1,3,4
 307 1165 307 1165 307 1335 c 0,5,6
 307 1373 307 1373 303 1417.5 c 128,-1,7
 299 1462 299 1462 281 1513.5 c 128,-1,8
 263 1565 263 1565 233 1565 c 0,9,10
 230 1565 230 1565 222.5 1564 c 128,-1,11
 215 1563 215 1563 211 1563 c 0,12,13
 195 1563 195 1563 186 1569 c 1,14,15
 139 1531 139 1531 139 1438 c 0,0,1
205 53 m 1,16,17
 207 21 207 21 225 -9 c 128,-1,18
 243 -39 243 -39 272 -39 c 0,19,20
 337 -39 337 -39 366 6 c 128,-1,21
 395 51 395 51 395 119 c 0,22,23
 395 313 395 313 317 598 c 0,24,25
 311 619 311 619 301.5 661.5 c 128,-1,26
 292 704 292 704 283 735.5 c 128,-1,27
 274 767 274 767 262 788 c 1,28,29
 221 731 221 731 200.5 522.5 c 128,-1,30
 180 314 180 314 180 168 c 0,31,32
 180 126 180 126 207 59 c 1,33,-1
 205 53 l 1,16,17
133 186 m 0,34,35
 133 498 133 498 199 756 c 0,36,37
 202 768 202 768 210.5 790.5 c 128,-1,38
 219 813 219 813 224 832 c 128,-1,39
 229 851 229 851 229 868 c 0,40,41
 229 878 229 878 219.5 911 c 128,-1,42
 210 944 210 944 196.5 984.5 c 128,-1,43
 183 1025 183 1025 182 1030 c 0,44,45
 88 1317 88 1317 88 1442 c 0,46,47
 88 1473 88 1473 94 1501 c 128,-1,48
 100 1529 100 1529 113 1554.5 c 128,-1,49
 126 1580 126 1580 150 1595 c 128,-1,50
 174 1610 174 1610 207 1610 c 2,51,-1
 244 1610 l 1,52,53
 250 1607 250 1607 264 1601 c 128,-1,54
 278 1595 278 1595 285 1591 c 128,-1,55
 292 1587 292 1587 301 1578.5 c 128,-1,56
 310 1570 310 1570 315 1559 c 0,57,58
 354 1471 354 1471 354 1331 c 0,59,60
 354 1225 354 1225 313 1008 c 1,61,62
 283 873 283 873 283 868 c 0,63,64
 283 861 283 861 288 847 c 128,-1,65
 293 833 293 833 300 817 c 128,-1,66
 307 801 307 801 309 795 c 0,67,68
 444 388 444 388 444 104 c 0,69,70
 444 96 444 96 441 79.5 c 128,-1,71
 438 63 438 63 438 55 c 0,72,73
 438 49 438 49 440 45 c 1,74,75
 407 -19 407 -19 371.5 -48.5 c 128,-1,76
 336 -78 336 -78 272 -78 c 0,77,78
 234 -78 234 -78 205 -49 c 128,-1,79
 176 -20 176 -20 161.5 24 c 128,-1,80
 147 68 147 68 140 109.5 c 128,-1,81
 133 151 133 151 133 186 c 0,34,35
EndSplineSet
EndChar

StartChar: nine
Encoding: 57 57 28
Width: 509
GlyphClass: 2
Flags: W
LayerCount: 2
UndoRedoHistory
Layer: 1
Undoes
EndUndoes
Redoes
EndRedoes
EndUndoRedoHistory
Fore
SplineSet
317 997 m 1,0,-1
 346 1001 l 1,1,2
 356 1182 356 1182 356 1440 c 0,3,4
 356 1498 356 1498 335 1530.5 c 128,-1,5
 314 1563 314 1563 260 1563 c 0,6,7
 173 1563 173 1563 131.5 1508.5 c 128,-1,8
 90 1454 90 1454 90 1366 c 0,9,10
 90 1287 90 1287 120.5 1204.5 c 128,-1,11
 151 1122 151 1122 204 1063 c 128,-1,12
 257 1004 257 1004 317 997 c 1,0,-1
319 -27 m 1,13,14
 338 27 338 27 338 156 c 0,15,16
 338 251 338 251 343 441.5 c 128,-1,17
 348 632 348 632 348 727 c 0,18,19
 348 764 348 764 346 837.5 c 128,-1,20
 344 911 344 911 344 948 c 1,21,-1
 330 944 l 1,22,23
 258 953 258 953 200.5 989.5 c 128,-1,24
 143 1026 143 1026 108 1078.5 c 128,-1,25
 73 1131 73 1131 54.5 1191.5 c 128,-1,26
 36 1252 36 1252 36 1316 c 0,27,28
 36 1435 36 1435 95 1518.5 c 128,-1,29
 154 1602 154 1602 258 1602 c 0,30,31
 290 1602 290 1602 333.5 1586.5 c 128,-1,32
 377 1571 377 1571 391 1550 c 1,33,34
 406 1525 406 1525 406 1223 c 0,35,36
 406 1183 406 1183 404.5 1102 c 128,-1,37
 403 1021 403 1021 403 981 c 0,38,39
 403 966 403 966 396 940 c 128,-1,40
 389 914 389 914 389 899 c 0,41,42
 389 784 389 784 386 554 c 128,-1,43
 383 324 383 324 383 209 c 0,44,45
 383 184 383 184 376 133 c 128,-1,46
 369 82 369 82 369 57 c 0,47,48
 369 49 369 49 370 33.5 c 128,-1,49
 371 18 371 18 371 10 c 0,50,51
 371 -47 371 -47 336 -47 c 1,52,-1
 319 -27 l 1,13,14
EndSplineSet
EndChar

StartChar: colon
Encoding: 58 58 29
Width: 344
GlyphClass: 2
Flags: W
LayerCount: 2
UndoRedoHistory
Layer: 1
Undoes
EndUndoes
Redoes
EndRedoes
EndUndoRedoHistory
Fore
SplineSet
133 1024 m 0,0,1
 133 1044 133 1044 149.5 1061.5 c 128,-1,2
 166 1079 166 1079 186 1079 c 0,3,4
 204 1079 204 1079 220 1061.5 c 128,-1,5
 236 1044 236 1044 236 1026 c 0,6,7
 236 975 236 975 178 975 c 0,8,9
 160 975 160 975 146.5 990.5 c 128,-1,10
 133 1006 133 1006 133 1024 c 0,0,1
113 250 m 0,11,12
 113 270 113 270 129.5 287.5 c 128,-1,13
 146 305 146 305 166 305 c 0,14,15
 184 305 184 305 199.5 287.5 c 128,-1,16
 215 270 215 270 215 252 c 0,17,18
 215 201 215 201 158 201 c 0,19,20
 140 201 140 201 126.5 216.5 c 128,-1,21
 113 232 113 232 113 250 c 0,11,12
EndSplineSet
EndChar

StartChar: semicolon
Encoding: 59 59 30
Width: 391
GlyphClass: 2
Flags: W
LayerCount: 2
UndoRedoHistory
Layer: 1
Undoes
EndUndoes
Redoes
EndRedoes
EndUndoRedoHistory
Fore
SplineSet
94 14 m 1,0,-1
 98 33 l 1,1,2
 104 38 104 38 124 56.5 c 128,-1,3
 144 75 144 75 154 85 c 128,-1,4
 164 95 164 95 178 112.5 c 128,-1,5
 192 130 192 130 198.5 147 c 128,-1,6
 205 164 205 164 205 182 c 1,7,8
 180 197 180 197 162.5 221.5 c 128,-1,9
 145 246 145 246 145 272 c 0,10,11
 145 300 145 300 169.5 318 c 128,-1,12
 194 336 194 336 223 336 c 0,13,14
 253 336 253 336 272 312.5 c 128,-1,15
 291 289 291 289 291 258 c 0,16,17
 291 220 291 220 268 160 c 128,-1,18
 245 100 245 100 205 49.5 c 128,-1,19
 165 -1 165 -1 127 -2 c 1,20,-1
 94 14 l 1,0,-1
180 1024 m 0,21,22
 180 1044 180 1044 196.5 1061.5 c 128,-1,23
 213 1079 213 1079 233 1079 c 0,24,25
 251 1079 251 1079 267 1061.5 c 128,-1,26
 283 1044 283 1044 283 1026 c 0,27,28
 283 975 283 975 225 975 c 0,29,30
 207 975 207 975 193.5 990.5 c 128,-1,31
 180 1006 180 1006 180 1024 c 0,21,22
EndSplineSet
EndChar

StartChar: less
Encoding: 60 60 31
Width: 569
GlyphClass: 2
Flags: W
LayerCount: 2
UndoRedoHistory
Layer: 1
Undoes
EndUndoes
Redoes
EndRedoes
EndUndoRedoHistory
Fore
SplineSet
430 4 m 1,0,1
 411 32 411 32 392 70 c 128,-1,2
 373 108 373 108 348.5 163.5 c 128,-1,3
 324 219 324 219 313 242 c 2,4,-1
 211 455 l 2,5,6
 206 466 206 466 189.5 498.5 c 128,-1,7
 173 531 173 531 166 549 c 0,8,9
 160 567 160 567 122 617.5 c 128,-1,10
 84 668 84 668 84 698 c 0,11,12
 84 723 84 723 132 837 c 128,-1,13
 180 951 180 951 237.5 1080.5 c 128,-1,14
 295 1210 295 1210 307 1247 c 0,15,16
 309 1253 309 1253 318.5 1287 c 128,-1,17
 328 1321 328 1321 336 1346 c 128,-1,18
 344 1371 344 1371 357.5 1395 c 128,-1,19
 371 1419 371 1419 385 1421 c 1,20,-1
 412 1401 l 1,21,22
 402 1335 402 1335 359.5 1231.5 c 128,-1,23
 317 1128 317 1128 272.5 1039 c 128,-1,24
 228 950 228 950 192 853.5 c 128,-1,25
 156 757 156 757 156 700 c 0,26,27
 156 683 156 683 297 395.5 c 128,-1,28
 438 108 438 108 471 53 c 1,29,-1
 489 39 l 1,30,31
 487 28 487 28 478.5 14 c 128,-1,32
 470 0 470 0 461 0 c 0,33,34
 457 0 457 0 448 2 c 128,-1,35
 439 4 439 4 434 4 c 2,36,-1
 430 4 l 1,0,1
EndSplineSet
EndChar

StartChar: equal
Encoding: 61 61 32
Width: 620
GlyphClass: 2
Flags: W
LayerCount: 2
UndoRedoHistory
Layer: 1
Undoes
EndUndoes
Redoes
EndRedoes
EndUndoRedoHistory
Fore
SplineSet
553 604 m 1,0,1
 553 608 553 608 158 608 c 0,2,3
 149 608 149 608 141 619 c 128,-1,4
 133 630 133 630 133 639 c 0,5,6
 133 647 133 647 141 647 c 0,7,8
 143 647 143 647 224.5 646.5 c 128,-1,9
 306 646 306 646 404.5 645.5 c 128,-1,10
 503 645 503 645 545 645 c 0,11,12
 552 645 552 645 558.5 635 c 128,-1,13
 565 625 565 625 565 616 c 0,14,15
 565 604 565 604 553 604 c 1,0,1
569 727 m 0,16,17
 569 721 569 721 354 721 c 2,18,-1
 156 721 l 2,19,20
 139 721 139 721 126 730.5 c 128,-1,21
 113 740 113 740 113 756 c 0,22,23
 113 762 113 762 293 762 c 2,24,-1
 524 762 l 2,25,26
 539 762 539 762 554 751.5 c 128,-1,27
 569 741 569 741 569 727 c 0,16,17
EndSplineSet
EndChar

StartChar: greater
Encoding: 62 62 33
Width: 569
GlyphClass: 2
Flags: W
LayerCount: 2
UndoRedoHistory
Layer: 1
Undoes
EndUndoes
Redoes
EndRedoes
EndUndoRedoHistory
Fore
SplineSet
139 4 m 1,0,1
 132 4 132 4 122 2 c 128,-1,2
 112 0 112 0 109 0 c 0,3,4
 100 0 100 0 91 14 c 128,-1,5
 82 28 82 28 80 39 c 1,6,-1
 98 53 l 1,7,8
 134 118 134 118 274 400.5 c 128,-1,9
 414 683 414 683 414 700 c 0,10,11
 414 757 414 757 378 853.5 c 128,-1,12
 342 950 342 950 297.5 1039 c 128,-1,13
 253 1128 253 1128 210.5 1231.5 c 128,-1,14
 168 1335 168 1335 158 1401 c 1,15,-1
 184 1421 l 1,16,17
 198 1418 198 1418 212 1394 c 128,-1,18
 226 1370 226 1370 233.5 1346 c 128,-1,19
 241 1322 241 1322 250.5 1287.5 c 128,-1,20
 260 1253 260 1253 262 1247 c 0,21,22
 274 1210 274 1210 331.5 1081 c 128,-1,23
 389 952 389 952 437 838 c 128,-1,24
 485 724 485 724 485 698 c 0,25,26
 485 669 485 669 447.5 618 c 128,-1,27
 410 567 410 567 403 549 c 0,28,29
 396 530 396 530 379 497.5 c 128,-1,30
 362 465 362 465 358 455 c 2,31,-1
 182 90 l 2,32,33
 145 13 145 13 139 4 c 1,0,1
EndSplineSet
EndChar

StartChar: question
Encoding: 63 63 34
Width: 464
GlyphClass: 2
Flags: W
LayerCount: 2
UndoRedoHistory
Layer: 1
Undoes
EndUndoes
Redoes
EndRedoes
EndUndoRedoHistory
Fore
SplineSet
168 41 m 0,0,1
 168 61 168 61 184.5 78.5 c 128,-1,2
 201 96 201 96 221 96 c 0,3,4
 239 96 239 96 254.5 78.5 c 128,-1,5
 270 61 270 61 270 43 c 0,6,7
 270 -8 270 -8 213 -8 c 0,8,9
 195 -8 195 -8 181.5 7.5 c 128,-1,10
 168 23 168 23 168 41 c 0,0,1
109 1283 m 0,11,12
 94 1360 94 1360 94 1410 c 0,13,14
 94 1441 94 1441 100 1469 c 128,-1,15
 106 1497 106 1497 119 1522.5 c 128,-1,16
 132 1548 132 1548 156 1563 c 128,-1,17
 180 1578 180 1578 213 1578 c 0,18,19
 300 1578 300 1578 324 1533 c 1,20,21
 344 1490 344 1490 355.5 1425.5 c 128,-1,22
 367 1361 367 1361 367 1305 c 0,23,24
 367 1199 367 1199 346.5 1090 c 128,-1,25
 326 981 326 981 301.5 897 c 128,-1,26
 277 813 277 813 256.5 668.5 c 128,-1,27
 236 524 236 524 236 357 c 0,28,29
 236 322 236 322 238 242 c 1,30,31
 237 244 237 244 234.5 242.5 c 128,-1,32
 232 241 232 241 225 238.5 c 128,-1,33
 218 236 218 236 213 236 c 0,34,35
 195 236 195 236 190 260 c 1,36,37
 190 567 190 567 229 819 c 1,38,39
 238 870 238 870 261.5 968.5 c 128,-1,40
 285 1067 285 1067 299 1148 c 128,-1,41
 313 1229 313 1229 313 1303 c 0,42,43
 313 1342 313 1342 309.5 1386 c 128,-1,44
 306 1430 306 1430 288 1481.5 c 128,-1,45
 270 1533 270 1533 240 1533 c 2,46,-1
 217 1533 l 2,47,48
 145 1533 145 1533 145 1406 c 0,49,50
 145 1378 145 1378 160 1283 c 1,51,52
 113 1264 113 1264 109 1283 c 0,11,12
EndSplineSet
EndChar

StartChar: at
Encoding: 64 64 35
Width: 1036
GlyphClass: 2
Flags: W
LayerCount: 2
UndoRedoHistory
Layer: 1
Undoes
EndUndoes
Redoes
EndRedoes
EndUndoRedoHistory
Fore
SplineSet
491 1409 m 0,0,1
 457 1409 457 1409 432.5 1386.5 c 128,-1,2
 408 1364 408 1364 395.5 1333 c 128,-1,3
 383 1302 383 1302 376 1254.5 c 128,-1,4
 369 1207 369 1207 367.5 1173 c 128,-1,5
 366 1139 366 1139 366 1094 c 2,6,-1
 366 831 l 2,7,8
 366 770 366 770 369.5 727 c 128,-1,9
 373 684 373 684 385.5 632.5 c 128,-1,10
 398 581 398 581 427.5 553.5 c 128,-1,11
 457 526 457 526 502 526 c 0,12,13
 553 526 553 526 600.5 606 c 128,-1,14
 648 686 648 686 648 745 c 2,15,-1
 648 899 l 2,16,17
 648 920 648 920 646.5 942.5 c 128,-1,18
 645 965 645 965 644 982.5 c 128,-1,19
 643 1000 643 1000 639 1026.5 c 128,-1,20
 635 1053 635 1053 633.5 1066.5 c 128,-1,21
 632 1080 632 1080 626.5 1110.5 c 128,-1,22
 621 1141 621 1141 619 1149.5 c 128,-1,23
 617 1158 617 1158 610.5 1193 c 128,-1,24
 604 1228 604 1228 603 1233 c 0,25,26
 601 1244 601 1244 595.5 1274.5 c 128,-1,27
 590 1305 590 1305 587.5 1317.5 c 128,-1,28
 585 1330 585 1330 577 1352 c 128,-1,29
 569 1374 569 1374 559 1383.5 c 128,-1,30
 549 1393 549 1393 531.5 1401 c 128,-1,31
 514 1409 514 1409 491 1409 c 0,0,1
187 279 m 1,32,33
 186 293 186 293 182 306 c 128,-1,34
 178 319 178 319 170.5 334.5 c 128,-1,35
 163 350 163 350 160 360 c 0,36,37
 138 422 138 422 115 670.5 c 128,-1,38
 92 919 92 919 92 1024 c 0,39,40
 92 1310 92 1310 127 1479 c 0,41,42
 143 1556 143 1556 158 1606 c 128,-1,43
 173 1656 173 1656 199 1703 c 128,-1,44
 225 1750 225 1750 261 1776 c 128,-1,45
 297 1802 297 1802 351.5 1817.5 c 128,-1,46
 406 1833 406 1833 480 1833 c 0,47,48
 549 1833 549 1833 606.5 1811 c 128,-1,49
 664 1789 664 1789 703 1758.5 c 128,-1,50
 742 1728 742 1728 775 1671.5 c 128,-1,51
 808 1615 808 1615 826.5 1570 c 128,-1,52
 845 1525 845 1525 863 1449.5 c 128,-1,53
 881 1374 881 1374 888.5 1329.5 c 128,-1,54
 896 1285 896 1285 908 1207 c 0,55,56
 911 1185 911 1185 913 1174 c 0,57,58
 944 975 944 975 944 903 c 0,59,60
 944 565 944 565 792 565 c 0,61,62
 763 565 763 565 733 588.5 c 128,-1,63
 703 612 703 612 689 616 c 1,64,65
 663 553 663 553 606 510 c 128,-1,66
 549 467 549 467 487 467 c 0,67,68
 448 467 448 467 416 485.5 c 128,-1,69
 384 504 384 504 363.5 532.5 c 128,-1,70
 343 561 343 561 327.5 604 c 128,-1,71
 312 647 312 647 304 688 c 128,-1,72
 296 729 296 729 291 781 c 128,-1,73
 286 833 286 833 285 871 c 128,-1,74
 284 909 284 909 284 954 c 2,75,-1
 284 1006 l 2,76,77
 284 1056 284 1056 285 1092 c 128,-1,78
 286 1128 286 1128 290.5 1179 c 128,-1,79
 295 1230 295 1230 303 1266.5 c 128,-1,80
 311 1303 311 1303 326.5 1343 c 128,-1,81
 342 1383 342 1383 363.5 1407.5 c 128,-1,82
 385 1432 385 1432 417.5 1448 c 128,-1,83
 450 1464 450 1464 491 1464 c 0,84,85
 574 1464 574 1464 625 1405 c 0,86,87
 636 1393 636 1393 649 1326 c 128,-1,88
 662 1259 662 1259 675 1160 c 128,-1,89
 688 1061 688 1061 698 973.5 c 128,-1,90
 708 886 708 886 717.5 793.5 c 128,-1,91
 727 701 727 701 729 686 c 1,92,-1
 752 676 l 1,93,94
 778 625 778 625 795 625 c 0,95,96
 874 625 874 625 874 915 c 0,97,98
 874 1248 874 1248 760 1550 c 1,99,100
 714 1669 714 1669 649.5 1721.5 c 128,-1,101
 585 1774 585 1774 470 1774 c 0,102,103
 419 1774 419 1774 378.5 1762.5 c 128,-1,104
 338 1751 338 1751 310 1732.5 c 128,-1,105
 282 1714 282 1714 261 1683 c 128,-1,106
 240 1652 240 1652 228 1622 c 128,-1,107
 216 1592 216 1592 207.5 1547.5 c 128,-1,108
 199 1503 199 1503 195.5 1467 c 128,-1,109
 192 1431 192 1431 189 1380 c 0,110,111
 189 1378 189 1378 187 1350 c 128,-1,112
 185 1322 185 1322 184.5 1314 c 128,-1,113
 184 1306 184 1306 181.5 1282.5 c 128,-1,114
 179 1259 179 1259 176.5 1247 c 128,-1,115
 174 1235 174 1235 170 1217.5 c 128,-1,116
 166 1200 166 1200 160 1186 c 1,117,118
 164 1132 164 1132 164 1106 c 0,119,120
 164 1060 164 1060 156 1040 c 1,121,122
 160 1032 160 1032 160 1014 c 0,123,124
 160 973 160 973 163 922.5 c 128,-1,125
 166 872 166 872 168.5 845.5 c 128,-1,126
 171 819 171 819 178.5 750.5 c 128,-1,127
 186 682 186 682 187 668 c 0,128,129
 192 623 192 623 198 537.5 c 128,-1,130
 204 452 204 452 209.5 411.5 c 128,-1,131
 215 371 215 371 239 306.5 c 128,-1,132
 263 242 263 242 307 180 c 0,133,134
 373 86 373 86 439 86 c 0,135,136
 551 86 551 86 635.5 123.5 c 128,-1,137
 720 161 720 161 803 248 c 1,138,139
 840 285 840 285 848 287 c 1,140,-1
 866 268 l 1,141,142
 851 217 851 217 800.5 172 c 128,-1,143
 750 127 750 127 686 99 c 128,-1,144
 622 71 622 71 558 55 c 128,-1,145
 494 39 494 39 446 39 c 0,146,147
 297 39 297 39 187 279 c 1,32,33
EndSplineSet
EndChar

StartChar: A
Encoding: 65 65 36
Width: 696
GlyphClass: 2
Flags: W
LayerCount: 2
UndoRedoHistory
Layer: 1
Undoes
EndUndoes
Redoes
EndRedoes
EndUndoRedoHistory
Fore
SplineSet
231 426 m 1,0,1
 317 397 317 397 438 397 c 0,2,3
 441 397 441 397 450 396.5 c 128,-1,4
 459 396 459 396 464 396 c 0,5,6
 504 396 504 396 504 416 c 0,7,8
 504 555 504 555 488.5 781.5 c 128,-1,9
 473 1008 473 1008 459.5 1151 c 128,-1,10
 446 1294 446 1294 435 1389 c 0,11,12
 434 1395 434 1395 430.5 1411 c 128,-1,13
 427 1427 427 1427 427 1436 c 1,14,15
 410 1387 410 1387 383 1253 c 0,16,17
 382 1246 382 1246 362.5 1122 c 128,-1,18
 343 998 343 998 321 874.5 c 128,-1,19
 299 751 299 751 279 664 c 0,20,21
 274 640 274 640 260.5 593.5 c 128,-1,22
 247 547 247 547 239 509.5 c 128,-1,23
 231 472 231 472 231 438 c 2,24,-1
 231 426 l 1,0,1
506 35 m 2,25,-1
 506 303 l 2,26,27
 506 329 506 329 394.5 349 c 128,-1,28
 283 369 283 369 230 369 c 0,29,30
 223 369 223 369 203.5 292 c 128,-1,31
 184 215 184 215 163 120 c 128,-1,32
 142 25 142 25 141 20 c 0,33,34
 137 5 137 5 119 5 c 0,35,36
 104 5 104 5 90.5 15 c 128,-1,37
 77 25 77 25 77 39 c 0,38,39
 77 40 77 40 77.5 42 c 128,-1,40
 78 44 78 44 78 45 c 0,41,42
 82 62 82 62 101.5 147 c 128,-1,43
 121 232 121 232 144 336 c 128,-1,44
 167 440 167 440 174 471 c 0,45,46
 205 608 205 608 251.5 877 c 128,-1,47
 298 1146 298 1146 326 1274 c 0,48,49
 331 1297 331 1297 340 1333 c 128,-1,50
 349 1369 349 1369 363 1418.5 c 128,-1,51
 377 1468 377 1468 393 1502 c 128,-1,52
 409 1536 409 1536 422 1536 c 0,53,54
 454 1536 454 1536 469 1516 c 1,55,56
 482 1496 482 1496 504.5 1285.5 c 128,-1,57
 527 1075 527 1075 539 940 c 2,58,-1
 567 600 l 1,59,60
 567 511 567 511 578.5 333 c 128,-1,61
 590 155 590 155 590 66 c 2,62,-1
 590 57 l 2,63,64
 590 42 590 42 589 33.5 c 128,-1,65
 588 25 588 25 584 16.5 c 128,-1,66
 580 8 580 8 570.5 4 c 128,-1,67
 561 0 561 0 545 0 c 0,68,69
 530 0 530 0 518 10 c 128,-1,70
 506 20 506 20 506 35 c 2,25,-1
EndSplineSet
EndChar

StartChar: B
Encoding: 66 66 37
Width: 616
GlyphClass: 2
Flags: W
LayerCount: 2
UndoRedoHistory
Layer: 1
Undoes
EndUndoes
Redoes
EndRedoes
EndUndoRedoHistory
Fore
SplineSet
180 887 m 1,0,-1
 186 885 l 1,1,2
 232 885 232 885 273 925.5 c 128,-1,3
 314 966 314 966 340 1026 c 128,-1,4
 366 1086 366 1086 380.5 1150.5 c 128,-1,5
 395 1215 395 1215 395 1268 c 0,6,7
 395 1338 395 1338 344 1402 c 128,-1,8
 293 1466 293 1466 225 1466 c 0,9,10
 172 1466 172 1466 172 1378 c 0,11,12
 172 1296 172 1296 176 1132.5 c 128,-1,13
 180 969 180 969 180 887 c 1,0,-1
190 70 m 1,14,15
 192 70 192 70 196.5 69 c 128,-1,16
 201 68 201 68 203 68 c 0,17,18
 308 68 308 68 382.5 159 c 128,-1,19
 457 250 457 250 457 371 c 0,20,21
 457 738 457 738 281 811 c 1,22,23
 261 810 261 810 227 800 c 128,-1,24
 193 790 193 790 180 788 c 1,25,26
 190 488 190 488 190 70 c 1,14,15
113 16 m 0,27,28
 113 102 113 102 118 275.5 c 128,-1,29
 123 449 123 449 123 535 c 0,30,31
 123 678 123 678 116 962 c 128,-1,32
 109 1246 109 1246 109 1389 c 0,33,34
 109 1536 109 1536 162 1536 c 0,35,36
 302 1536 302 1536 375.5 1446 c 128,-1,37
 449 1356 449 1356 449 1214 c 0,38,39
 449 1052 449 1052 317 874 c 1,40,41
 426 766 426 766 470 668.5 c 128,-1,42
 514 571 514 571 514 433 c 0,43,44
 514 354 514 354 509 302.5 c 128,-1,45
 504 251 504 251 490 204.5 c 128,-1,46
 476 158 476 158 449 125.5 c 128,-1,47
 422 93 422 93 380 64.5 c 128,-1,48
 338 36 338 36 274 8 c 1,49,50
 260 7 260 7 234 -2.5 c 128,-1,51
 208 -12 208 -12 193 -12 c 2,52,-1
 189 -12 l 2,53,54
 113 -12 113 -12 113 16 c 0,27,28
EndSplineSet
EndChar

StartChar: C
Encoding: 67 67 38
Width: 696
GlyphClass: 2
Flags: W
LayerCount: 2
UndoRedoHistory
Layer: 1
Undoes
EndUndoes
Redoes
EndRedoes
EndUndoRedoHistory
Fore
SplineSet
96 877 m 0,0,1
 96 914 96 914 95 985.5 c 128,-1,2
 94 1057 94 1057 94 1090 c 0,3,4
 94 1153 94 1153 96.5 1200 c 128,-1,5
 99 1247 99 1247 106.5 1299.5 c 128,-1,6
 114 1352 114 1352 127.5 1389 c 128,-1,7
 141 1426 141 1426 164.5 1461 c 128,-1,8
 188 1496 188 1496 220.5 1517.5 c 128,-1,9
 253 1539 253 1539 300 1552 c 128,-1,10
 347 1565 347 1565 406 1565 c 0,11,12
 441 1565 441 1565 482.5 1543 c 128,-1,13
 524 1521 524 1521 524 1489 c 0,14,15
 524 1466 524 1466 492 1466 c 0,16,17
 480 1466 480 1466 444.5 1480.5 c 128,-1,18
 409 1495 409 1495 389 1495 c 0,19,20
 328 1495 328 1495 283 1471 c 128,-1,21
 238 1447 238 1447 212.5 1410 c 128,-1,22
 187 1373 187 1373 172 1315.5 c 128,-1,23
 157 1258 157 1258 152.5 1204.5 c 128,-1,24
 148 1151 148 1151 148 1081 c 0,25,26
 148 1041 148 1041 150 966.5 c 128,-1,27
 152 892 152 892 152 860 c 0,28,29
 152 739 152 739 179 456 c 128,-1,30
 206 173 206 173 236 127 c 0,31,32
 262 87 262 87 310 67 c 128,-1,33
 358 47 358 47 410 47 c 0,34,35
 503 47 503 47 553 106 c 1,36,37
 570 132 570 132 591 132 c 0,38,39
 610 132 610 132 610 102 c 0,40,41
 610 65 610 65 586.5 37.5 c 128,-1,42
 563 10 563 10 526.5 -4.5 c 128,-1,43
 490 -19 490 -19 453.5 -26 c 128,-1,44
 417 -33 417 -33 383 -33 c 0,45,46
 324 -33 324 -33 261 13 c 128,-1,47
 198 59 198 59 172 115 c 128,-1,48
 146 171 146 171 121 463 c 128,-1,49
 96 755 96 755 96 877 c 0,0,1
EndSplineSet
EndChar

StartChar: D
Encoding: 68 68 39
Width: 702
GlyphClass: 2
Flags: W
LayerCount: 2
UndoRedoHistory
Layer: 1
Undoes
EndUndoes
Redoes
EndRedoes
EndUndoRedoHistory
Fore
SplineSet
211 100 m 1,0,-1
 221 100 l 1,1,2
 298 141 298 141 357 217.5 c 128,-1,3
 416 294 416 294 448.5 377.5 c 128,-1,4
 481 461 481 461 501.5 560 c 128,-1,5
 522 659 522 659 528.5 732.5 c 128,-1,6
 535 806 535 806 535 874 c 0,7,8
 535 1473 535 1473 205 1473 c 0,9,10
 162 1473 162 1473 162 1450 c 0,11,12
 162 1392 162 1392 171 1279 c 128,-1,13
 180 1166 180 1166 180 1110 c 0,14,15
 180 978 180 978 195.5 718.5 c 128,-1,16
 211 459 211 459 211 330 c 2,17,-1
 211 100 l 1,0,-1
115 37 m 0,18,19
 115 51 115 51 131.5 77.5 c 128,-1,20
 148 104 148 104 147 119 c 2,21,-1
 141 299 l 1,22,-1
 127 858 l 2,23,24
 126 869 126 869 122.5 1105 c 128,-1,25
 119 1341 119 1341 111 1391 c 0,26,27
 109 1405 109 1405 95.5 1441 c 128,-1,28
 82 1477 82 1477 82 1497 c 0,29,30
 82 1546 82 1546 236 1546 c 2,31,-1
 246 1546 l 2,32,33
 301 1546 301 1546 347.5 1526 c 128,-1,34
 394 1506 394 1506 427.5 1474.5 c 128,-1,35
 461 1443 461 1443 488.5 1395.5 c 128,-1,36
 516 1348 516 1348 533 1300.5 c 128,-1,37
 550 1253 550 1253 563 1194 c 128,-1,38
 576 1135 576 1135 582 1088.5 c 128,-1,39
 588 1042 588 1042 592 987 c 128,-1,40
 596 932 596 932 596.5 901.5 c 128,-1,41
 597 871 597 871 597 837 c 0,42,43
 597 713 597 713 564 565 c 128,-1,44
 531 417 531 417 469 284 c 128,-1,45
 407 151 407 151 332 90 c 0,46,47
 214 -4 214 -4 190 -4 c 128,-1,48
 166 -4 166 -4 140.5 7 c 128,-1,49
 115 18 115 18 115 37 c 0,18,19
EndSplineSet
EndChar

StartChar: E
Encoding: 69 69 40
Width: 497
GlyphClass: 2
Flags: W
LayerCount: 2
UndoRedoHistory
Layer: 1
Undoes
EndUndoes
Redoes
EndRedoes
EndUndoRedoHistory
Fore
SplineSet
124 33 m 0,0,1
 124 46 124 46 123.5 71 c 128,-1,2
 123 96 123 96 123 109 c 2,3,-1
 123 113 l 1,4,-1
 125 412 l 1,5,-1
 123 1257 l 2,6,7
 123 1341 123 1341 119 1485 c 0,8,9
 119 1509 119 1509 128.5 1525.5 c 128,-1,10
 138 1542 138 1542 156 1542 c 2,11,-1
 283 1542 l 2,12,13
 298 1542 298 1542 306 1541.5 c 128,-1,14
 314 1541 314 1541 325 1537.5 c 128,-1,15
 336 1534 336 1534 341 1525.5 c 128,-1,16
 346 1517 346 1517 346 1503 c 0,17,18
 346 1485 346 1485 332 1475.5 c 128,-1,19
 318 1466 318 1466 305.5 1465 c 128,-1,20
 293 1464 293 1464 272 1464 c 0,21,22
 263 1464 263 1464 239 1466 c 128,-1,23
 215 1468 215 1468 206 1468 c 0,24,25
 192 1468 192 1468 187 1464 c 128,-1,26
 182 1460 182 1460 182 1444 c 0,27,28
 182 1386 182 1386 182.5 1270 c 128,-1,29
 183 1154 183 1154 183 1096 c 2,30,-1
 183 840 l 2,31,32
 183 836 183 836 187 836 c 0,33,34
 190 836 190 836 191 836 c 0,35,36
 269 840 269 840 302 840 c 0,37,38
 336 840 336 840 336 810 c 0,39,40
 336 791 336 791 329 783.5 c 128,-1,41
 322 776 322 776 305 776 c 2,42,-1
 188 776 l 2,43,44
 180 776 180 776 180 766 c 0,45,46
 180 672 180 672 184 461.5 c 128,-1,47
 188 251 188 251 188 137 c 2,48,-1
 188 61 l 1,49,50
 208 61 208 61 275 61.5 c 128,-1,51
 342 62 342 62 362 62 c 2,52,-1
 380 62 l 2,53,54
 418 62 418 62 418 35 c 0,55,56
 418 3 418 3 398.5 -4.5 c 128,-1,57
 379 -12 379 -12 299 -12 c 2,58,-1
 236 -12 l 1,59,-1
 212 -12 l 2,60,61
 168 -12 168 -12 146 -4 c 128,-1,62
 124 4 124 4 124 33 c 0,0,1
EndSplineSet
EndChar

StartChar: F
Encoding: 70 70 41
Width: 438
GlyphClass: 2
Flags: W
LayerCount: 2
UndoRedoHistory
Layer: 1
Undoes
EndUndoes
Redoes
EndRedoes
EndUndoRedoHistory
Fore
SplineSet
180 -4 m 0,0,1
 147 -4 147 -4 147 49 c 2,2,-1
 147 201 l 2,3,4
 147 213 147 213 140.5 325.5 c 128,-1,5
 134 438 134 438 127.5 583 c 128,-1,6
 121 728 121 728 121 819 c 0,7,8
 121 861 121 861 113.5 1031 c 128,-1,9
 106 1201 106 1201 99 1354.5 c 128,-1,10
 92 1508 92 1508 92 1512 c 2,11,-1
 92 1525 l 2,12,13
 92 1540 92 1540 111.5 1544.5 c 128,-1,14
 131 1549 131 1549 183 1549 c 0,15,16
 195 1549 195 1549 229 1548.5 c 128,-1,17
 263 1548 263 1548 285 1548 c 0,18,19
 302 1548 302 1548 310.5 1533.5 c 128,-1,20
 319 1519 319 1519 319 1501 c 0,21,22
 319 1481 319 1481 281 1481 c 0,23,24
 276 1481 276 1481 233.5 1482 c 128,-1,25
 191 1483 191 1483 181 1483 c 0,26,27
 165 1483 165 1483 160.5 1477 c 128,-1,28
 156 1471 156 1471 156 1443 c 0,29,30
 156 1421 156 1421 171 1144.5 c 128,-1,31
 186 868 186 868 186 844 c 1,32,33
 210 844 210 844 255 856 c 128,-1,34
 300 868 300 868 324 868 c 0,35,36
 337 868 337 868 346.5 854 c 128,-1,37
 356 840 356 840 356 827 c 0,38,39
 356 802 356 802 313.5 796 c 128,-1,40
 271 790 271 790 228.5 786 c 128,-1,41
 186 782 186 782 186 762 c 0,42,43
 186 646 186 646 205.5 416.5 c 128,-1,44
 225 187 225 187 225 72 c 1,45,-1
 219 61 l 1,46,47
 225 46 225 46 225 34 c 0,48,49
 225 -4 225 -4 180 -4 c 0,0,1
EndSplineSet
EndChar

StartChar: G
Encoding: 71 71 42
Width: 774
GlyphClass: 2
Flags: W
LayerCount: 2
UndoRedoHistory
Layer: 1
Undoes
EndUndoes
Redoes
EndRedoes
EndUndoRedoHistory
Fore
SplineSet
94 877 m 0,0,1
 94 924 94 924 94.5 960 c 128,-1,2
 95 996 95 996 98.5 1054 c 128,-1,3
 102 1112 102 1112 108 1156.5 c 128,-1,4
 114 1201 114 1201 125.5 1257.5 c 128,-1,5
 137 1314 137 1314 153.5 1355.5 c 128,-1,6
 170 1397 170 1397 195 1440 c 128,-1,7
 220 1483 220 1483 251 1510 c 128,-1,8
 282 1537 282 1537 325.5 1554 c 128,-1,9
 369 1571 369 1571 420 1571 c 0,10,11
 481 1571 481 1571 481 1536 c 0,12,13
 481 1511 481 1511 451 1511 c 0,14,15
 441 1511 441 1511 422 1516.5 c 128,-1,16
 403 1522 403 1522 393 1522 c 0,17,18
 358 1522 358 1522 328 1506.5 c 128,-1,19
 298 1491 298 1491 276.5 1466 c 128,-1,20
 255 1441 255 1441 237.5 1402 c 128,-1,21
 220 1363 220 1363 209 1325 c 128,-1,22
 198 1287 198 1287 189.5 1235 c 128,-1,23
 181 1183 181 1183 176.5 1142.5 c 128,-1,24
 172 1102 172 1102 169.5 1048 c 128,-1,25
 167 994 167 994 166 962 c 128,-1,26
 165 930 165 930 164.5 885 c 128,-1,27
 164 840 164 840 164 827 c 0,28,29
 163 794 163 794 163 715 c 0,30,31
 163 622 163 622 169 535.5 c 128,-1,32
 175 449 175 449 192.5 352.5 c 128,-1,33
 210 256 210 256 238 186.5 c 128,-1,34
 266 117 266 117 314.5 71 c 128,-1,35
 363 25 363 25 426 25 c 0,36,37
 534 25 534 25 600 127 c 1,38,39
 600 150 600 150 598 186 c 128,-1,40
 596 222 596 222 591 272 c 128,-1,41
 586 322 586 322 574.5 356.5 c 128,-1,42
 563 391 563 391 547 391 c 0,43,44
 534 391 534 391 507 387 c 128,-1,45
 480 383 480 383 465 383 c 0,46,47
 418 383 418 383 418 418 c 0,48,49
 418 437 418 437 478.5 450 c 128,-1,50
 539 463 539 463 571 463 c 0,51,52
 605 463 605 463 620 438 c 128,-1,53
 635 413 635 413 635 377 c 0,54,55
 635 316 635 316 655.5 194.5 c 128,-1,56
 676 73 676 73 676 12 c 0,57,58
 676 -20 676 -20 649 -20 c 0,59,60
 600 -20 600 -20 600 25 c 0,61,62
 600 26 600 26 601 30 c 128,-1,63
 602 34 602 34 602 35 c 1,64,65
 484 -33 484 -33 396 -33 c 0,66,67
 240 -33 240 -33 167 188 c 128,-1,68
 94 409 94 409 94 877 c 0,0,1
EndSplineSet
EndChar

StartChar: H
Encoding: 72 72 43
Width: 602
GlyphClass: 2
Flags: W
LayerCount: 2
UndoRedoHistory
Layer: 1
Undoes
EndUndoes
Redoes
EndRedoes
EndUndoRedoHistory
Fore
SplineSet
455 -20 m 0,0,1
 437 -20 437 -20 431.5 -12 c 128,-1,2
 426 -4 426 -4 426 12 c 0,3,4
 426 20 426 20 427 35.5 c 128,-1,5
 428 51 428 51 428 59 c 0,6,7
 428 383 428 383 408 771 c 1,8,-1
 395 771 l 2,9,10
 382 771 382 771 356 770.5 c 128,-1,11
 330 770 330 770 317 770 c 0,12,13
 201 770 201 770 172 763 c 1,14,15
 172 644 172 644 189.5 393 c 128,-1,16
 207 142 207 142 207 23 c 0,17,18
 207 -8 207 -8 186 -8 c 0,19,20
 154 -8 154 -8 154 20 c 0,21,22
 154 62 154 62 145 294.5 c 128,-1,23
 136 527 136 527 131 598 c 0,24,25
 94 1098 94 1098 94 1532 c 0,26,27
 94 1553 94 1553 120 1553 c 0,28,29
 131 1553 131 1553 138.5 1546 c 128,-1,30
 146 1539 146 1539 145 1526 c 1,31,-1
 145 1374 l 2,32,33
 145 1304 145 1304 153.5 1166 c 128,-1,34
 162 1028 162 1028 162 958 c 2,35,-1
 162 858 l 2,36,37
 162 805 162 805 173 805 c 0,38,39
 213 805 213 805 290.5 813 c 128,-1,40
 368 821 368 821 408 821 c 1,41,-1
 410 825 l 1,42,43
 410 940 410 940 400.5 1172 c 128,-1,44
 391 1404 391 1404 391 1520 c 0,45,46
 391 1545 391 1545 418 1545 c 0,47,48
 432 1545 432 1545 442.5 1537.5 c 128,-1,49
 453 1530 453 1530 453 1518 c 0,50,51
 453 1153 453 1153 468 637.5 c 128,-1,52
 483 122 483 122 483 49 c 2,53,-1
 483 20 l 2,54,55
 483 6 483 6 476 -7 c 128,-1,56
 469 -20 469 -20 455 -20 c 0,0,1
EndSplineSet
EndChar

StartChar: I
Encoding: 73 73 44
Width: 477
GlyphClass: 2
Flags: W
LayerCount: 2
UndoRedoHistory
Layer: 1
Undoes
EndUndoes
Redoes
EndRedoes
EndUndoRedoHistory
Fore
SplineSet
202 70 m 1,0,1
 202 281 202 281 188 662.5 c 128,-1,2
 174 1044 174 1044 172 1114 c 0,3,4
 172 1131 172 1131 173 1218 c 128,-1,5
 174 1305 174 1305 174 1354 c 0,6,7
 174 1464 174 1464 168 1484 c 1,8,-1
 98 1484 l 2,9,10
 76 1484 76 1484 76 1513 c 0,11,12
 76 1535 76 1535 93 1541.5 c 128,-1,13
 110 1548 110 1548 169 1548 c 0,14,15
 182 1548 182 1548 227 1547.5 c 128,-1,16
 272 1547 272 1547 305 1547 c 0,17,18
 320 1547 320 1547 331 1539.5 c 128,-1,19
 342 1532 342 1532 342 1518 c 0,20,21
 342 1506 342 1506 335.5 1495.5 c 128,-1,22
 329 1485 329 1485 317 1485 c 0,23,24
 308 1485 308 1485 291 1486 c 128,-1,25
 274 1487 274 1487 268 1487 c 0,26,27
 253 1487 253 1487 246 1487 c 128,-1,28
 239 1487 239 1487 231.5 1485.5 c 128,-1,29
 224 1484 224 1484 221.5 1481.5 c 128,-1,30
 219 1479 219 1479 219 1474 c 0,31,32
 219 1279 219 1279 244.5 830 c 128,-1,33
 270 381 270 381 270 184 c 0,34,35
 270 166 270 166 269 127 c 128,-1,36
 268 88 268 88 268 71 c 1,37,-1
 342 71 l 2,38,39
 388 71 388 71 388 42 c 0,40,41
 388 30 388 30 379 19 c 128,-1,42
 370 8 370 8 360 8 c 0,43,44
 319 8 319 8 247.5 9 c 128,-1,45
 176 10 176 10 124 10 c 0,46,47
 108 10 108 10 98 20.5 c 128,-1,48
 88 31 88 31 88 44 c 0,49,50
 88 70 88 70 122 70 c 2,51,-1
 202 70 l 1,0,1
EndSplineSet
EndChar

StartChar: J
Encoding: 74 74 45
Width: 468
GlyphClass: 2
Flags: W
LayerCount: 2
UndoRedoHistory
Layer: 1
Undoes
EndUndoes
Redoes
EndRedoes
EndUndoRedoHistory
Fore
SplineSet
102 -160 m 1,0,1
 103 -148 103 -148 117 -135.5 c 128,-1,2
 131 -123 131 -123 150.5 -110.5 c 128,-1,3
 170 -98 170 -98 176 -92 c 0,4,5
 266 -2 266 -2 266 221 c 0,6,7
 266 327 266 327 256 524 c 128,-1,8
 246 721 246 721 244 801 c 0,9,10
 242 878 242 878 232.5 1118.5 c 128,-1,11
 223 1359 223 1359 223 1489 c 1,12,13
 205 1489 205 1489 161.5 1487 c 128,-1,14
 118 1485 118 1485 100 1485 c 0,15,16
 88 1485 88 1485 80 1494.5 c 128,-1,17
 72 1504 72 1504 72 1516 c 0,18,19
 72 1540 72 1540 90 1547 c 128,-1,20
 108 1554 108 1554 167 1554 c 0,21,22
 183 1554 183 1554 244.5 1553 c 128,-1,23
 306 1552 306 1552 354 1552 c 0,24,25
 368 1552 368 1552 377.5 1542.5 c 128,-1,26
 387 1533 387 1533 387 1520 c 0,27,28
 387 1500 387 1500 375 1494.5 c 128,-1,29
 363 1489 363 1489 331 1489 c 2,30,-1
 285 1489 l 1,31,32
 285 1250 285 1250 307.5 797.5 c 128,-1,33
 330 345 330 345 330 305 c 0,34,35
 330 225 330 225 327.5 174.5 c 128,-1,36
 325 124 325 124 314.5 64 c 128,-1,37
 304 4 304 4 284.5 -37.5 c 128,-1,38
 265 -79 265 -79 230.5 -121.5 c 128,-1,39
 196 -164 196 -164 145 -199 c 1,40,41
 102 -199 102 -199 102 -160 c 1,0,1
EndSplineSet
EndChar

StartChar: K
Encoding: 75 75 46
Width: 690
GlyphClass: 2
Flags: W
LayerCount: 2
UndoRedoHistory
Layer: 1
Undoes
EndUndoes
Redoes
EndRedoes
EndUndoRedoHistory
Fore
SplineSet
279 884 m 1,0,-1
 265 919 l 1,1,2
 261 912 261 912 242 879.5 c 128,-1,3
 223 847 223 847 200.5 810.5 c 128,-1,4
 178 774 178 774 172 763 c 1,5,-1
 172 73 l 1,6,-1
 172 34 l 2,7,8
 172 2 172 2 166 -12 c 128,-1,9
 160 -26 160 -26 139 -26 c 0,10,11
 117 -26 117 -26 111 -12 c 128,-1,12
 105 2 105 2 105 38 c 2,13,-1
 105 657 l 2,14,15
 105 779 105 779 109.5 1050 c 128,-1,16
 114 1321 114 1321 114 1443 c 0,17,18
 114 1491 114 1491 119 1515.5 c 128,-1,19
 124 1540 124 1540 141 1540 c 0,20,21
 171 1540 171 1540 178 1525 c 128,-1,22
 185 1510 185 1510 185 1453 c 0,23,24
 185 1351 185 1351 181.5 1111.5 c 128,-1,25
 178 872 178 872 178 864 c 1,26,-1
 180 864 l 1,27,28
 221 951 221 951 289.5 1121.5 c 128,-1,29
 358 1292 358 1292 367 1313 c 0,30,31
 478 1597 478 1597 512 1597 c 0,32,33
 526 1597 526 1597 536.5 1589 c 128,-1,34
 547 1581 547 1581 547 1567 c 1,35,36
 544 1545 544 1545 535.5 1525.5 c 128,-1,37
 527 1506 527 1506 513.5 1484 c 128,-1,38
 500 1462 500 1462 494 1448 c 0,39,40
 471 1398 471 1398 390.5 1203 c 128,-1,41
 310 1008 310 1008 303 993 c 0,42,43
 298 980 298 980 305 969 c 1,44,45
 349 857 349 857 400 701 c 128,-1,46
 451 545 451 545 480 444 c 128,-1,47
 509 343 509 343 554 183.5 c 128,-1,48
 599 24 599 24 602 12 c 0,49,50
 605 4 605 4 605 -2 c 0,51,52
 605 -16 605 -16 594 -24 c 128,-1,53
 583 -32 583 -32 569 -32 c 0,54,55
 549 -32 549 -32 545 -19 c 0,56,57
 537 8 537 8 423 403 c 128,-1,58
 309 798 309 798 279 884 c 1,0,-1
EndSplineSet
EndChar

StartChar: L
Encoding: 76 76 47
Width: 475
GlyphClass: 2
Flags: W
LayerCount: 2
UndoRedoHistory
Layer: 1
Undoes
EndUndoes
Redoes
EndRedoes
EndUndoRedoHistory
Fore
SplineSet
138 31 m 0,0,1
 138 37 138 37 138.5 63.5 c 128,-1,2
 139 90 139 90 139 113 c 0,3,4
 139 209 139 209 129 402.5 c 128,-1,5
 119 596 119 596 119 694 c 0,6,7
 119 836 119 836 108.5 1122 c 128,-1,8
 98 1408 98 1408 98 1550 c 0,9,10
 98 1561 98 1561 107 1567.5 c 128,-1,11
 116 1574 116 1574 128 1574 c 0,12,13
 164 1574 164 1574 164 1545 c 0,14,15
 164 1163 164 1163 172 977 c 1,16,-1
 182 610 l 1,17,18
 182 523 182 523 192.5 329.5 c 128,-1,19
 203 136 203 136 205 75 c 0,20,21
 205 70 205 70 210.5 69 c 128,-1,22
 216 68 216 68 239 68 c 2,23,-1
 365 68 l 2,24,25
 393 68 393 68 393 31 c 0,26,27
 393 16 393 16 386.5 3.5 c 128,-1,28
 380 -9 380 -9 368 -9 c 0,29,30
 365 -9 365 -9 354.5 -10 c 128,-1,31
 344 -11 344 -11 337 -11 c 0,32,33
 273 -12 273 -12 172 -12 c 0,34,35
 157 -12 157 -12 147.5 0.5 c 128,-1,36
 138 13 138 13 138 31 c 0,0,1
EndSplineSet
EndChar

StartChar: M
Encoding: 77 77 48
Width: 856
GlyphClass: 2
Flags: W
LayerCount: 2
UndoRedoHistory
Layer: 1
Undoes
EndUndoes
Redoes
EndRedoes
EndUndoRedoHistory
Fore
SplineSet
668 10 m 2,0,-1
 668 197 l 2,1,2
 668 310 668 310 660.5 534 c 128,-1,3
 653 758 653 758 653 870 c 0,4,5
 653 908 653 908 655 985 c 128,-1,6
 657 1062 657 1062 657 1100 c 0,7,8
 657 1135 657 1135 653.5 1198 c 128,-1,9
 650 1261 650 1261 649 1282 c 1,10,11
 647 1280 647 1280 645 1268 c 0,12,13
 619 1100 619 1100 571 842 c 128,-1,14
 523 584 523 584 502 483 c 0,15,16
 475 355 475 355 465 296 c 0,17,18
 461 270 461 270 447.5 254 c 128,-1,19
 434 238 434 238 418 238 c 0,20,21
 403 238 403 238 391 254.5 c 128,-1,22
 379 271 379 271 375 302 c 0,23,24
 364 384 364 384 274 842 c 128,-1,25
 184 1300 184 1300 172 1317 c 1,26,27
 164 1132 164 1132 164 903 c 0,28,29
 164 794 164 794 167 577 c 128,-1,30
 170 360 170 360 170 252 c 0,31,32
 170 219 170 219 175 154.5 c 128,-1,33
 180 90 180 90 180 57 c 0,34,35
 180 20 180 20 164 4 c 1,36,37
 106 4 106 4 106 111 c 2,38,-1
 106 453 l 2,39,40
 106 521 106 521 107.5 659.5 c 128,-1,41
 109 798 109 798 109 868 c 0,42,43
 109 949 109 949 112 1111 c 128,-1,44
 115 1273 115 1273 115 1354 c 2,45,-1
 115 1533 l 2,46,47
 115 1544 115 1544 124.5 1552.5 c 128,-1,48
 134 1561 134 1561 145 1561 c 0,49,50
 160 1561 160 1561 166 1544 c 0,51,52
 184 1487 184 1487 257.5 1189 c 128,-1,53
 331 891 331 891 369 717 c 0,54,55
 386 639 386 639 429 376 c 1,56,57
 434 404 434 404 460.5 559 c 128,-1,58
 487 714 487 714 492 739 c 0,59,60
 504 797 504 797 586 1241 c 0,61,62
 593 1277 593 1277 605.5 1346.5 c 128,-1,63
 618 1416 618 1416 626.5 1462 c 128,-1,64
 635 1508 635 1508 637 1523 c 0,65,66
 641 1544 641 1544 650.5 1555 c 128,-1,67
 660 1566 660 1566 672 1566 c 0,68,69
 683 1566 683 1566 691.5 1556 c 128,-1,70
 700 1546 700 1546 700 1528 c 2,71,-1
 700 1325 l 2,72,73
 700 1170 700 1170 716.5 861 c 128,-1,74
 733 552 733 552 733 399 c 0,75,76
 733 342 733 342 738 229.5 c 128,-1,77
 743 117 743 117 743 24 c 0,78,79
 743 -21 743 -21 735.5 -34 c 128,-1,80
 728 -47 728 -47 713 -47 c 0,81,82
 684 -47 684 -47 676 -32.5 c 128,-1,83
 668 -18 668 -18 668 10 c 2,0,-1
EndSplineSet
EndChar

StartChar: N
Encoding: 78 78 49
Width: 772
GlyphClass: 2
Flags: W
LayerCount: 2
UndoRedoHistory
Layer: 1
Undoes
EndUndoes
Redoes
EndRedoes
EndUndoRedoHistory
Fore
SplineSet
182 1426 m 1,0,1
 180 1406 180 1406 180 1341 c 2,2,-1
 180 600 l 2,3,4
 180 502 180 502 185 308 c 128,-1,5
 190 114 190 114 190 16 c 1,6,-1
 176 0 l 1,7,-1
 129 0 l 1,8,-1
 123 16 l 1,9,10
 127 32 127 32 127 98 c 0,11,12
 127 217 127 217 124.5 454.5 c 128,-1,13
 122 692 122 692 122 811 c 2,14,-1
 122 1079 l 2,15,16
 122 1144 122 1144 120.5 1273 c 128,-1,17
 119 1402 119 1402 119 1466 c 0,18,19
 119 1473 119 1473 118 1487.5 c 128,-1,20
 117 1502 117 1502 117 1509 c 0,21,22
 117 1535 117 1535 130.5 1543.5 c 128,-1,23
 144 1552 144 1552 172 1552 c 0,24,25
 185 1552 185 1552 200 1539.5 c 128,-1,26
 215 1527 215 1527 219 1513 c 0,27,28
 232 1460 232 1460 263 1312.5 c 128,-1,29
 294 1165 294 1165 311 1096 c 0,30,31
 314 1082 314 1082 459 539 c 1,32,33
 519 290 519 290 565 150 c 1,34,35
 578 179 578 179 578 248 c 0,36,37
 578 367 578 367 582 604.5 c 128,-1,38
 586 842 586 842 586 961 c 0,39,40
 586 1014 586 1014 587.5 1119.5 c 128,-1,41
 589 1225 589 1225 589 1278 c 2,42,-1
 587 1567 l 1,43,44
 595 1595 595 1595 629 1595 c 0,45,46
 645 1595 645 1595 645 1535 c 0,47,48
 645 1519 645 1519 643.5 1492.5 c 128,-1,49
 642 1466 642 1466 642 1460 c 2,50,-1
 642 1329 l 2,51,52
 642 1164 642 1164 639.5 843 c 128,-1,53
 637 522 637 522 637 360 c 0,54,55
 637 308 637 308 632 199 c 128,-1,56
 627 90 627 90 627 37 c 0,57,58
 627 -23 627 -23 575 -23 c 0,59,60
 559 -23 559 -23 547.5 -8 c 128,-1,61
 536 7 536 7 532 23.5 c 128,-1,62
 528 40 528 40 524 63.5 c 128,-1,63
 520 87 520 87 518 94 c 0,64,65
 293 904 293 904 266 1016 c 0,66,67
 254 1067 254 1067 182 1426 c 1,0,1
EndSplineSet
EndChar

StartChar: O
Encoding: 79 79 50
Width: 696
GlyphClass: 2
Flags: W
LayerCount: 2
UndoRedoHistory
Layer: 1
Undoes
EndUndoes
Redoes
EndRedoes
EndUndoRedoHistory
Fore
SplineSet
303 1518 m 0,0,1
 268 1518 268 1518 241 1485 c 128,-1,2
 214 1452 214 1452 198.5 1393 c 128,-1,3
 183 1334 183 1334 172.5 1274 c 128,-1,4
 162 1214 162 1214 158 1138.5 c 128,-1,5
 154 1063 154 1063 153 1020.5 c 128,-1,6
 152 978 152 978 152 931 c 2,7,-1
 152 911 l 1,8,-1
 152 831 l 2,9,10
 152 778 152 778 157.5 691.5 c 128,-1,11
 163 605 163 605 179 483.5 c 128,-1,12
 195 362 195 362 218.5 260 c 128,-1,13
 242 158 242 158 284.5 86 c 128,-1,14
 327 14 327 14 379 14 c 0,15,16
 413 14 413 14 439.5 52 c 128,-1,17
 466 90 466 90 481 156.5 c 128,-1,18
 496 223 496 223 506 290 c 128,-1,19
 516 357 516 357 520 439 c 128,-1,20
 524 521 524 521 525 565 c 128,-1,21
 526 609 526 609 526 653 c 2,22,-1
 526 662 l 2,23,24
 526 711 526 711 525.5 749.5 c 128,-1,25
 525 788 525 788 522.5 867 c 128,-1,26
 520 946 520 946 513.5 1009.5 c 128,-1,27
 507 1073 507 1073 497.5 1153.5 c 128,-1,28
 488 1234 488 1234 470.5 1294 c 128,-1,29
 453 1354 453 1354 431 1407.5 c 128,-1,30
 409 1461 409 1461 376 1489.5 c 128,-1,31
 343 1518 343 1518 303 1518 c 0,0,1
91 1025 m 2,32,33
 91 1110 91 1110 94.5 1178 c 128,-1,34
 98 1246 98 1246 110.5 1323 c 128,-1,35
 123 1400 123 1400 144 1451.5 c 128,-1,36
 165 1503 165 1503 203 1537 c 128,-1,37
 241 1571 241 1571 293 1571 c 128,-1,38
 345 1571 345 1571 385.5 1551 c 128,-1,39
 426 1531 426 1531 450.5 1501 c 128,-1,40
 475 1471 475 1471 493.5 1424 c 128,-1,41
 512 1377 512 1377 520.5 1336 c 128,-1,42
 529 1295 529 1295 537 1239 c 0,43,44
 586 889 586 889 586 618 c 0,45,46
 586 573 586 573 586 548.5 c 128,-1,47
 586 524 586 524 584.5 471 c 128,-1,48
 583 418 583 418 580.5 384 c 128,-1,49
 578 350 578 350 573 297.5 c 128,-1,50
 568 245 568 245 560 209.5 c 128,-1,51
 552 174 552 174 541 131 c 128,-1,52
 530 88 530 88 514 60 c 128,-1,53
 498 32 498 32 478.5 6.5 c 128,-1,54
 459 -19 459 -19 432.5 -31 c 128,-1,55
 406 -43 406 -43 375 -43 c 0,56,57
 91 -43 91 -43 91 942 c 2,58,-1
 91 1025 l 2,32,33
EndSplineSet
EndChar

StartChar: P
Encoding: 80 80 51
Width: 540
GlyphClass: 2
Flags: W
LayerCount: 2
UndoRedoHistory
Layer: 1
Undoes
EndUndoes
Redoes
EndRedoes
EndUndoRedoHistory
Fore
SplineSet
156 1505 m 1,0,1
 156 1388 156 1388 168 1155 c 128,-1,2
 180 922 180 922 180 805 c 1,3,-1
 184 801 l 1,4,5
 195 802 195 802 205 807 c 128,-1,6
 215 812 215 812 220.5 817 c 128,-1,7
 226 822 226 822 236 833 c 128,-1,8
 246 844 246 844 250 848 c 0,9,10
 383 981 383 981 383 1182 c 0,11,12
 383 1239 383 1239 372 1292 c 128,-1,13
 361 1345 361 1345 337 1395 c 128,-1,14
 313 1445 313 1445 266.5 1475 c 128,-1,15
 220 1505 220 1505 156 1505 c 1,0,1
156 -12 m 0,16,17
 131 -12 131 -12 131 59 c 0,18,19
 131 120 131 120 128 242 c 128,-1,20
 125 364 125 364 125 426 c 0,21,22
 125 482 125 482 124 592 c 128,-1,23
 123 702 123 702 123 758 c 0,24,25
 123 986 123 986 113 1266 c 1,26,27
 105 1438 105 1438 105 1536 c 1,28,29
 107 1539 107 1539 109.5 1543.5 c 128,-1,30
 112 1548 112 1548 113.5 1550 c 128,-1,31
 115 1552 115 1552 117.5 1555 c 128,-1,32
 120 1558 120 1558 122 1559.5 c 128,-1,33
 124 1561 124 1561 127.5 1562.5 c 128,-1,34
 131 1564 131 1564 134.5 1564.5 c 128,-1,35
 138 1565 138 1565 143 1565 c 0,36,37
 216 1565 216 1565 274.5 1531 c 128,-1,38
 333 1497 333 1497 368 1441.5 c 128,-1,39
 403 1386 403 1386 421.5 1320.5 c 128,-1,40
 440 1255 440 1255 440 1186 c 0,41,42
 440 1099 440 1099 411.5 1002 c 128,-1,43
 383 905 383 905 322 823.5 c 128,-1,44
 261 742 261 742 184 725 c 1,45,46
 184 612 184 612 192.5 388 c 128,-1,47
 201 164 201 164 201 51 c 0,48,49
 201 21 201 21 192.5 4.5 c 128,-1,50
 184 -12 184 -12 156 -12 c 0,16,17
EndSplineSet
EndChar

StartChar: Q
Encoding: 81 81 52
Width: 727
GlyphClass: 2
Flags: W
LayerCount: 2
UndoRedoHistory
Layer: 1
Undoes
EndUndoes
Redoes
EndRedoes
EndUndoRedoHistory
Fore
SplineSet
154 676 m 1,0,-1
 154 590 l 2,1,2
 154 542 154 542 158.5 485 c 128,-1,3
 163 428 163 428 177.5 353.5 c 128,-1,4
 192 279 192 279 215 220.5 c 128,-1,5
 238 162 238 162 279 121 c 128,-1,6
 320 80 320 80 373 80 c 0,7,8
 448 80 448 80 482 273 c 128,-1,9
 516 466 516 466 516 887 c 2,10,-1
 516 941 l 2,11,12
 516 992 516 992 515 1030 c 128,-1,13
 514 1068 514 1068 511.5 1124 c 128,-1,14
 509 1180 509 1180 502.5 1221.5 c 128,-1,15
 496 1263 496 1263 486.5 1312 c 128,-1,16
 477 1361 477 1361 460.5 1395.5 c 128,-1,17
 444 1430 444 1430 423 1460 c 128,-1,18
 402 1490 402 1490 371 1505 c 128,-1,19
 340 1520 340 1520 303 1520 c 0,20,21
 271 1520 271 1520 245.5 1474.5 c 128,-1,22
 220 1429 220 1429 204.5 1351.5 c 128,-1,23
 189 1274 189 1274 178.5 1188 c 128,-1,24
 168 1102 168 1102 163 1004 c 128,-1,25
 158 906 158 906 156 838.5 c 128,-1,26
 154 771 154 771 154 713 c 2,27,-1
 154 676 l 1,0,-1
567 -283 m 0,28,29
 559 -283 559 -283 534.5 -270 c 128,-1,30
 510 -257 510 -257 506 -256 c 0,31,32
 467 -239 467 -239 447.5 -193 c 128,-1,33
 428 -147 428 -147 416 -71 c 128,-1,34
 404 5 404 5 397 27 c 1,35,36
 337 27 337 27 289.5 48 c 128,-1,37
 242 69 242 69 211 101 c 128,-1,38
 180 133 180 133 157.5 182.5 c 128,-1,39
 135 232 135 232 123.5 276.5 c 128,-1,40
 112 321 112 321 105.5 381.5 c 128,-1,41
 99 442 99 442 97.5 481.5 c 128,-1,42
 96 521 96 521 96 573 c 0,43,44
 96 601 96 601 95.5 665.5 c 128,-1,45
 95 730 95 730 95 765 c 0,46,47
 95 843 95 843 96 904.5 c 128,-1,48
 97 966 97 966 100.5 1043.5 c 128,-1,49
 104 1121 104 1121 110.5 1181.5 c 128,-1,50
 117 1242 117 1242 127.5 1306 c 128,-1,51
 138 1370 138 1370 154 1416 c 128,-1,52
 170 1462 170 1462 191 1500 c 128,-1,53
 212 1538 212 1538 241.5 1557.5 c 128,-1,54
 271 1577 271 1577 307 1577 c 0,55,56
 379 1577 379 1577 449.5 1519 c 128,-1,57
 520 1461 520 1461 532 1391 c 0,58,59
 588 1075 588 1075 588 594 c 0,60,61
 588 235 588 235 461 53 c 1,62,63
 462 38 462 38 470.5 15 c 128,-1,64
 479 -8 479 -8 481 -14 c 0,65,66
 485 -29 485 -29 489 -69.5 c 128,-1,67
 493 -110 493 -110 497.5 -139 c 128,-1,68
 502 -168 502 -168 521 -192.5 c 128,-1,69
 540 -217 540 -217 573 -217 c 2,70,-1
 581 -217 l 2,71,72
 645 -217 645 -217 645 -244 c 0,73,74
 645 -283 645 -283 567 -283 c 0,28,29
EndSplineSet
EndChar

StartChar: R
Encoding: 82 82 53
Width: 591
GlyphClass: 2
Flags: W
LayerCount: 2
UndoRedoHistory
Layer: 1
Undoes
EndUndoes
Redoes
EndRedoes
EndUndoRedoHistory
Fore
SplineSet
173 1491 m 1,0,-1
 173 913 l 1,1,2
 192 913 192 913 230.5 953 c 128,-1,3
 269 993 269 993 283 1018 c 0,4,5
 299 1047 299 1047 308 1105 c 128,-1,6
 317 1163 317 1163 317 1206 c 0,7,8
 317 1241 317 1241 310.5 1285.5 c 128,-1,9
 304 1330 304 1330 289.5 1378.5 c 128,-1,10
 275 1427 275 1427 247 1459.5 c 128,-1,11
 219 1492 219 1492 183 1492 c 0,12,13
 182 1492 182 1492 178 1491.5 c 128,-1,14
 174 1491 174 1491 173 1491 c 1,0,-1
424 20 m 0,15,16
 421 33 421 33 399 110 c 128,-1,17
 377 187 377 187 352.5 279.5 c 128,-1,18
 328 372 328 372 315 432 c 0,19,20
 306 471 306 471 274.5 631 c 128,-1,21
 243 791 243 791 222 870 c 0,22,23
 221 870 221 870 201 858.5 c 128,-1,24
 181 847 181 847 174 846 c 1,25,-1
 178 57 l 1,26,-1
 178 27 l 2,27,28
 178 -14 178 -14 141 -14 c 0,29,30
 126 -14 126 -14 116 -4.5 c 128,-1,31
 106 5 106 5 106 20 c 2,32,-1
 106 51 l 2,33,34
 106 258 106 258 113.5 662.5 c 128,-1,35
 121 1067 121 1067 121 1274 c 2,36,-1
 121 1538 l 2,37,38
 121 1556 121 1556 158 1556 c 0,39,40
 214 1556 214 1556 259 1527 c 128,-1,41
 304 1498 304 1498 330.5 1450.5 c 128,-1,42
 357 1403 357 1403 371 1346.5 c 128,-1,43
 385 1290 385 1290 385 1231 c 0,44,45
 385 1134 385 1134 344 1026 c 1,46,47
 336 1002 336 1002 316.5 960 c 128,-1,48
 297 918 297 918 282 902 c 1,49,50
 290 871 290 871 391 478.5 c 128,-1,51
 492 86 492 86 502 47 c 0,52,53
 505 37 505 37 505 24 c 0,54,55
 505 6 505 6 497 -7 c 128,-1,56
 489 -20 489 -20 475 -20 c 0,57,58
 435 -20 435 -20 424 20 c 0,15,16
EndSplineSet
EndChar

StartChar: S
Encoding: 83 83 54
Width: 569
GlyphClass: 2
Flags: W
LayerCount: 2
UndoRedoHistory
Layer: 1
Undoes
EndUndoes
Redoes
EndRedoes
EndUndoRedoHistory
Fore
SplineSet
309 1573 m 0,0,1
 331 1573 331 1573 367.5 1554.5 c 128,-1,2
 404 1536 404 1536 404 1515 c 0,3,4
 404 1499 404 1499 391 1499 c 128,-1,5
 378 1499 378 1499 358 1509.5 c 128,-1,6
 338 1520 338 1520 324 1520 c 0,7,8
 275 1520 275 1520 239.5 1483 c 128,-1,9
 204 1446 204 1446 189 1399 c 128,-1,10
 174 1352 174 1352 174 1305 c 0,11,12
 174 1221 174 1221 196 1135.5 c 128,-1,13
 218 1050 218 1050 251 980.5 c 128,-1,14
 284 911 284 911 322.5 831 c 128,-1,15
 361 751 361 751 394 679 c 128,-1,16
 427 607 427 607 449 514.5 c 128,-1,17
 471 422 471 422 471 330 c 0,18,19
 471 272 471 272 455.5 209 c 128,-1,20
 440 146 440 146 410.5 88 c 128,-1,21
 381 30 381 30 329.5 -7.5 c 128,-1,22
 278 -45 278 -45 215 -45 c 0,23,24
 183 -45 183 -45 163 -43 c 128,-1,25
 143 -41 143 -41 118 -29 c 128,-1,26
 93 -17 93 -17 80 6 c 1,27,28
 80 31 80 31 102 31 c 0,29,30
 123 31 123 31 159.5 15.5 c 128,-1,31
 196 0 196 0 215 0 c 0,32,33
 262 0 262 0 299.5 38 c 128,-1,34
 337 76 337 76 357 132.5 c 128,-1,35
 377 189 377 189 387 243 c 128,-1,36
 397 297 397 297 397 340 c 0,37,38
 397 445 397 445 367 548 c 128,-1,39
 337 651 337 651 293.5 736 c 128,-1,40
 250 821 250 821 207 905.5 c 128,-1,41
 164 990 164 990 134 1089.5 c 128,-1,42
 104 1189 104 1189 104 1288 c 0,43,44
 104 1352 104 1352 125 1415 c 128,-1,45
 146 1478 146 1478 194.5 1525.5 c 128,-1,46
 243 1573 243 1573 309 1573 c 0,0,1
EndSplineSet
EndChar

StartChar: T
Encoding: 84 84 55
Width: 542
GlyphClass: 2
Flags: W
LayerCount: 2
UndoRedoHistory
Layer: 1
Undoes
EndUndoes
Redoes
EndRedoes
EndUndoRedoHistory
Fore
SplineSet
271 40 m 0,0,1
 272 96 272 96 272 223 c 2,2,-1
 272 406 l 2,3,4
 272 514 272 514 267 732.5 c 128,-1,5
 262 951 262 951 262 1061 c 0,6,7
 262 1070 262 1070 263 1120 c 128,-1,8
 264 1170 264 1170 264 1253 c 0,9,10
 264 1474 264 1474 259 1474 c 2,11,-1
 113 1474 l 2,12,13
 97 1474 97 1474 83.5 1481.5 c 128,-1,14
 70 1489 70 1489 70 1505 c 0,15,16
 70 1520 70 1520 74.5 1525 c 128,-1,17
 79 1530 79 1530 111.5 1536.5 c 128,-1,18
 144 1543 144 1543 216 1544.5 c 128,-1,19
 288 1546 288 1546 422 1546 c 0,20,21
 448 1546 448 1546 456.5 1537 c 128,-1,22
 465 1528 465 1528 465 1511 c 0,23,24
 465 1481 465 1481 426 1481 c 0,25,26
 414 1481 414 1481 388 1480.5 c 128,-1,27
 362 1480 362 1480 350 1480 c 1,28,-1
 333 1478 l 1,29,30
 333 1466 333 1466 337 1359 c 128,-1,31
 341 1252 341 1252 341 1200 c 2,32,-1
 341 952 l 1,33,-1
 341 368 l 2,34,35
 341 338 341 338 342 199 c 128,-1,36
 343 60 343 60 343 48 c 2,37,-1
 343 42 l 2,38,39
 343 24 343 24 342 14.5 c 128,-1,40
 341 5 341 5 334 -3.5 c 128,-1,41
 327 -12 327 -12 313 -12 c 0,42,43
 292 -12 292 -12 281.5 3.5 c 128,-1,44
 271 19 271 19 271 40 c 0,0,1
EndSplineSet
EndChar

StartChar: U
Encoding: 85 85 56
Width: 743
GlyphClass: 2
Flags: W
LayerCount: 2
UndoRedoHistory
Layer: 1
Undoes
EndUndoes
Redoes
EndRedoes
EndUndoRedoHistory
Fore
SplineSet
139 473 m 0,0,1
 131 555 131 555 114.5 896 c 128,-1,2
 98 1237 98 1237 98 1448 c 0,3,4
 98 1452 98 1452 97.5 1462 c 128,-1,5
 97 1472 97 1472 97 1479 c 0,6,7
 97 1532 97 1532 129 1532 c 0,8,9
 154 1532 154 1532 162.5 1519 c 128,-1,10
 171 1506 171 1506 171 1483 c 0,11,12
 171 1478 171 1478 170.5 1467.5 c 128,-1,13
 170 1457 170 1457 170 1452 c 0,14,15
 170 1203 170 1203 184.5 880.5 c 128,-1,16
 199 558 199 558 213 422 c 0,17,18
 217 381 217 381 224 338 c 128,-1,19
 231 295 231 295 246.5 236.5 c 128,-1,20
 262 178 262 178 281.5 134 c 128,-1,21
 301 90 301 90 333.5 58.5 c 128,-1,22
 366 27 366 27 404 27 c 0,23,24
 441 27 441 27 468 43.5 c 128,-1,25
 495 60 495 60 510 84.5 c 128,-1,26
 525 109 525 109 533.5 145.5 c 128,-1,27
 542 182 542 182 544.5 212.5 c 128,-1,28
 547 243 547 243 547 281 c 2,29,-1
 547 514 l 2,30,31
 547 643 547 643 538 897 c 128,-1,32
 529 1151 529 1151 529 1159 c 0,33,34
 529 1218 529 1218 524.5 1333 c 128,-1,35
 520 1448 520 1448 520 1507 c 0,36,37
 520 1530 520 1530 532 1542.5 c 128,-1,38
 544 1555 544 1555 560 1555 c 128,-1,39
 576 1555 576 1555 588 1542.5 c 128,-1,40
 600 1530 600 1530 600 1507 c 2,41,-1
 600 1352 l 2,42,43
 600 1290 600 1290 600.5 1167 c 128,-1,44
 601 1044 601 1044 601 983 c 0,45,46
 601 860 601 860 604.5 633.5 c 128,-1,47
 608 407 608 407 608 295 c 0,48,49
 608 251 608 251 604.5 211 c 128,-1,50
 601 171 601 171 588 123 c 128,-1,51
 575 75 575 75 554.5 41 c 128,-1,52
 534 7 534 7 497 -16 c 128,-1,53
 460 -39 460 -39 411 -39 c 128,-1,54
 362 -39 362 -39 321.5 -18.5 c 128,-1,55
 281 2 281 2 254.5 34 c 128,-1,56
 228 66 228 66 207 112 c 128,-1,57
 186 158 186 158 174.5 200 c 128,-1,58
 163 242 163 242 155 292 c 128,-1,59
 147 342 147 342 144.5 373.5 c 128,-1,60
 142 405 142 405 140.5 438.5 c 128,-1,61
 139 472 139 472 139 473 c 0,0,1
EndSplineSet
EndChar

StartChar: V
Encoding: 86 86 57
Width: 669
GlyphClass: 2
Flags: W
LayerCount: 2
UndoRedoHistory
Layer: 1
Undoes
EndUndoes
Redoes
EndRedoes
EndUndoRedoHistory
Fore
SplineSet
362 236 m 1,0,-1
 358 231 l 1,1,-1
 365 231 l 1,2,-1
 362 236 l 1,0,-1
344 -10 m 1,3,4
 312 119 312 119 262 442 c 0,5,6
 243 563 243 563 206 808 c 128,-1,7
 169 1053 169 1053 150 1174 c 1,8,9
 98 1481 98 1481 74 1526 c 1,10,11
 81 1548 81 1548 115 1548 c 0,12,13
 123 1548 123 1548 129 1545 c 128,-1,14
 135 1542 135 1542 139.5 1535 c 128,-1,15
 144 1528 144 1528 147 1522 c 128,-1,16
 150 1516 150 1516 152.5 1506 c 128,-1,17
 155 1496 155 1496 156 1490.5 c 128,-1,18
 157 1485 157 1485 158.5 1474.5 c 128,-1,19
 160 1464 160 1464 160 1462 c 0,20,21
 188 1312 188 1312 248.5 890.5 c 128,-1,22
 309 469 309 469 362 242 c 1,23,24
 367 270 367 270 371.5 302.5 c 128,-1,25
 376 335 376 335 380 375.5 c 128,-1,26
 384 416 384 416 387 436 c 0,27,28
 468 1138 468 1138 485 1298 c 0,29,30
 502 1451 502 1451 502 1516 c 2,31,-1
 502 1524 l 1,32,33
 532 1554 532 1554 553 1554 c 1,34,-1
 565 1546 l 1,35,-1
 561 1546 l 1,36,-1
 582 1530 l 1,37,38
 582 1487 582 1487 567.5 1403 c 128,-1,39
 553 1319 553 1319 553 1276 c 1,40,41
 532 1238 532 1238 474 691.5 c 128,-1,42
 416 145 416 145 414 27 c 1,43,44
 397 -18 397 -18 375 -18 c 0,45,46
 371 -18 371 -18 365.5 -16.5 c 128,-1,47
 360 -15 360 -15 353.5 -13 c 128,-1,48
 347 -11 347 -11 344 -10 c 1,3,4
EndSplineSet
EndChar

StartChar: W
Encoding: 87 87 58
Width: 950
GlyphClass: 2
Flags: W
LayerCount: 2
UndoRedoHistory
Layer: 1
Undoes
EndUndoes
Redoes
EndRedoes
EndUndoRedoHistory
Fore
SplineSet
313 -27 m 0,0,1
 297 -27 297 -27 287 -21.5 c 128,-1,2
 277 -16 277 -16 273 -5 c 128,-1,3
 269 6 269 6 268 15.5 c 128,-1,4
 267 25 267 25 267 41 c 128,-1,5
 267 57 267 57 266 64 c 0,6,7
 244 282 244 282 221 434 c 0,8,9
 214 481 214 481 182 753.5 c 128,-1,10
 150 1026 150 1026 119 1258.5 c 128,-1,11
 88 1491 88 1491 74 1513 c 1,12,13
 80 1524 80 1524 92.5 1532 c 128,-1,14
 105 1540 105 1540 117 1540 c 0,15,16
 149 1540 149 1540 159.5 1528.5 c 128,-1,17
 170 1517 170 1517 170 1493 c 0,18,19
 170 1487 170 1487 169.5 1474.5 c 128,-1,20
 169 1462 169 1462 169 1454 c 0,21,22
 169 1440 169 1440 170 1432 c 0,23,24
 185 1273 185 1273 243.5 795 c 128,-1,25
 302 317 302 317 303 309 c 1,26,-1
 307 309 l 1,27,28
 313 355 313 355 320.5 443.5 c 128,-1,29
 328 532 328 532 338.5 662.5 c 128,-1,30
 349 793 349 793 353 838 c 1,31,32
 357 899 357 899 387 1184 c 0,33,34
 390 1216 390 1216 394 1277 c 128,-1,35
 398 1338 398 1338 399 1346 c 0,36,37
 402 1373 402 1373 428 1386 c 1,38,39
 442 1386 442 1386 451 1383 c 128,-1,40
 460 1380 460 1380 465 1372 c 128,-1,41
 470 1364 470 1364 472 1359 c 128,-1,42
 474 1354 474 1354 476 1341 c 128,-1,43
 478 1328 478 1328 479 1323 c 0,44,45
 502 1203 502 1203 568 802 c 128,-1,46
 634 401 634 401 649 246 c 1,47,-1
 655 242 l 1,48,49
 661 266 661 266 666 360 c 0,50,51
 672 464 672 464 698.5 671 c 128,-1,52
 725 878 725 878 731 981 c 0,53,54
 735 1048 735 1048 756.5 1227 c 128,-1,55
 778 1406 778 1406 778 1503 c 0,56,57
 778 1510 778 1510 777 1523 c 128,-1,58
 776 1536 776 1536 776 1542 c 0,59,60
 776 1566 776 1566 787 1578.5 c 128,-1,61
 798 1591 798 1591 829 1591 c 0,62,63
 842 1591 842 1591 855 1581.5 c 128,-1,64
 868 1572 868 1572 868 1559 c 0,65,66
 868 1538 868 1538 846 1520 c 1,67,68
 848 1516 848 1516 848 1507 c 128,-1,69
 848 1498 848 1498 844.5 1482 c 128,-1,70
 841 1466 841 1466 840 1462 c 0,71,72
 818 1282 818 1282 784.5 919 c 128,-1,73
 751 556 751 556 743 496 c 1,74,75
 739 448 739 448 726 333.5 c 128,-1,76
 713 219 713 219 702.5 125.5 c 128,-1,77
 692 32 692 32 692 23 c 0,78,79
 692 -1 692 -1 685 -14 c 128,-1,80
 678 -27 678 -27 655 -27 c 0,81,82
 642 -27 642 -27 632 -22 c 128,-1,83
 622 -17 622 -17 617 -10 c 128,-1,84
 612 -3 612 -3 608 10 c 128,-1,85
 604 23 604 23 602.5 32.5 c 128,-1,86
 601 42 601 42 599 59.5 c 128,-1,87
 597 77 597 77 596 86 c 0,88,89
 528 545 528 545 458 1119 c 1,90,-1
 452 1123 l 2,91,92
 452 1122 452 1122 451 1121 c 128,-1,93
 450 1120 450 1120 450 1119 c 0,94,95
 445 1063 445 1063 424.5 828.5 c 128,-1,96
 404 594 404 594 385 379 c 128,-1,97
 366 164 366 164 358 78 c 1,98,-1
 358 70 l 2,99,100
 358 -27 358 -27 313 -27 c 0,0,1
EndSplineSet
EndChar

StartChar: X
Encoding: 88 88 59
Width: 565
GlyphClass: 2
Flags: W
LayerCount: 2
UndoRedoHistory
Layer: 1
Undoes
EndUndoes
Redoes
EndRedoes
EndUndoRedoHistory
Fore
SplineSet
82 12 m 0,0,1
 82 37 82 37 120 170 c 1,2,3
 179 392 179 392 215 565 c 0,4,5
 217 577 217 577 224.5 613 c 128,-1,6
 232 649 232 649 236 668 c 128,-1,7
 240 687 240 687 245 717 c 128,-1,8
 250 747 250 747 252 772.5 c 128,-1,9
 254 798 254 798 254 821 c 0,10,11
 254 892 254 892 242 966.5 c 128,-1,12
 230 1041 230 1041 205 1145.5 c 128,-1,13
 180 1250 180 1250 172 1288 c 0,14,15
 168 1309 168 1309 145 1381.5 c 128,-1,16
 122 1454 122 1454 121 1495 c 1,17,18
 137 1522 137 1522 154 1522 c 0,19,20
 172 1522 172 1522 181.5 1512 c 128,-1,21
 191 1502 191 1502 192.5 1491 c 128,-1,22
 194 1480 194 1480 195 1461 c 128,-1,23
 196 1442 196 1442 197 1434 c 0,24,25
 207 1376 207 1376 245.5 1189 c 128,-1,26
 284 1002 284 1002 297 922 c 1,27,28
 309 1012 309 1012 377 1380 c 0,29,30
 378 1385 378 1385 381 1410.5 c 128,-1,31
 384 1436 384 1436 387.5 1456.5 c 128,-1,32
 391 1477 391 1477 397.5 1501 c 128,-1,33
 404 1525 404 1525 414.5 1538.5 c 128,-1,34
 425 1552 425 1552 438 1552 c 0,35,36
 475 1552 475 1552 475 1530 c 0,37,38
 475 1513 475 1513 462.5 1482.5 c 128,-1,39
 450 1452 450 1452 449 1448 c 0,40,41
 422 1354 422 1354 365 1061 c 0,42,43
 363 1052 363 1052 355 1011 c 128,-1,44
 347 970 347 970 343.5 950.5 c 128,-1,45
 340 931 340 931 334.5 898 c 128,-1,46
 329 865 329 865 326.5 839 c 128,-1,47
 324 813 324 813 324 791 c 1,48,-1
 432 238 l 1,49,-1
 454 134 l 2,50,51
 454 132 454 132 458.5 108.5 c 128,-1,52
 463 85 463 85 463 70 c 0,53,54
 463 27 463 27 430 27 c 0,55,56
 418 27 418 27 411.5 28 c 128,-1,57
 405 29 405 29 399 35 c 128,-1,58
 393 41 393 41 393 53 c 0,59,60
 393 79 393 79 389.5 111 c 128,-1,61
 386 143 386 143 382 165.5 c 128,-1,62
 378 188 378 188 371.5 225 c 128,-1,63
 365 262 365 262 362 279 c 0,64,65
 308 554 308 554 289 629 c 1,66,67
 280 614 280 614 228 372.5 c 128,-1,68
 176 131 176 131 164 61 c 0,69,70
 163 58 163 58 161.5 47.5 c 128,-1,71
 160 37 160 37 159.5 33.5 c 128,-1,72
 159 30 159 30 157 22 c 128,-1,73
 155 14 155 14 153 10.5 c 128,-1,74
 151 7 151 7 147.5 1.5 c 128,-1,75
 144 -4 144 -4 139.5 -6 c 128,-1,76
 135 -8 135 -8 128 -10 c 128,-1,77
 121 -12 121 -12 113 -12 c 128,-1,78
 105 -12 105 -12 93.5 -4 c 128,-1,79
 82 4 82 4 82 12 c 0,0,1
EndSplineSet
EndChar

StartChar: Y
Encoding: 89 89 60
Width: 505
GlyphClass: 2
Flags: W
LayerCount: 2
UndoRedoHistory
Layer: 1
Undoes
EndUndoes
Redoes
EndRedoes
EndUndoRedoHistory
Fore
SplineSet
260 25 m 0,0,1
 260 90 260 90 265 222 c 128,-1,2
 270 354 270 354 270 420 c 0,3,4
 270 448 270 448 263 503 c 128,-1,5
 256 558 256 558 256 586 c 0,6,7
 256 619 256 619 243.5 682 c 128,-1,8
 231 745 231 745 231 776 c 0,9,10
 231 793 231 793 225.5 822 c 128,-1,11
 220 851 220 851 210 892 c 128,-1,12
 200 933 200 933 199 938 c 0,13,14
 191 978 191 978 171.5 1078.5 c 128,-1,15
 152 1179 152 1179 137 1248.5 c 128,-1,16
 122 1318 122 1318 104 1380 c 0,17,18
 74 1478 74 1478 74 1513 c 0,19,20
 74 1529 74 1529 86.5 1537.5 c 128,-1,21
 99 1546 99 1546 115 1546 c 1,22,-1
 139 1530 l 1,23,24
 144 1447 144 1447 192.5 1207 c 128,-1,25
 241 967 241 967 268 930 c 1,26,27
 272 944 272 944 287.5 1107 c 128,-1,28
 303 1270 303 1270 328.5 1405 c 128,-1,29
 354 1540 354 1540 389 1540 c 0,30,31
 401 1540 401 1540 405.5 1539.5 c 128,-1,32
 410 1539 410 1539 415 1534 c 128,-1,33
 420 1529 420 1529 420 1518 c 0,34,35
 420 1502 420 1502 412 1473.5 c 128,-1,36
 404 1445 404 1445 403 1434 c 0,37,38
 397 1401 397 1401 377.5 1292 c 128,-1,39
 358 1183 358 1183 349 1128.5 c 128,-1,40
 340 1074 340 1074 331 987 c 128,-1,41
 322 900 322 900 322 829 c 0,42,43
 322 818 322 818 325 796 c 128,-1,44
 328 774 328 774 328 762 c 1,45,-1
 315 731 l 1,46,-1
 315 715 l 2,47,48
 315 674 315 674 322.5 592 c 128,-1,49
 330 510 330 510 330 469 c 0,50,51
 330 192 330 192 326 55 c 1,52,-1
 332 49 l 1,53,54
 332 47 332 47 333 42 c 128,-1,55
 334 37 334 37 334 35 c 0,56,57
 334 12 334 12 322.5 -6.5 c 128,-1,58
 311 -25 311 -25 289 -25 c 0,59,60
 274 -25 274 -25 267 -8.5 c 128,-1,61
 260 8 260 8 260 25 c 0,0,1
EndSplineSet
EndChar

StartChar: Z
Encoding: 90 90 61
Width: 471
GlyphClass: 2
Flags: W
LayerCount: 2
UndoRedoHistory
Layer: 1
Undoes
EndUndoes
Redoes
EndRedoes
EndUndoRedoHistory
Fore
SplineSet
78 8 m 1,0,1
 122 85 122 85 143 185 c 128,-1,2
 164 285 164 285 177 407 c 128,-1,3
 190 529 190 529 203 588 c 1,4,5
 218 701 218 701 249.5 928 c 128,-1,6
 281 1155 281 1155 297 1268 c 0,7,8
 299 1285 299 1285 307 1338.5 c 128,-1,9
 315 1392 315 1392 319 1428.5 c 128,-1,10
 323 1465 323 1465 324 1499 c 1,11,12
 302 1499 302 1499 256 1494 c 128,-1,13
 210 1489 210 1489 186 1489 c 0,14,15
 94 1489 94 1489 94 1530 c 1,16,-1
 109 1546 l 1,17,18
 125 1542 125 1542 158 1542 c 128,-1,19
 191 1542 191 1542 254 1552.5 c 128,-1,20
 317 1563 317 1563 350 1563 c 128,-1,21
 383 1563 383 1563 383 1526 c 1,22,23
 369 1495 369 1495 362 1444 c 128,-1,24
 355 1393 355 1393 350.5 1329 c 128,-1,25
 346 1265 346 1265 342 1239 c 0,26,27
 330 1153 330 1153 281 775 c 128,-1,28
 232 397 232 397 199 195 c 0,29,30
 196 173 196 173 174 121 c 128,-1,31
 152 69 152 69 152 39 c 1,32,33
 174 39 174 39 218 44 c 128,-1,34
 262 49 262 49 285 49 c 0,35,36
 371 49 371 49 371 8 c 1,37,-1
 352 -10 l 1,38,39
 311 -10 311 -10 230.5 -14 c 128,-1,40
 150 -18 150 -18 109 -18 c 0,41,42
 88 -18 88 -18 78 8 c 1,0,1
EndSplineSet
EndChar

StartChar: bracketleft
Encoding: 91 91 62
Width: 514
GlyphClass: 2
Flags: W
LayerCount: 2
UndoRedoHistory
Layer: 1
Undoes
EndUndoes
Redoes
EndRedoes
EndUndoRedoHistory
Fore
SplineSet
354 -68 m 0,0,1
 354 -88 354 -88 319 -88 c 0,2,3
 263 -88 263 -88 175.5 -74.5 c 128,-1,4
 88 -61 88 -61 88 -35 c 0,5,6
 88 50 88 50 109.5 218 c 128,-1,7
 131 386 131 386 131 471 c 0,8,9
 131 640 131 640 157.5 976 c 128,-1,10
 184 1312 184 1312 184 1481 c 0,11,12
 184 1491 184 1491 175 1505.5 c 128,-1,13
 166 1520 166 1520 164 1528 c 1,14,-1
 205 1552 l 1,15,16
 210 1552 210 1552 242 1551.5 c 128,-1,17
 274 1551 274 1551 303.5 1549.5 c 128,-1,18
 333 1548 333 1548 366.5 1544.5 c 128,-1,19
 400 1541 400 1541 420 1532.5 c 128,-1,20
 440 1524 440 1524 440 1511 c 0,21,22
 440 1501 440 1501 429.5 1495 c 128,-1,23
 419 1489 419 1489 408 1489 c 0,24,25
 388 1489 388 1489 350 1495 c 128,-1,26
 312 1501 312 1501 293 1501 c 0,27,28
 231 1501 231 1501 231 1458 c 0,29,30
 231 1332 231 1332 225 1172 c 128,-1,31
 219 1012 219 1012 214.5 931 c 128,-1,32
 210 850 210 850 195 626.5 c 128,-1,33
 180 403 180 403 178 371 c 0,34,35
 164 89 164 89 152 51 c 1,36,-1
 152 2 l 1,37,-1
 143 -14 l 1,38,39
 150 -15 150 -15 210.5 -18 c 128,-1,40
 271 -21 271 -21 312.5 -32 c 128,-1,41
 354 -43 354 -43 354 -68 c 0,0,1
EndSplineSet
EndChar

StartChar: backslash
Encoding: 92 92 63
Width: 559
GlyphClass: 2
Flags: W
LayerCount: 2
UndoRedoHistory
Layer: 1
Undoes
EndUndoes
Redoes
EndRedoes
EndUndoRedoHistory
Fore
SplineSet
455 -6 m 1,0,1
 443 -5 443 -5 433.5 3.5 c 128,-1,2
 424 12 424 12 418 28.5 c 128,-1,3
 412 45 412 45 408.5 58 c 128,-1,4
 405 71 405 71 401 92.5 c 128,-1,5
 397 114 397 114 395 121 c 2,6,-1
 354 299 l 2,7,8
 335 382 335 382 295 548.5 c 128,-1,9
 255 715 255 715 231.5 815 c 128,-1,10
 208 915 208 915 177 1056.5 c 128,-1,11
 146 1198 146 1198 123 1317 c 0,12,13
 122 1323 122 1323 111 1368.5 c 128,-1,14
 100 1414 100 1414 91 1456 c 128,-1,15
 82 1498 82 1498 82 1505 c 0,16,17
 82 1518 82 1518 91 1525 c 128,-1,18
 100 1532 100 1532 113 1532 c 0,19,20
 117 1532 117 1532 122 1524.5 c 128,-1,21
 127 1517 127 1517 131 1505.5 c 128,-1,22
 135 1494 135 1494 138 1483 c 128,-1,23
 141 1472 141 1472 143.5 1461 c 128,-1,24
 146 1450 146 1450 147 1448 c 0,25,26
 267 989 267 989 403 387 c 0,27,28
 410 355 410 355 431.5 271.5 c 128,-1,29
 453 188 453 188 464 131.5 c 128,-1,30
 475 75 475 75 475 31 c 0,31,32
 475 7 475 7 455 -6 c 1,0,1
EndSplineSet
EndChar

StartChar: bracketright
Encoding: 93 93 64
Width: 516
GlyphClass: 2
Flags: W
LayerCount: 2
UndoRedoHistory
Layer: 1
Undoes
EndUndoes
Redoes
EndRedoes
EndUndoRedoHistory
Fore
SplineSet
164 -68 m 0,0,1
 164 -43 164 -43 205.5 -32 c 128,-1,2
 247 -21 247 -21 307.5 -18 c 128,-1,3
 368 -15 368 -15 375 -14 c 1,4,-1
 367 2 l 1,5,-1
 367 51 l 1,6,7
 351 86 351 86 328 539.5 c 128,-1,8
 305 993 305 993 299 1204 c 0,9,10
 298 1240 298 1240 292.5 1326 c 128,-1,11
 287 1412 287 1412 287 1458 c 0,12,13
 287 1480 287 1480 280 1489.5 c 128,-1,14
 273 1499 273 1499 252 1499 c 0,15,16
 232 1499 232 1499 194 1495 c 128,-1,17
 156 1491 156 1491 137 1491 c 2,18,-1
 126 1491 l 2,19,20
 78 1491 78 1491 78 1511 c 0,21,22
 78 1524 78 1524 98 1532.5 c 128,-1,23
 118 1541 118 1541 151.5 1544.5 c 128,-1,24
 185 1548 185 1548 214.5 1549.5 c 128,-1,25
 244 1551 244 1551 276 1551.5 c 128,-1,26
 308 1552 308 1552 313 1552 c 1,27,-1
 354 1528 l 1,28,29
 352 1520 352 1520 343 1505.5 c 128,-1,30
 334 1491 334 1491 334 1481 c 0,31,32
 334 1319 334 1319 361.5 995.5 c 128,-1,33
 389 672 389 672 389 510 c 0,34,35
 389 419 389 419 409.5 237.5 c 128,-1,36
 430 56 430 56 430 -35 c 0,37,38
 430 -61 430 -61 342.5 -74.5 c 128,-1,39
 255 -88 255 -88 199 -88 c 0,40,41
 164 -88 164 -88 164 -68 c 0,0,1
EndSplineSet
EndChar

StartChar: asciicircum
Encoding: 94 94 65
Width: 319
GlyphClass: 2
Flags: W
LayerCount: 2
UndoRedoHistory
Layer: 1
Undoes
EndUndoes
Redoes
EndRedoes
EndUndoRedoHistory
Fore
SplineSet
117 1575 m 0,0,1
 117 1597 117 1597 126.5 1614.5 c 128,-1,2
 136 1632 136 1632 156 1632 c 0,3,4
 178 1632 178 1632 192.5 1618.5 c 128,-1,5
 207 1605 207 1605 207 1583 c 0,6,7
 207 1538 207 1538 166 1538 c 0,8,9
 117 1538 117 1538 117 1575 c 0,0,1
EndSplineSet
EndChar

StartChar: underscore
Encoding: 95 95 66
Width: 565
GlyphClass: 2
Flags: W
LayerCount: 2
UndoRedoHistory
Layer: 1
Undoes
EndUndoes
Redoes
EndRedoes
EndUndoRedoHistory
Fore
SplineSet
620 -44 m 1,0,-1
 558 -44 l 1,1,2
 558 -50 558 -50 344 -50 c 2,3,-1
 42 -50 l 2,4,5
 26 -50 26 -50 13 -40.5 c 128,-1,6
 0 -31 0 -31 0 -15 c 0,7,8
 0 -9 0 -9 282 -9 c 2,9,-1
 576 -9 l 2,10,11
 591 -9 591 -9 605.5 -19.5 c 128,-1,12
 620 -30 620 -30 620 -44 c 1,0,-1
EndSplineSet
EndChar

StartChar: grave
Encoding: 96 96 67
Width: 550
GlyphClass: 2
Flags: W
LayerCount: 2
UndoRedoHistory
Layer: 1
Undoes
EndUndoes
Redoes
EndRedoes
EndUndoRedoHistory
Fore
SplineSet
207 1622 m 1,0,1
 187 1618 187 1618 174 1618 c 0,2,3
 104 1618 104 1618 104 1659 c 0,4,5
 104 1695 104 1695 117 1704 c 1,6,-1
 130 1704 l 2,7,8
 191 1704 191 1704 209 1681 c 0,9,10
 211 1680 211 1680 233.5 1672.5 c 128,-1,11
 256 1665 256 1665 272 1659 c 128,-1,12
 288 1653 288 1653 314.5 1642.5 c 128,-1,13
 341 1632 341 1632 360.5 1623 c 128,-1,14
 380 1614 380 1614 399 1603.5 c 128,-1,15
 418 1593 418 1593 428 1583 c 128,-1,16
 438 1573 438 1573 438 1565 c 0,17,18
 438 1558 438 1558 429.5 1553 c 128,-1,19
 421 1548 421 1548 414 1548 c 0,20,21
 410 1548 410 1548 313 1582.5 c 128,-1,22
 216 1617 216 1617 207 1622 c 1,0,1
EndSplineSet
EndChar

StartChar: a
Encoding: 97 97 68
Width: 667
GlyphClass: 2
Flags: W
LayerCount: 2
UndoRedoHistory
Layer: 1
Undoes
EndUndoes
Redoes
EndRedoes
EndUndoRedoHistory
Fore
SplineSet
223 376 m 0,0,1
 223 365 223 365 307.5 357.5 c 128,-1,2
 392 350 392 350 438 350 c 2,3,-1
 459 350 l 1,4,5
 444 562 444 562 381 1221 c 1,6,7
 274 692 274 692 270 674 c 0,8,9
 223 443 223 443 223 376 c 0,0,1
221 315 m 0,10,11
 214 315 214 315 211 313 c 128,-1,12
 208 311 208 311 207 306 c 128,-1,13
 206 301 206 301 205 299 c 2,14,-1
 201 258 l 2,15,16
 199 234 199 234 193.5 198 c 128,-1,17
 188 162 188 162 178 111 c 128,-1,18
 168 60 168 60 153.5 25 c 128,-1,19
 139 -10 139 -10 123 -10 c 0,20,21
 110 -10 110 -10 96 1 c 128,-1,22
 82 12 82 12 82 25 c 0,23,24
 82 27 82 27 84 31 c 128,-1,25
 86 35 86 35 86 37 c 0,26,27
 103 104 103 104 117.5 170.5 c 128,-1,28
 132 237 132 237 148 325.5 c 128,-1,29
 164 414 164 414 171 452.5 c 128,-1,30
 178 491 178 491 197 608 c 128,-1,31
 216 725 216 725 219 743 c 0,32,33
 228 799 228 799 254.5 922 c 128,-1,34
 281 1045 281 1045 291 1112 c 0,35,36
 292 1121 292 1121 299 1186.5 c 128,-1,37
 306 1252 306 1252 313 1302.5 c 128,-1,38
 320 1353 320 1353 326 1364 c 1,39,40
 330 1364 330 1364 339.5 1363 c 128,-1,41
 349 1362 349 1362 354 1362 c 0,42,43
 379 1362 379 1362 391 1374 c 1,44,45
 404 1374 404 1374 416 1365.5 c 128,-1,46
 428 1357 428 1357 428 1343 c 0,47,48
 428 1284 428 1284 431.5 1235 c 128,-1,49
 435 1186 435 1186 443 1118 c 128,-1,50
 451 1050 451 1050 455 1010 c 0,51,52
 480 718 480 718 569 18 c 1,53,-1
 569 12 l 2,54,55
 569 -9 569 -9 553 -18 c 1,56,57
 523 -18 523 -18 514.5 -11.5 c 128,-1,58
 506 -5 506 -5 502 27 c 0,59,60
 470 280 470 280 468 295 c 1,61,62
 429 305 429 305 367 305 c 0,63,64
 339 305 339 305 292 310 c 128,-1,65
 245 315 245 315 221 315 c 0,10,11
EndSplineSet
EndChar

StartChar: b
Encoding: 98 98 69
Width: 530
GlyphClass: 2
Flags: W
LayerCount: 2
UndoRedoHistory
Layer: 1
Undoes
EndUndoes
Redoes
EndRedoes
EndUndoRedoHistory
Fore
SplineSet
182 766 m 1,0,1
 183 762 183 762 186 752.5 c 128,-1,2
 189 743 189 743 190 739 c 1,3,-1
 205 739 l 2,4,5
 340 739 340 739 340 1012 c 0,6,7
 340 1034 340 1034 339 1055 c 128,-1,8
 338 1076 338 1076 336.5 1100 c 128,-1,9
 335 1124 335 1124 334 1139 c 1,10,-1
 330 1143 l 1,11,12
 328 1170 328 1170 323 1195.5 c 128,-1,13
 318 1221 318 1221 307.5 1249.5 c 128,-1,14
 297 1278 297 1278 276 1295.5 c 128,-1,15
 255 1313 255 1313 227 1313 c 0,16,17
 182 1313 182 1313 182 1044 c 0,18,19
 182 1002 182 1002 183 973.5 c 128,-1,20
 184 945 184 945 184 934 c 0,21,22
 184 911 184 911 183 863.5 c 128,-1,23
 182 816 182 816 182 791 c 2,24,-1
 182 766 l 1,0,1
184 248 m 1,25,26
 172 226 172 226 172 150 c 0,27,28
 172 129 172 129 173 97 c 128,-1,29
 174 65 174 65 174 57 c 1,30,31
 250 57 250 57 304 128.5 c 128,-1,32
 358 200 358 200 358 279 c 2,33,-1
 358 286 l 2,34,35
 358 292 358 292 358.5 302.5 c 128,-1,36
 359 313 359 313 359 325 c 0,37,38
 359 364 359 364 356.5 401 c 128,-1,39
 354 438 354 438 343.5 489.5 c 128,-1,40
 333 541 333 541 315.5 578 c 128,-1,41
 298 615 298 615 265 641.5 c 128,-1,42
 232 668 232 668 188 668 c 1,43,44
 178 515 178 515 178 389 c 2,45,-1
 178 342 l 2,46,47
 178 283 178 283 184 248 c 1,25,26
104 20 m 1,48,49
 102 40 102 40 102 84 c 0,50,51
 102 156 102 156 112.5 300.5 c 128,-1,52
 123 445 123 445 123 516 c 0,53,54
 123 547 123 547 121 608 c 128,-1,55
 119 669 119 669 119 698 c 0,56,57
 119 780 119 780 125 943 c 128,-1,58
 131 1106 131 1106 131 1188 c 0,59,60
 131 1266 131 1266 129 1307 c 1,61,-1
 121 1317 l 1,62,-1
 121 1329 l 2,63,64
 121 1354 121 1354 130 1368 c 128,-1,65
 139 1382 139 1382 164 1382 c 0,66,67
 192 1382 192 1382 269.5 1358 c 128,-1,68
 347 1334 347 1334 348 1315 c 1,69,70
 346 1311 346 1311 346 1309 c 1,71,72
 384 1249 384 1249 397 1188.5 c 128,-1,73
 410 1128 410 1128 410 1038 c 0,74,75
 410 885 410 885 377 795 c 1,76,-1
 379 795 l 1,77,78
 371 776 371 776 347.5 741.5 c 128,-1,79
 324 707 324 707 319 698 c 1,80,81
 359 667 359 667 382.5 609.5 c 128,-1,82
 406 552 406 552 411.5 507 c 128,-1,83
 417 462 417 462 420 399 c 2,84,-1
 422 346 l 1,85,-1
 422 317 l 2,86,87
 422 227 422 227 393.5 152 c 128,-1,88
 365 77 365 77 300 27 c 128,-1,89
 235 -23 235 -23 143 -23 c 0,90,91
 125 -23 125 -23 114.5 -10.5 c 128,-1,92
 104 2 104 2 104 20 c 1,48,49
EndSplineSet
EndChar

StartChar: c
Encoding: 99 99 70
Width: 550
GlyphClass: 2
Flags: W
LayerCount: 2
UndoRedoHistory
Layer: 1
Undoes
EndUndoes
Redoes
EndRedoes
EndUndoRedoHistory
Fore
SplineSet
319 -33 m 1,0,1
 306 -26 306 -26 271 -15 c 128,-1,2
 236 -4 236 -4 217 10 c 0,3,4
 177 39 177 39 151 88.5 c 128,-1,5
 125 138 125 138 114 204 c 128,-1,6
 103 270 103 270 99.5 322.5 c 128,-1,7
 96 375 96 375 96 446 c 2,8,-1
 96 680 l 2,9,10
 96 750 96 750 97 797 c 128,-1,11
 98 844 98 844 104.5 936.5 c 128,-1,12
 111 1029 111 1029 123.5 1092.5 c 128,-1,13
 136 1156 136 1156 162 1220 c 128,-1,14
 188 1284 188 1284 225 1313 c 0,15,16
 243 1327 243 1327 280.5 1341.5 c 128,-1,17
 318 1356 318 1356 332 1364 c 1,18,-1
 414 1364 l 2,19,20
 416 1364 416 1364 419.5 1363 c 128,-1,21
 423 1362 423 1362 425 1361.5 c 128,-1,22
 427 1361 427 1361 430.5 1360 c 128,-1,23
 434 1359 434 1359 435.5 1358.5 c 128,-1,24
 437 1358 437 1358 440 1356.5 c 128,-1,25
 443 1355 443 1355 444.5 1353.5 c 128,-1,26
 446 1352 446 1352 448 1350 c 128,-1,27
 450 1348 450 1348 451 1345.5 c 128,-1,28
 452 1343 452 1343 452.5 1340 c 128,-1,29
 453 1337 453 1337 453 1333 c 1,30,-1
 426 1303 l 1,31,-1
 340 1303 l 2,32,33
 298 1303 298 1303 267 1263.5 c 128,-1,34
 236 1224 236 1224 219.5 1170 c 128,-1,35
 203 1116 203 1116 193 1045 c 128,-1,36
 183 974 183 974 180.5 926.5 c 128,-1,37
 178 879 178 879 178 838 c 1,38,-1
 174 827 l 1,39,40
 174 758 174 758 170 620 c 128,-1,41
 166 482 166 482 166 414 c 0,42,43
 166 368 166 368 168 332 c 128,-1,44
 170 296 170 296 177 248 c 128,-1,45
 184 200 184 200 199 165.5 c 128,-1,46
 214 131 214 131 236.5 99.5 c 128,-1,47
 259 68 259 68 296.5 51.5 c 128,-1,48
 334 35 334 35 383 35 c 0,49,50
 413 35 413 35 434 53 c 1,51,52
 465 53 465 53 465 31 c 0,53,54
 465 15 465 15 437.5 -4.5 c 128,-1,55
 410 -24 410 -24 387 -33 c 1,56,-1
 319 -33 l 1,0,1
EndSplineSet
EndChar

StartChar: d
Encoding: 100 100 71
Width: 653
GlyphClass: 2
Flags: W
LayerCount: 2
UndoRedoHistory
Layer: 1
Undoes
EndUndoes
Redoes
EndRedoes
EndUndoRedoHistory
Fore
SplineSet
207 76 m 1,0,-1
 213 49 l 1,1,-1
 276 49 l 1,2,3
 282 57 282 57 289 64 c 128,-1,4
 296 71 296 71 301.5 75.5 c 128,-1,5
 307 80 307 80 316 87 c 128,-1,6
 325 94 325 94 332 100 c 0,7,8
 477 231 477 231 477 592 c 0,9,10
 477 606 477 606 476 630.5 c 128,-1,11
 475 655 475 655 475 666 c 2,12,-1
 465 872 l 2,13,14
 463 927 463 927 444.5 991.5 c 128,-1,15
 426 1056 426 1056 394.5 1118 c 128,-1,16
 363 1180 363 1180 311.5 1221 c 128,-1,17
 260 1262 260 1262 201 1262 c 0,18,19
 178 1262 178 1262 178 883 c 0,20,21
 178 443 178 443 201 119 c 1,22,-1
 199 80 l 1,23,-1
 207 76 l 1,0,-1
123 45 m 1,24,25
 115 204 115 204 115 401 c 0,26,27
 115 482 115 482 117 643 c 128,-1,28
 119 804 119 804 119 885 c 0,29,30
 119 1098 119 1098 111 1270 c 1,31,32
 94 1284 94 1284 94 1311 c 0,33,34
 94 1326 94 1326 111 1341 c 128,-1,35
 128 1356 128 1356 143 1356 c 0,36,37
 156 1356 156 1356 173.5 1339.5 c 128,-1,38
 191 1323 191 1323 195 1321 c 0,39,40
 209 1314 209 1314 243 1308.5 c 128,-1,41
 277 1303 277 1303 291 1296 c 0,42,43
 322 1281 322 1281 373 1232.5 c 128,-1,44
 424 1184 424 1184 442 1171 c 1,45,-1
 440 1167 l 1,46,47
 442 1154 442 1154 470.5 1114.5 c 128,-1,48
 499 1075 499 1075 506 1057 c 0,49,50
 539 968 539 968 539 813 c 0,51,52
 539 796 539 796 538 765 c 128,-1,53
 537 734 537 734 537 717 c 0,54,55
 537 712 537 712 536.5 699.5 c 128,-1,56
 536 687 536 687 536 680 c 0,57,58
 536 639 536 639 547 618 c 1,59,60
 537 565 537 565 529.5 492 c 128,-1,61
 522 419 522 419 517.5 371 c 128,-1,62
 513 323 513 323 498.5 263 c 128,-1,63
 484 203 484 203 461.5 160 c 128,-1,64
 439 117 439 117 394 71.5 c 128,-1,65
 349 26 349 26 283 -10 c 1,66,-1
 141 -10 l 2,67,68
 123 -10 123 -10 123 45 c 1,24,25
EndSplineSet
EndChar

StartChar: e
Encoding: 101 101 72
Width: 491
GlyphClass: 2
Flags: W
LayerCount: 2
UndoRedoHistory
Layer: 1
Undoes
EndUndoes
Redoes
EndRedoes
EndUndoRedoHistory
Fore
SplineSet
111 68 m 1,0,-1
 104 76 l 1,1,2
 119 117 119 117 119 160 c 0,3,4
 119 205 119 205 114 295 c 128,-1,5
 109 385 109 385 109 430 c 0,6,7
 109 532 109 532 116 737.5 c 128,-1,8
 123 943 123 943 123 1047 c 0,9,10
 123 1088 123 1088 119 1169.5 c 128,-1,11
 115 1251 115 1251 115 1292 c 0,12,13
 115 1321 115 1321 128.5 1335.5 c 128,-1,14
 142 1350 142 1350 174 1350 c 0,15,16
 197 1350 197 1350 207 1337 c 1,17,18
 214 1335 214 1335 266.5 1329 c 128,-1,19
 319 1323 319 1323 356 1311 c 128,-1,20
 393 1299 393 1299 395 1278 c 1,21,22
 395 1262 395 1262 356 1239 c 1,23,24
 243 1276 243 1276 190 1278 c 1,25,-1
 180 1266 l 1,26,27
 182 1237 182 1237 182 1178 c 0,28,29
 182 1125 182 1125 178 1019 c 128,-1,30
 174 913 174 913 174 860 c 0,31,32
 174 803 174 803 203 803 c 0,33,34
 214 803 214 803 236.5 805 c 128,-1,35
 259 807 259 807 272 807 c 0,36,37
 350 807 350 807 352 770 c 1,38,39
 352 749 352 749 341.5 733 c 128,-1,40
 331 717 331 717 311 717 c 0,41,42
 277 717 277 717 264 733 c 1,43,-1
 197 743 l 1,44,-1
 188 743 l 1,45,-1
 178 733 l 1,46,-1
 178 727 l 1,47,48
 182 674 182 674 182 565 c 0,49,50
 182 517 182 517 180 419.5 c 128,-1,51
 178 322 178 322 178 274 c 0,52,53
 178 194 178 194 184 111 c 0,54,55
 187 63 187 63 205.5 48 c 128,-1,56
 224 33 224 33 272 33 c 0,57,58
 284 33 284 33 309 35 c 128,-1,59
 334 37 334 37 348 37 c 0,60,61
 408 37 408 37 408 10 c 0,62,63
 408 -27 408 -27 319 -27 c 2,64,-1
 150 -27 l 2,65,66
 112 -27 112 -27 109 16 c 0,67,68
 109 24 109 24 110 42 c 128,-1,69
 111 60 111 60 111 68 c 1,0,-1
EndSplineSet
EndChar

StartChar: f
Encoding: 102 102 73
Width: 526
GlyphClass: 2
Flags: W
LayerCount: 2
UndoRedoHistory
Layer: 1
Undoes
EndUndoes
Redoes
EndRedoes
EndUndoRedoHistory
Fore
SplineSet
111 1014 m 1,0,-1
 111 1012 l 2,1,2
 111 1010 111 1010 109 1010 c 0,3,4
 106 1010 106 1010 106 1012 c 128,-1,5
 106 1014 106 1014 109 1014 c 2,6,-1
 111 1014 l 1,0,-1
98 2 m 1,7,8
 117 199 117 199 117 500 c 0,9,10
 117 637 117 637 131 912.5 c 128,-1,11
 145 1188 145 1188 145 1325 c 0,12,13
 145 1344 145 1344 163 1354 c 128,-1,14
 181 1364 181 1364 201 1364 c 0,15,16
 259 1364 259 1364 352.5 1349 c 128,-1,17
 446 1334 446 1334 446 1305 c 0,18,19
 446 1270 446 1270 373 1270 c 1,20,21
 336 1290 336 1290 260 1290 c 0,22,23
 242 1290 242 1290 235 1288 c 128,-1,24
 228 1286 228 1286 226 1283 c 128,-1,25
 224 1280 224 1280 221 1268.5 c 128,-1,26
 218 1257 218 1257 213 1247 c 1,27,28
 213 1173 213 1173 203 1029.5 c 128,-1,29
 193 886 193 886 193 815 c 2,30,-1
 193 743 l 2,31,32
 193 736 193 736 227.5 736.5 c 128,-1,33
 262 737 262 737 296 731.5 c 128,-1,34
 330 726 330 726 330 705 c 0,35,36
 330 688 330 688 314 677 c 128,-1,37
 298 666 298 666 281 666 c 0,38,39
 270 666 270 666 247 672 c 128,-1,40
 224 678 224 678 213 678 c 0,41,42
 176 678 176 678 176 578 c 2,43,-1
 176 346 l 2,44,45
 176 297 176 297 182 199.5 c 128,-1,46
 188 102 188 102 188 53 c 0,47,48
 188 -29 188 -29 139 -29 c 1,49,-1
 98 2 l 1,7,8
EndSplineSet
EndChar

StartChar: g
Encoding: 103 103 74
Width: 688
GlyphClass: 2
Flags: W
LayerCount: 2
UndoRedoHistory
Layer: 1
Undoes
EndUndoes
Redoes
EndRedoes
EndUndoRedoHistory
Fore
SplineSet
92 623 m 0,0,1
 92 679 92 679 102 783 c 128,-1,2
 112 887 112 887 113 911 c 0,3,4
 124 1076 124 1076 139 1140 c 0,5,6
 184 1337 184 1337 339 1354 c 0,7,8
 354 1356 354 1356 371 1356 c 0,9,10
 434 1356 434 1356 434 1327 c 0,11,12
 434 1313 434 1313 420.5 1304.5 c 128,-1,13
 407 1296 407 1296 393 1296 c 0,14,15
 387 1296 387 1296 373.5 1298 c 128,-1,16
 360 1300 360 1300 354 1300 c 0,17,18
 320 1300 320 1300 292.5 1277.5 c 128,-1,19
 265 1255 265 1255 246.5 1212.5 c 128,-1,20
 228 1170 228 1170 213.5 1123 c 128,-1,21
 199 1076 199 1076 191 1012 c 128,-1,22
 183 948 183 948 178 899 c 128,-1,23
 173 850 173 850 171 787 c 128,-1,24
 169 724 169 724 168.5 696 c 128,-1,25
 168 668 168 668 168 629 c 0,26,27
 168 528 168 528 174 479 c 1,28,29
 190 454 190 454 195 397.5 c 128,-1,30
 200 341 200 341 203.5 284 c 128,-1,31
 207 227 207 227 219.5 171 c 128,-1,32
 232 115 232 115 273 80 c 128,-1,33
 314 45 314 45 385 45 c 0,34,35
 413 45 413 45 435 61.5 c 128,-1,36
 457 78 457 78 469.5 109.5 c 128,-1,37
 482 141 482 141 490.5 173.5 c 128,-1,38
 499 206 499 206 502.5 253 c 128,-1,39
 506 300 506 300 507 332.5 c 128,-1,40
 508 365 508 365 508 409 c 2,41,-1
 508 446 l 1,42,-1
 508 522 l 1,43,44
 487 543 487 543 436 543 c 0,45,46
 433 543 433 543 419.5 542 c 128,-1,47
 406 541 406 541 397 541 c 0,48,49
 348 541 348 541 348 565 c 0,50,51
 348 600 348 600 397 600 c 0,52,53
 417 600 417 600 440.5 599 c 128,-1,54
 464 598 464 598 501 594.5 c 128,-1,55
 538 591 538 591 562 582 c 128,-1,56
 586 573 586 573 586 559 c 0,57,58
 586 534 586 534 574.5 483 c 128,-1,59
 563 432 563 432 563 406 c 0,60,61
 563 354 563 354 567 249 c 128,-1,62
 571 144 571 144 571 92 c 1,63,64
 465 -14 465 -14 362 -14 c 0,65,66
 226 -14 226 -14 178 49 c 0,67,68
 141 98 141 98 116.5 302 c 128,-1,69
 92 506 92 506 92 623 c 0,0,1
EndSplineSet
EndChar

StartChar: h
Encoding: 104 104 75
Width: 606
GlyphClass: 2
Flags: W
LayerCount: 2
UndoRedoHistory
Layer: 1
Undoes
EndUndoes
Redoes
EndRedoes
EndUndoRedoHistory
Fore
SplineSet
352 739 m 1,0,-1
 356 735 l 1,1,-1
 352 735 l 1,2,-1
 352 739 l 1,0,-1
418 -2 m 1,3,4
 408 453 408 453 408 547 c 1,5,-1
 403 555 l 1,6,-1
 410 573 l 1,7,8
 410 605 410 605 403 649 c 1,9,-1
 371 657 l 1,10,11
 353 651 353 651 330 651 c 0,12,13
 308 651 308 651 265 661.5 c 128,-1,14
 222 672 222 672 199 672 c 1,15,-1
 178 664 l 1,16,17
 178 621 178 621 175 535 c 128,-1,18
 172 449 172 449 172 406 c 1,19,-1
 178 397 l 1,20,21
 178 340 178 340 184 226 c 128,-1,22
 190 112 190 112 190 55 c 0,23,24
 190 35 190 35 182 18.5 c 128,-1,25
 174 2 174 2 156 2 c 0,26,27
 111 2 111 2 111 125 c 0,28,29
 111 188 111 188 113 313 c 128,-1,30
 115 438 115 438 115 500 c 0,31,32
 115 686 115 686 109 700 c 1,33,34
 119 720 119 720 119 836 c 0,35,36
 119 916 119 916 111.5 1075.5 c 128,-1,37
 104 1235 104 1235 104 1315 c 0,38,39
 104 1329 104 1329 114.5 1341.5 c 128,-1,40
 125 1354 125 1354 139 1354 c 0,41,42
 180 1354 180 1354 180 1235 c 0,43,44
 180 1151 180 1151 176 982.5 c 128,-1,45
 172 814 172 814 172 735 c 0,46,47
 172 711 172 711 329 711 c 2,48,-1
 336 711 l 2,49,50
 375 711 375 711 392.5 725.5 c 128,-1,51
 410 740 410 740 410 778 c 0,52,53
 410 872 410 872 396.5 1060.5 c 128,-1,54
 383 1249 383 1249 383 1343 c 0,55,56
 383 1356 383 1356 394 1365 c 128,-1,57
 405 1374 405 1374 418 1374 c 0,58,59
 421 1374 421 1374 436.5 1368.5 c 128,-1,60
 452 1363 452 1363 455 1362 c 1,61,62
 455 1202 455 1202 468 883.5 c 128,-1,63
 481 565 481 565 481 406 c 0,64,65
 481 176 481 176 494 0 c 1,66,-1
 481 -23 l 1,67,68
 479 -2 479 -2 418 -2 c 1,3,4
EndSplineSet
EndChar

StartChar: i
Encoding: 105 105 76
Width: 550
GlyphClass: 2
Flags: W
LayerCount: 2
UndoRedoHistory
Layer: 1
Undoes
EndUndoes
Redoes
EndRedoes
EndUndoRedoHistory
Fore
SplineSet
227 20 m 1,0,1
 221 20 221 20 209.5 19 c 128,-1,2
 198 18 198 18 193 18 c 0,3,4
 149 18 149 18 137 39 c 1,5,6
 137 47 137 47 140.5 52 c 128,-1,7
 144 57 144 57 152 63 c 128,-1,8
 160 69 160 69 164 74 c 1,9,-1
 223 74 l 1,10,-1
 231 82 l 1,11,12
 231 85 231 85 234.5 101 c 128,-1,13
 238 117 238 117 238 125 c 0,14,15
 238 200 238 200 230.5 349 c 128,-1,16
 223 498 223 498 223 573 c 0,17,18
 223 653 223 653 228 812.5 c 128,-1,19
 233 972 233 972 233 1051 c 0,20,21
 233 1190 233 1190 223 1288 c 1,22,23
 203 1294 203 1294 162 1294 c 0,24,25
 154 1294 154 1294 137.5 1292 c 128,-1,26
 121 1290 121 1290 113 1290 c 0,27,28
 74 1290 74 1290 74 1325 c 0,29,30
 74 1334 74 1334 92.5 1342 c 128,-1,31
 111 1350 111 1350 123 1350 c 0,32,33
 154 1350 154 1350 187 1348.5 c 128,-1,34
 220 1347 220 1347 277.5 1342 c 128,-1,35
 335 1337 335 1337 371.5 1323 c 128,-1,36
 408 1309 408 1309 408 1288 c 0,37,38
 408 1282 408 1282 403 1272 c 1,39,-1
 356 1268 l 1,40,41
 340 1280 340 1280 297 1280 c 1,42,-1
 287 1274 l 1,43,44
 293 1256 293 1256 293 1165 c 0,45,46
 293 1084 293 1084 290 921.5 c 128,-1,47
 287 759 287 759 287 678 c 0,48,49
 287 603 287 603 294 453.5 c 128,-1,50
 301 304 301 304 301 229 c 0,51,52
 301 225 301 225 300 202.5 c 128,-1,53
 299 180 299 180 299 166 c 0,54,55
 299 118 299 118 305 109 c 1,56,-1
 303 104 l 1,57,58
 303 84 303 84 348 84 c 0,59,60
 358 84 358 84 378 85 c 128,-1,61
 398 86 398 86 408 86 c 0,62,63
 469 86 469 86 469 57 c 0,64,65
 469 39 469 39 456 27.5 c 128,-1,66
 443 16 443 16 424 16 c 0,67,68
 412 16 412 16 390 19.5 c 128,-1,69
 368 23 368 23 356 23 c 0,70,71
 340 23 340 23 318 11.5 c 128,-1,72
 296 0 296 0 283 0 c 0,73,74
 235 0 235 0 227 20 c 1,0,1
EndSplineSet
EndChar

StartChar: j
Encoding: 106 106 77
Width: 573
GlyphClass: 2
Flags: W
LayerCount: 2
UndoRedoHistory
Layer: 1
Undoes
EndUndoes
Redoes
EndRedoes
EndUndoRedoHistory
Fore
SplineSet
70 -197 m 0,0,1
 70 -190 70 -190 104 -167 c 128,-1,2
 138 -144 138 -144 177.5 -118.5 c 128,-1,3
 217 -93 217 -93 225 -84 c 0,4,5
 258 -47 258 -47 274.5 29 c 128,-1,6
 291 105 291 105 291 172 c 0,7,8
 291 353 291 353 281.5 716 c 128,-1,9
 272 1079 272 1079 272 1260 c 1,10,-1
 260 1282 l 1,11,12
 251 1286 251 1286 210.5 1291.5 c 128,-1,13
 170 1297 170 1297 140.5 1307.5 c 128,-1,14
 111 1318 111 1318 111 1335 c 0,15,16
 111 1343 111 1343 128 1351.5 c 128,-1,17
 145 1360 145 1360 154 1360 c 0,18,19
 211 1360 211 1360 353.5 1331 c 128,-1,20
 496 1302 496 1302 496 1274 c 0,21,22
 496 1261 496 1261 486 1254 c 128,-1,23
 476 1247 476 1247 463 1247 c 0,24,25
 444 1247 444 1247 408 1257.5 c 128,-1,26
 372 1268 372 1268 352 1268 c 0,27,28
 334 1268 334 1268 334 1227 c 0,29,30
 334 1084 334 1084 344 801 c 128,-1,31
 354 518 354 518 354 377 c 2,32,-1
 354 152 l 1,33,34
 342 125 342 125 342 66 c 0,35,36
 342 25 342 25 329 -26.5 c 128,-1,37
 316 -78 316 -78 292 -130 c 128,-1,38
 268 -182 268 -182 226 -217 c 128,-1,39
 184 -252 184 -252 133 -252 c 2,40,-1
 119 -252 l 1,41,-1
 72 -205 l 2,42,43
 72 -204 72 -204 71 -201 c 128,-1,44
 70 -198 70 -198 70 -197 c 0,0,1
EndSplineSet
EndChar

StartChar: k
Encoding: 107 107 78
Width: 677
GlyphClass: 2
Flags: W
LayerCount: 2
UndoRedoHistory
Layer: 1
Undoes
EndUndoes
Redoes
EndRedoes
EndUndoRedoHistory
Fore
SplineSet
279 795 m 1,0,-1
 274 803 l 1,1,2
 267 788 267 788 241.5 736.5 c 128,-1,3
 216 685 216 685 206.5 663 c 128,-1,4
 197 641 197 641 186.5 599 c 128,-1,5
 176 557 176 557 176 518 c 0,6,7
 176 494 176 494 171 445 c 128,-1,8
 166 396 166 396 166 371 c 2,9,-1
 166 109 l 2,10,11
 166 89 166 89 173 50 c 128,-1,12
 180 11 180 11 180 -8 c 0,13,14
 180 -19 180 -19 169.5 -26 c 128,-1,15
 159 -33 159 -33 147 -33 c 0,16,17
 121 -33 121 -33 111.5 -24.5 c 128,-1,18
 102 -16 102 -16 102 10 c 2,19,-1
 102 395 l 2,20,21
 102 438 102 438 111.5 524 c 128,-1,22
 121 610 121 610 121 653 c 0,23,24
 121 718 121 718 131 850.5 c 128,-1,25
 141 983 141 983 141 1049 c 2,26,-1
 141 1333 l 1,27,28
 152 1356 152 1356 180 1356 c 0,29,30
 195 1356 195 1356 207 1344 c 128,-1,31
 219 1332 219 1332 219 1317 c 1,32,33
 201 1284 201 1284 201 1219 c 0,34,35
 201 1148 201 1148 197 1003 c 128,-1,36
 193 858 193 858 193 786 c 1,37,38
 213 794 213 794 352.5 1068.5 c 128,-1,39
 492 1343 492 1343 506 1343 c 0,40,41
 558 1343 558 1343 561 1309 c 1,42,43
 433 1121 433 1121 342 930 c 1,44,45
 342 908 342 908 340 864 c 128,-1,46
 338 820 338 820 338 799 c 0,47,48
 338 706 338 706 408.5 458 c 128,-1,49
 479 210 479 210 528 117 c 0,50,51
 535 104 535 104 552.5 80.5 c 128,-1,52
 570 57 570 57 581 36 c 128,-1,53
 592 15 592 15 592 -6 c 0,54,55
 592 -20 592 -20 581.5 -28.5 c 128,-1,56
 571 -37 571 -37 557 -37 c 0,57,58
 509 -37 509 -37 441.5 147 c 128,-1,59
 374 331 374 331 328 527.5 c 128,-1,60
 282 724 282 724 279 795 c 1,0,-1
EndSplineSet
EndChar

StartChar: l
Encoding: 108 108 79
Width: 497
GlyphClass: 2
Flags: W
LayerCount: 2
UndoRedoHistory
Layer: 1
Undoes
EndUndoes
Redoes
EndRedoes
EndUndoRedoHistory
Fore
SplineSet
215 -18 m 1,0,-1
 219 -20 l 1,1,2
 206 -20 206 -20 181 -23.5 c 128,-1,3
 156 -27 156 -27 143 -27 c 0,4,5
 114 -27 114 -27 109 20 c 1,6,7
 113 40 113 40 113 88 c 0,8,9
 113 277 113 277 119 646.5 c 128,-1,10
 125 1016 125 1016 125 1180 c 0,11,12
 125 1194 125 1194 130 1253 c 128,-1,13
 135 1312 135 1312 135 1315 c 0,14,15
 135 1329 135 1329 150 1329 c 0,16,17
 156 1329 156 1329 164.5 1326.5 c 128,-1,18
 173 1324 173 1324 178.5 1322 c 128,-1,19
 184 1320 184 1320 184 1321 c 1,20,21
 184 1294 184 1294 183 1240 c 128,-1,22
 182 1186 182 1186 182 1159 c 0,23,24
 182 1084 182 1084 183 936 c 128,-1,25
 184 788 184 788 184 713 c 1,26,27
 183 685 183 685 180.5 624.5 c 128,-1,28
 178 564 178 564 178 541 c 0,29,30
 178 512 178 512 180 454 c 128,-1,31
 182 396 182 396 182 367 c 1,32,-1
 176 350 l 1,33,-1
 178 352 l 1,34,35
 178 349 178 349 177 344 c 128,-1,36
 176 339 176 339 176 336 c 0,37,38
 176 319 176 319 182 307 c 1,39,-1
 176 111 l 1,40,-1
 176 98 l 2,41,42
 176 66 176 66 178 56.5 c 128,-1,43
 180 47 180 47 188 47 c 0,44,45
 217 47 217 47 293.5 44 c 128,-1,46
 370 41 370 41 381 41 c 2,47,-1
 387 41 l 2,48,49
 398 41 398 41 408 29.5 c 128,-1,50
 418 18 418 18 418 6 c 0,51,52
 418 -17 418 -17 385 -20 c 1,53,54
 332 -18 332 -18 215 -18 c 1,0,-1
EndSplineSet
EndChar

StartChar: m
Encoding: 109 109 80
Width: 1054
GlyphClass: 2
Flags: W
LayerCount: 2
UndoRedoHistory
Layer: 1
Undoes
EndUndoes
Redoes
EndRedoes
EndUndoRedoHistory
Fore
SplineSet
836 1149 m 1,0,-1
 834 1149 l 1,1,-1
 831 1147 l 1,2,-1
 836 1145 l 1,3,-1
 836 1149 l 1,0,-1
905 -106 m 0,4,5
 864 -106 864 -106 864 25 c 2,6,-1
 864 159 l 2,7,8
 864 454 864 454 852 621 c 0,9,10
 851 639 851 639 843.5 697 c 128,-1,11
 836 755 836 755 836 786 c 0,12,13
 836 828 836 828 840 913 c 128,-1,14
 844 998 844 998 844 1040 c 0,15,16
 844 1112 844 1112 836 1137 c 1,17,18
 796 1105 796 1105 590 274 c 0,19,20
 588 267 588 267 585.5 244 c 128,-1,21
 583 221 583 221 579.5 201.5 c 128,-1,22
 576 182 576 182 570 161 c 128,-1,23
 564 140 564 140 553 127.5 c 128,-1,24
 542 115 542 115 528 115 c 0,25,26
 494 115 494 115 480.5 131.5 c 128,-1,27
 467 148 467 148 467 182 c 0,28,29
 467 266 467 266 361 690 c 128,-1,30
 255 1114 255 1114 219 1149 c 1,31,32
 214 1039 214 1039 201 811.5 c 128,-1,33
 188 584 188 584 181 407.5 c 128,-1,34
 174 231 174 231 174 70 c 0,35,36
 174 15 174 15 176 -12 c 1,37,38
 167 -39 167 -39 133 -39 c 0,39,40
 126 -39 126 -39 112 -28 c 128,-1,41
 98 -17 98 -17 98 -10 c 0,42,43
 98 206 98 206 130 636 c 128,-1,44
 162 1066 162 1066 162 1282 c 0,45,46
 162 1289 162 1289 156 1301.5 c 128,-1,47
 150 1314 150 1314 150 1321 c 0,48,49
 150 1352 150 1352 205 1352 c 0,50,51
 221 1352 221 1352 231 1343.5 c 128,-1,52
 241 1335 241 1335 245 1320.5 c 128,-1,53
 249 1306 249 1306 251 1292 c 128,-1,54
 253 1278 253 1278 254 1260 c 128,-1,55
 255 1242 255 1242 256 1235 c 0,56,57
 267 1175 267 1175 313.5 1070.5 c 128,-1,58
 360 966 360 966 373 918 c 0,59,60
 380 892 380 892 395.5 838 c 128,-1,61
 411 784 411 784 422 742 c 128,-1,62
 433 700 433 700 440 662 c 1,63,-1
 467 608 l 1,64,65
 473 574 473 574 489.5 508 c 128,-1,66
 506 442 506 442 515.5 389 c 128,-1,67
 525 336 525 336 526 287 c 1,68,69
 550 323 550 323 655 710.5 c 128,-1,70
 760 1098 760 1098 778 1196 c 0,71,72
 779 1200 779 1200 783 1226.5 c 128,-1,73
 787 1253 787 1253 791 1268.5 c 128,-1,74
 795 1284 795 1284 802.5 1305.5 c 128,-1,75
 810 1327 810 1327 822.5 1337.5 c 128,-1,76
 835 1348 835 1348 852 1348 c 0,77,78
 865 1348 865 1348 884 1336 c 128,-1,79
 903 1324 903 1324 903 1311 c 0,80,81
 903 453 903 453 930 408 c 1,82,83
 930 372 930 372 928 300.5 c 128,-1,84
 926 229 926 229 926 193 c 0,85,86
 926 68 926 68 942 -4 c 0,87,88
 943 -8 943 -8 946.5 -20 c 128,-1,89
 950 -32 950 -32 950 -39 c 0,90,91
 950 -60 950 -60 937.5 -83 c 128,-1,92
 925 -106 925 -106 905 -106 c 0,4,5
EndSplineSet
EndChar

StartChar: n
Encoding: 110 110 81
Width: 862
GlyphClass: 2
Flags: W
LayerCount: 2
UndoRedoHistory
Layer: 1
Undoes
EndUndoes
Redoes
EndRedoes
EndUndoRedoHistory
Fore
SplineSet
469 418 m 1,0,1
 462 427 462 427 414 571 c 1,2,3
 230 1142 230 1142 182 1188 c 1,4,5
 166 1125 166 1125 166 1044 c 0,6,7
 166 1016 166 1016 168 962.5 c 128,-1,8
 170 909 170 909 170 883 c 0,9,10
 170 866 170 866 168 833 c 128,-1,11
 166 800 166 800 166 784 c 0,12,13
 166 757 166 757 169.5 706.5 c 128,-1,14
 173 656 173 656 174 641 c 1,15,-1
 168 641 l 1,16,17
 168 300 168 300 182 264 c 1,18,-1
 182 80 l 1,19,20
 190 66 190 66 190 37 c 0,21,22
 190 21 190 21 179.5 8.5 c 128,-1,23
 169 -4 169 -4 152 -4 c 0,24,25
 109 -4 109 -4 109 106 c 0,26,27
 109 128 109 128 113 172.5 c 128,-1,28
 117 217 117 217 117 240 c 0,29,30
 117 339 117 339 110.5 534.5 c 128,-1,31
 104 730 104 730 104 829 c 0,32,33
 104 890 104 890 110.5 1011 c 128,-1,34
 117 1132 117 1132 117 1192 c 2,35,-1
 117 1218 l 2,36,37
 117 1318 117 1318 154 1350 c 1,38,-1
 160 1343 l 1,39,-1
 180 1348 l 1,40,41
 186 1346 186 1346 191 1342 c 128,-1,42
 196 1338 196 1338 198.5 1335 c 128,-1,43
 201 1332 201 1332 204 1325.5 c 128,-1,44
 207 1319 207 1319 207.5 1316.5 c 128,-1,45
 208 1314 208 1314 210.5 1304.5 c 128,-1,46
 213 1295 213 1295 213 1294 c 0,47,48
 248 1148 248 1148 360 887 c 128,-1,49
 472 626 472 626 506 520 c 0,50,51
 520 477 520 477 539 394 c 128,-1,52
 558 311 558 311 579 244.5 c 128,-1,53
 600 178 600 178 631 125 c 1,54,-1
 635 131 l 1,55,56
 682 578 682 578 682 1247 c 0,57,58
 682 1255 682 1255 680 1272 c 128,-1,59
 678 1289 678 1289 678 1298 c 0,60,61
 678 1341 678 1341 707 1341 c 0,62,63
 727 1341 727 1341 739.5 1322 c 128,-1,64
 752 1303 752 1303 752 1282 c 2,65,-1
 752 1145 l 1,66,-1
 741 1128 l 1,67,68
 741 968 741 968 719 508.5 c 128,-1,69
 697 49 697 49 676 6 c 1,70,71
 665 4 665 4 641 -3 c 1,72,-1
 641 -4 l 1,73,-1
 640 -3 l 1,74,75
 623 -8 623 -8 618 -8 c 0,76,77
 602 -8 602 -8 594 5.5 c 128,-1,78
 586 19 586 19 581.5 41 c 128,-1,79
 577 63 577 63 573 70 c 1,80,-1
 575 76 l 1,81,82
 567 128 567 128 549.5 185 c 128,-1,83
 532 242 532 242 506.5 311 c 128,-1,84
 481 380 481 380 469 418 c 1,0,1
EndSplineSet
EndChar

StartChar: o
Encoding: 111 111 82
Width: 673
GlyphClass: 2
Flags: W
LayerCount: 2
UndoRedoHistory
Layer: 1
Undoes
EndUndoes
Redoes
EndRedoes
EndUndoRedoHistory
Fore
SplineSet
162 555 m 0,0,1
 162 521 162 521 165 468 c 128,-1,2
 168 415 168 415 178.5 333 c 128,-1,3
 189 251 189 251 205.5 184.5 c 128,-1,4
 222 118 222 118 253.5 69 c 128,-1,5
 285 20 285 20 326 20 c 0,6,7
 366 20 366 20 396.5 50 c 128,-1,8
 427 80 427 80 445 133.5 c 128,-1,9
 463 187 463 187 475 242.5 c 128,-1,10
 487 298 487 298 492 367 c 128,-1,11
 497 436 497 436 498.5 477.5 c 128,-1,12
 500 519 500 519 500 563 c 0,13,14
 500 644 500 644 488.5 805 c 128,-1,15
 477 966 477 966 477 1047 c 1,16,-1
 469 1063 l 1,17,-1
 473 1073 l 1,18,19
 473 1162 473 1162 423 1228 c 128,-1,20
 373 1294 373 1294 301 1294 c 2,21,-1
 215 1294 l 2,22,23
 204 1294 204 1294 195 1211.5 c 128,-1,24
 186 1129 186 1129 179 1029 c 128,-1,25
 172 929 172 929 168 909 c 1,26,27
 168 878 168 878 163 813 c 128,-1,28
 158 748 158 748 158 717 c 0,29,30
 158 690 158 690 160 636 c 128,-1,31
 162 582 162 582 162 555 c 0,0,1
334 -39 m 0,32,33
 94 -39 94 -39 94 715 c 0,34,35
 94 750 94 750 95 792.5 c 128,-1,36
 96 835 96 835 99.5 919.5 c 128,-1,37
 103 1004 103 1004 112 1076.5 c 128,-1,38
 121 1149 121 1149 134.5 1220.5 c 128,-1,39
 148 1292 148 1292 171.5 1334 c 128,-1,40
 195 1376 195 1376 225 1376 c 0,41,42
 239 1376 239 1376 251.5 1365 c 128,-1,43
 264 1354 264 1354 270 1352 c 0,44,45
 307 1339 307 1339 344.5 1332 c 128,-1,46
 382 1325 382 1325 398.5 1322 c 128,-1,47
 415 1319 415 1319 435.5 1301 c 128,-1,48
 456 1283 456 1283 477 1243 c 1,49,50
 523 1165 523 1165 543 1043 c 128,-1,51
 563 921 563 921 563 801 c 1,52,-1
 559 791 l 1,53,54
 559 750 559 750 561 669 c 128,-1,55
 563 588 563 588 563 547 c 0,56,57
 563 502 563 502 562 461.5 c 128,-1,58
 561 421 561 421 555.5 359 c 128,-1,59
 550 297 550 297 541 246 c 128,-1,60
 532 195 532 195 515 140 c 128,-1,61
 498 85 498 85 474.5 47.5 c 128,-1,62
 451 10 451 10 415 -14.5 c 128,-1,63
 379 -39 379 -39 334 -39 c 0,32,33
EndSplineSet
EndChar

StartChar: p
Encoding: 112 112 83
Width: 522
GlyphClass: 2
Flags: W
LayerCount: 2
UndoRedoHistory
Layer: 1
Undoes
EndUndoes
Redoes
EndRedoes
EndUndoRedoHistory
Fore
SplineSet
188 922 m 0,0,1
 188 890 188 890 184 825 c 128,-1,2
 180 760 180 760 180 729 c 1,3,-1
 193 709 l 1,4,5
 225 709 225 709 250.5 724.5 c 128,-1,6
 276 740 276 740 292.5 762.5 c 128,-1,7
 309 785 309 785 320.5 821 c 128,-1,8
 332 857 332 857 337.5 886.5 c 128,-1,9
 343 916 343 916 346 958.5 c 128,-1,10
 349 1001 349 1001 349.5 1023.5 c 128,-1,11
 350 1046 350 1046 350 1079 c 128,-1,12
 350 1112 350 1112 348 1135 c 128,-1,13
 346 1158 346 1158 338.5 1186 c 128,-1,14
 331 1214 331 1214 318 1231 c 128,-1,15
 305 1248 305 1248 281 1260 c 128,-1,16
 257 1272 257 1272 223 1272 c 0,17,18
 196 1272 196 1272 187 1259 c 128,-1,19
 178 1246 178 1246 178 1217 c 0,20,21
 178 1168 178 1168 183 1069.5 c 128,-1,22
 188 971 188 971 188 922 c 0,0,1
129 -25 m 1,23,24
 106 98 106 98 106 270 c 0,25,26
 106 334 106 334 110.5 461 c 128,-1,27
 115 588 115 588 115 651 c 1,28,29
 102 681 102 681 102 698 c 1,30,31
 123 733 123 733 123 887 c 0,32,33
 123 1252 123 1252 111 1284 c 1,34,35
 131 1335 131 1335 141 1335 c 2,36,-1
 231 1335 l 2,37,38
 256 1335 256 1335 297.5 1312.5 c 128,-1,39
 339 1290 339 1290 365 1268 c 1,40,41
 416 1221 416 1221 416 1026 c 0,42,43
 416 971 416 971 415 939.5 c 128,-1,44
 414 908 414 908 409.5 867 c 128,-1,45
 405 826 405 826 395.5 803 c 128,-1,46
 386 780 386 780 369 752.5 c 128,-1,47
 352 725 352 725 326.5 707 c 128,-1,48
 301 689 301 689 265 671.5 c 128,-1,49
 229 654 229 654 180 639 c 1,50,-1
 180 395 l 2,51,52
 180 328 180 328 188.5 194.5 c 128,-1,53
 197 61 197 61 197 -4 c 0,54,55
 197 -41 197 -41 158 -41 c 1,56,-1
 129 -25 l 1,23,24
EndSplineSet
EndChar

StartChar: q
Encoding: 113 113 84
Width: 688
GlyphClass: 2
Flags: W
LayerCount: 2
UndoRedoHistory
Layer: 1
Undoes
EndUndoes
Redoes
EndRedoes
EndUndoRedoHistory
Fore
SplineSet
154 664 m 2,0,-1
 154 575 l 2,1,2
 154 -14 154 -14 313 -14 c 0,3,4
 323 -14 323 -14 343 -8 c 128,-1,5
 363 -2 363 -2 373 -2 c 0,6,7
 414 -2 414 -2 449 114 c 128,-1,8
 484 230 484 230 500 346 c 128,-1,9
 516 462 516 462 516 514 c 2,10,-1
 516 872 l 2,11,12
 516 1315 516 1315 291 1315 c 0,13,14
 259 1315 259 1315 234 1277.5 c 128,-1,15
 209 1240 209 1240 194.5 1177 c 128,-1,16
 180 1114 180 1114 169.5 1047 c 128,-1,17
 159 980 159 980 154.5 904.5 c 128,-1,18
 150 829 150 829 148.5 783 c 128,-1,19
 147 737 147 737 147 702 c 0,20,21
 147 696 147 696 150.5 683 c 128,-1,22
 154 670 154 670 154 664 c 2,0,-1
385 -401 m 1,23,24
 385 -361 385 -361 380 -314 c 128,-1,25
 375 -267 375 -267 370 -237 c 128,-1,26
 365 -207 365 -207 353.5 -148 c 128,-1,27
 342 -89 342 -89 338 -68 c 1,28,29
 283 -57 283 -57 248 -41 c 128,-1,30
 213 -25 213 -25 184.5 7.5 c 128,-1,31
 156 40 156 40 140 92.5 c 128,-1,32
 124 145 124 145 117 227 c 1,33,34
 94 457 94 457 94 707 c 2,35,-1
 94 716 l 2,36,37
 94 1356 94 1356 297 1368 c 1,38,39
 311 1362 311 1362 341 1354.5 c 128,-1,40
 371 1347 371 1347 385 1341 c 0,41,42
 429 1320 429 1320 463 1285.5 c 128,-1,43
 497 1251 497 1251 517 1204.5 c 128,-1,44
 537 1158 537 1158 550 1113 c 128,-1,45
 563 1068 563 1068 569 1010 c 128,-1,46
 575 952 575 952 576.5 911.5 c 128,-1,47
 578 871 578 871 578 817 c 2,48,-1
 578 721 l 2,49,50
 578 659 578 659 570.5 552.5 c 128,-1,51
 563 446 563 446 547.5 318 c 128,-1,52
 532 190 532 190 502 87.5 c 128,-1,53
 472 -15 472 -15 434 -39 c 0,54,55
 431 -41 431 -41 419.5 -46 c 128,-1,56
 408 -51 408 -51 401.5 -56.5 c 128,-1,57
 395 -62 395 -62 395 -70 c 0,58,59
 395 -104 395 -104 400.5 -146 c 128,-1,60
 406 -188 406 -188 411.5 -216 c 128,-1,61
 417 -244 417 -244 428.5 -294.5 c 128,-1,62
 440 -345 440 -345 444 -365 c 1,63,64
 453 -374 453 -374 471.5 -376.5 c 128,-1,65
 490 -379 490 -379 506 -378.5 c 128,-1,66
 522 -378 522 -378 534.5 -384.5 c 128,-1,67
 547 -391 547 -391 547 -408 c 0,68,69
 547 -434 547 -434 520 -434 c 0,70,71
 486 -434 486 -434 443 -426 c 128,-1,72
 400 -418 400 -418 385 -401 c 1,23,24
EndSplineSet
EndChar

StartChar: r
Encoding: 114 114 85
Width: 550
GlyphClass: 2
Flags: W
LayerCount: 2
UndoRedoHistory
Layer: 1
Undoes
EndUndoes
Redoes
EndRedoes
EndUndoRedoHistory
Fore
SplineSet
168 764 m 1,0,-1
 172 760 l 1,1,2
 211 760 211 760 242 800.5 c 128,-1,3
 273 841 273 841 289 899 c 128,-1,4
 305 957 305 957 313.5 1009.5 c 128,-1,5
 322 1062 322 1062 322 1098 c 0,6,7
 322 1143 322 1143 318 1174.5 c 128,-1,8
 314 1206 314 1206 301 1241 c 128,-1,9
 288 1276 288 1276 258.5 1294.5 c 128,-1,10
 229 1313 229 1313 184 1313 c 0,11,12
 172 1313 172 1313 166 1294 c 128,-1,13
 160 1275 160 1275 160 1260 c 0,14,15
 160 1177 160 1177 164 1012 c 128,-1,16
 168 847 168 847 168 764 c 1,0,-1
412 -25 m 1,17,18
 386 4 386 4 357 125.5 c 128,-1,19
 328 247 328 247 307 375 c 128,-1,20
 286 503 286 503 260 606 c 128,-1,21
 234 709 234 709 213 709 c 2,22,-1
 205 709 l 2,23,24
 160 709 160 709 160 680 c 0,25,26
 160 568 160 568 178 231 c 1,27,28
 186 47 186 47 195 16 c 1,29,-1
 180 -18 l 1,30,-1
 150 -18 l 1,31,-1
 135 -2 l 1,32,33
 102 885 102 885 102 1288 c 0,34,35
 102 1310 102 1310 104 1324 c 128,-1,36
 106 1338 106 1338 116.5 1352 c 128,-1,37
 127 1366 127 1366 147 1366 c 0,38,39
 247 1366 247 1366 312 1315.5 c 128,-1,40
 377 1265 377 1265 377 1167 c 2,41,-1
 377 1018 l 2,42,43
 377 976 377 976 350.5 909 c 128,-1,44
 324 842 324 842 297 792.5 c 128,-1,45
 270 743 270 743 270 741 c 0,46,47
 270 734 270 734 347.5 414.5 c 128,-1,48
 425 95 425 95 432 78 c 0,49,50
 433 75 433 75 449 43 c 128,-1,51
 465 11 465 11 465 -6 c 0,52,53
 465 -35 465 -35 442 -35 c 1,54,-1
 412 -25 l 1,17,18
EndSplineSet
EndChar

StartChar: s
Encoding: 115 115 86
Width: 489
GlyphClass: 2
Flags: W
LayerCount: 2
UndoRedoHistory
Layer: 1
Undoes
EndUndoes
Redoes
EndRedoes
EndUndoRedoHistory
Fore
SplineSet
317 1313 m 1,0,-1
 317 1311 l 1,1,-1
 319 1311 l 1,2,3
 319 1313 319 1313 317 1313 c 1,0,-1
90 25 m 1,4,-1
 100 41 l 1,5,6
 111 40 111 40 136 33.5 c 128,-1,7
 161 27 161 27 174 27 c 0,8,9
 221 27 221 27 255 63.5 c 128,-1,10
 289 100 289 100 305.5 156 c 128,-1,11
 322 212 322 212 329 262 c 128,-1,12
 336 312 336 312 336 356 c 0,13,14
 336 437 336 437 310.5 515.5 c 128,-1,15
 285 594 285 594 249 659 c 128,-1,16
 213 724 213 724 177 789 c 128,-1,17
 141 854 141 854 115.5 934.5 c 128,-1,18
 90 1015 90 1015 90 1098 c 0,19,20
 90 1135 90 1135 99.5 1180 c 128,-1,21
 109 1225 109 1225 127 1271 c 128,-1,22
 145 1317 145 1317 178 1347.5 c 128,-1,23
 211 1378 211 1378 252 1378 c 0,24,25
 275 1378 275 1378 302.5 1360.5 c 128,-1,26
 330 1343 330 1343 330 1321 c 0,27,28
 330 1305 330 1305 303 1305 c 0,29,30
 295 1305 295 1305 281.5 1311 c 128,-1,31
 268 1317 268 1317 260 1317 c 0,32,33
 228 1317 228 1317 204 1291.5 c 128,-1,34
 180 1266 180 1266 167.5 1228 c 128,-1,35
 155 1190 155 1190 149 1154.5 c 128,-1,36
 143 1119 143 1119 143 1090 c 0,37,38
 143 1070 143 1070 145 1052 c 128,-1,39
 147 1034 147 1034 152.5 1010 c 128,-1,40
 158 986 158 986 160 976 c 128,-1,41
 162 966 162 966 171.5 934.5 c 128,-1,42
 181 903 181 903 182 899 c 2,43,-1
 197 862 l 1,44,45
 217 826 217 826 249 771.5 c 128,-1,46
 281 717 281 717 297 689 c 128,-1,47
 313 661 313 661 334 615.5 c 128,-1,48
 355 570 355 570 364.5 533 c 128,-1,49
 374 496 374 496 381.5 444 c 128,-1,50
 389 392 389 392 389 332 c 0,51,52
 389 287 389 287 383 241.5 c 128,-1,53
 377 196 377 196 360.5 148 c 128,-1,54
 344 100 344 100 320 63.5 c 128,-1,55
 296 27 296 27 256 3.5 c 128,-1,56
 216 -20 216 -20 166 -20 c 1,57,-1
 156 -25 l 1,58,59
 134 -21 134 -21 113.5 -8 c 128,-1,60
 93 5 93 5 90 25 c 1,4,-1
EndSplineSet
EndChar

StartChar: t
Encoding: 116 116 87
Width: 544
GlyphClass: 2
Flags: W
LayerCount: 2
UndoRedoHistory
Layer: 1
Undoes
EndUndoes
Redoes
EndRedoes
EndUndoRedoHistory
Fore
SplineSet
303 29 m 1,0,1
 303 53 303 53 301 103.5 c 128,-1,2
 299 154 299 154 299 178 c 0,3,4
 299 190 299 190 301 214 c 128,-1,5
 303 238 303 238 303 250 c 0,6,7
 303 278 303 278 295 299 c 1,8,9
 295 473 295 473 270.5 806 c 128,-1,10
 246 1139 246 1139 244 1298 c 1,11,12
 83 1298 83 1298 72 1337 c 1,13,14
 81 1360 81 1360 111 1360 c 0,15,16
 158 1360 158 1360 250 1350.5 c 128,-1,17
 342 1341 342 1341 389 1341 c 0,18,19
 395 1341 395 1341 407.5 1342 c 128,-1,20
 420 1343 420 1343 426 1343 c 0,21,22
 463 1343 463 1343 463 1317 c 0,23,24
 463 1303 463 1303 448 1293.5 c 128,-1,25
 433 1284 433 1284 418 1284 c 0,26,27
 400 1284 400 1284 363 1291 c 128,-1,28
 326 1298 326 1298 307 1298 c 1,29,-1
 297 1286 l 1,30,-1
 301 1278 l 1,31,32
 297 1270 297 1270 297 1253 c 0,33,34
 297 1052 297 1052 331 651.5 c 128,-1,35
 365 251 365 251 365 51 c 0,36,37
 365 36 365 36 353 24 c 128,-1,38
 341 12 341 12 326 12 c 1,39,-1
 303 29 l 1,0,1
EndSplineSet
EndChar

StartChar: u
Encoding: 117 117 88
Width: 651
GlyphClass: 2
Flags: W
LayerCount: 2
UndoRedoHistory
Layer: 1
Undoes
EndUndoes
Redoes
EndRedoes
EndUndoRedoHistory
Fore
SplineSet
313 -31 m 1,0,1
 279 -30 279 -30 241 -8.5 c 128,-1,2
 203 13 203 13 180 41 c 0,3,4
 150 79 150 79 134 258.5 c 128,-1,5
 118 438 118 438 115 637 c 128,-1,6
 112 836 112 836 108 1044 c 128,-1,7
 104 1252 104 1252 96 1319 c 1,8,-1
 109 1348 l 1,9,10
 156 1342 156 1342 156 1235 c 1,11,-1
 162 692 l 2,12,13
 162 620 162 620 173 475 c 128,-1,14
 184 330 184 330 184 258 c 0,15,16
 184 25 184 25 338 25 c 0,17,18
 433 25 433 25 458 454 c 0,19,20
 460 483 460 483 461 496 c 0,21,22
 475 979 475 979 475 1329 c 0,23,24
 475 1335 475 1335 473 1347.5 c 128,-1,25
 471 1360 471 1360 471 1366 c 0,26,27
 471 1389 471 1389 506 1389 c 0,28,29
 530 1389 530 1389 535.5 1375.5 c 128,-1,30
 541 1362 541 1362 541 1305 c 0,31,32
 541 1147 541 1147 528 1096 c 1,33,34
 530 1092 530 1092 530 1083 c 0,35,36
 530 1056 530 1056 525 1001 c 128,-1,37
 520 946 520 946 520 920 c 0,38,39
 520 913 520 913 521 899.5 c 128,-1,40
 522 886 522 886 522 879 c 0,41,42
 518 827 518 827 516.5 739 c 128,-1,43
 515 651 515 651 513.5 572 c 128,-1,44
 512 493 512 493 508 401 c 128,-1,45
 504 309 504 309 492 235.5 c 128,-1,46
 480 162 480 162 459 100 c 128,-1,47
 438 38 438 38 401 3.5 c 128,-1,48
 364 -31 364 -31 313 -31 c 1,0,1
EndSplineSet
EndChar

StartChar: v
Encoding: 118 118 89
Width: 714
GlyphClass: 2
Flags: W
LayerCount: 2
UndoRedoHistory
Layer: 1
Undoes
EndUndoes
Redoes
EndRedoes
EndUndoRedoHistory
Fore
SplineSet
301 1106 m 1,0,-1
 301 1102 l 1,1,-1
 299 1102 l 1,2,3
 299 1106 299 1106 301 1106 c 1,0,-1
358 141 m 1,4,-1
 356 137 l 1,5,-1
 358 133 l 1,6,-1
 358 141 l 1,4,-1
313 -6 m 1,7,8
 313 159 313 159 264 457 c 0,9,10
 210 782 210 782 131 1130 c 0,11,12
 128 1144 128 1144 114 1194 c 128,-1,13
 100 1244 100 1244 88 1288 c 128,-1,14
 76 1332 76 1332 76 1341 c 0,15,16
 76 1348 76 1348 85 1357 c 128,-1,17
 94 1366 94 1366 102 1366 c 0,18,19
 116 1366 116 1366 128 1348.5 c 128,-1,20
 140 1331 140 1331 148 1302.5 c 128,-1,21
 156 1274 156 1274 162 1247 c 128,-1,22
 168 1220 168 1220 173 1192.5 c 128,-1,23
 178 1165 178 1165 180 1157 c 0,24,25
 193 1107 193 1107 205 1053.5 c 128,-1,26
 217 1000 217 1000 226.5 956 c 128,-1,27
 236 912 236 912 247.5 850.5 c 128,-1,28
 259 789 259 789 266 753.5 c 128,-1,29
 273 718 273 718 284 649 c 128,-1,30
 295 580 295 580 300 552.5 c 128,-1,31
 305 525 305 525 316.5 448 c 128,-1,32
 328 371 328 371 330.5 351.5 c 128,-1,33
 333 332 333 332 345.5 246.5 c 128,-1,34
 358 161 358 161 360 147 c 1,35,36
 402 286 402 286 430 553 c 1,37,38
 458 794 458 794 512 1062.5 c 128,-1,39
 566 1331 566 1331 575 1384 c 1,40,-1
 602 1395 l 1,41,42
 609 1393 609 1393 617 1387 c 128,-1,43
 625 1381 625 1381 625 1374 c 0,44,45
 625 1350 625 1350 620 1320 c 128,-1,46
 615 1290 615 1290 606 1251.5 c 128,-1,47
 597 1213 597 1213 594 1198 c 0,48,49
 588 1170 588 1170 557.5 1035.5 c 128,-1,50
 527 901 527 901 516 829 c 128,-1,51
 505 757 505 757 492 623.5 c 128,-1,52
 479 490 479 490 473 444 c 0,53,54
 467 402 467 402 447.5 326.5 c 128,-1,55
 428 251 428 251 422 219 c 0,56,57
 420 207 420 207 418 172.5 c 128,-1,58
 416 138 416 138 412 107.5 c 128,-1,59
 408 77 408 77 400.5 45 c 128,-1,60
 393 13 393 13 376.5 -6 c 128,-1,61
 360 -25 360 -25 336 -25 c 1,62,-1
 313 -6 l 1,7,8
EndSplineSet
EndChar

StartChar: w
Encoding: 119 119 90
Width: 847
GlyphClass: 2
Flags: W
LayerCount: 2
UndoRedoHistory
Layer: 1
Undoes
EndUndoes
Redoes
EndRedoes
EndUndoRedoHistory
Fore
SplineSet
596 178 m 1,0,-1
 596 176 l 1,1,-1
 598 176 l 1,2,3
 598 178 598 178 596 178 c 1,0,-1
418 1053 m 1,4,5
 416 1031 416 1031 406.5 941.5 c 128,-1,6
 397 852 397 852 397 803 c 0,7,8
 397 718 397 718 388.5 632.5 c 128,-1,9
 380 547 380 547 359 410.5 c 128,-1,10
 338 274 338 274 334 242 c 0,11,12
 333 237 333 237 329 197.5 c 128,-1,13
 325 158 325 158 319.5 122.5 c 128,-1,14
 314 87 314 87 306.5 46.5 c 128,-1,15
 299 6 299 6 288 -18.5 c 128,-1,16
 277 -43 277 -43 264 -43 c 0,17,18
 233 -43 233 -43 216.5 48.5 c 128,-1,19
 200 140 200 140 190 310 c 128,-1,20
 180 480 180 480 176 520 c 1,21,22
 172 549 172 549 154 670.5 c 128,-1,23
 136 792 136 792 131 858 c 0,24,25
 129 891 129 891 125.5 967 c 128,-1,26
 122 1043 122 1043 119 1090.5 c 128,-1,27
 116 1138 116 1138 105.5 1201.5 c 128,-1,28
 95 1265 95 1265 78 1311 c 1,29,30
 87 1327 87 1327 111 1327 c 0,31,32
 124 1327 124 1327 133 1314.5 c 128,-1,33
 142 1302 142 1302 145.5 1280.5 c 128,-1,34
 149 1259 149 1259 150 1240 c 128,-1,35
 151 1221 151 1221 151.5 1198 c 128,-1,36
 152 1175 152 1175 152 1171 c 0,37,38
 157 1113 157 1113 199.5 765 c 128,-1,39
 242 417 242 417 246 231 c 1,40,41
 252 216 252 216 256.5 175.5 c 128,-1,42
 261 135 261 135 268 121 c 1,43,-1
 270 121 l 1,44,45
 273 141 273 141 285 224 c 128,-1,46
 297 307 297 307 300.5 335 c 128,-1,47
 304 363 304 363 314 435 c 128,-1,48
 324 507 324 507 328 547 c 128,-1,49
 332 587 332 587 338 647.5 c 128,-1,50
 344 708 344 708 347 760 c 128,-1,51
 350 812 350 812 352 864 c 0,52,53
 356 1003 356 1003 365 1061 c 0,54,55
 379 1161 379 1161 379 1188 c 1,56,-1
 416 1204 l 1,57,58
 429 1204 429 1204 440 1196.5 c 128,-1,59
 451 1189 451 1189 451 1176 c 0,60,61
 451 1169 451 1169 446 1159 c 1,62,63
 528 881 528 881 555 498 c 0,64,65
 557 475 557 475 559.5 421.5 c 128,-1,66
 562 368 562 368 564.5 337.5 c 128,-1,67
 567 307 567 307 575 263.5 c 128,-1,68
 583 220 583 220 596 186 c 1,69,70
 623 261 623 261 639 543.5 c 128,-1,71
 655 826 655 826 655 995 c 0,72,73
 655 1048 655 1048 668.5 1154 c 128,-1,74
 682 1260 682 1260 682 1313 c 0,75,76
 682 1335 682 1335 674 1348 c 1,77,78
 674 1380 674 1380 715 1380 c 0,79,80
 732 1380 732 1380 737.5 1376 c 128,-1,81
 743 1372 743 1372 743 1356 c 0,82,83
 743 1304 743 1304 733 1268 c 1,84,-1
 737 1255 l 1,85,86
 719 1174 719 1174 719 1063 c 0,87,88
 719 1046 719 1046 723 1040 c 1,89,-1
 711 999 l 1,90,-1
 717 985 l 1,91,92
 711 973 711 973 711 961 c 0,93,94
 711 958 711 958 717 922 c 1,95,-1
 711 913 l 1,96,97
 711 839 711 839 692 561 c 0,98,99
 678 342 678 342 670 279 c 0,100,101
 668 266 668 266 657.5 223 c 128,-1,102
 647 180 647 180 647 156 c 0,103,104
 647 130 647 130 645.5 102.5 c 128,-1,105
 644 75 644 75 639.5 31 c 128,-1,106
 635 -13 635 -13 622.5 -40.5 c 128,-1,107
 610 -68 610 -68 592 -68 c 0,108,109
 582 -68 582 -68 574.5 -61.5 c 128,-1,110
 567 -55 567 -55 564 -42.5 c 128,-1,111
 561 -30 561 -30 559.5 -20.5 c 128,-1,112
 558 -11 558 -11 557.5 5 c 128,-1,113
 557 21 557 21 557 23 c 0,114,115
 553 77 553 77 535 177 c 128,-1,116
 517 277 517 277 512 317 c 0,117,118
 509 339 509 339 493 533 c 128,-1,119
 477 727 477 727 457.5 880 c 128,-1,120
 438 1033 438 1033 418 1053 c 1,4,5
EndSplineSet
EndChar

StartChar: x
Encoding: 120 120 91
Width: 518
GlyphClass: 2
Flags: W
LayerCount: 2
UndoRedoHistory
Layer: 1
Undoes
EndUndoes
Redoes
EndRedoes
EndUndoRedoHistory
Fore
SplineSet
109 18 m 0,0,1
 109 118 109 118 166 337 c 128,-1,2
 223 556 223 556 223 659 c 0,3,4
 223 713 223 713 168.5 968.5 c 128,-1,5
 114 1224 114 1224 94 1247 c 1,6,7
 94 1249 94 1249 95 1254.5 c 128,-1,8
 96 1260 96 1260 96 1262 c 0,9,10
 96 1275 96 1275 87 1291 c 128,-1,11
 78 1307 78 1307 78 1315 c 128,-1,12
 78 1323 78 1323 91.5 1329 c 128,-1,13
 105 1335 105 1335 115 1335 c 0,14,15
 132 1335 132 1335 143 1308.5 c 128,-1,16
 154 1282 154 1282 156.5 1258.5 c 128,-1,17
 159 1235 159 1235 160 1212 c 1,18,19
 186 1143 186 1143 211.5 1007.5 c 128,-1,20
 237 872 237 872 254 817 c 1,21,22
 267 844 267 844 287 982 c 128,-1,23
 307 1120 307 1120 311 1180 c 1,24,25
 325 1346 325 1346 338 1350 c 0,26,27
 343 1351 343 1351 354.5 1353 c 128,-1,28
 366 1355 366 1355 371 1356 c 1,29,-1
 389 1331 l 1,30,31
 356 1282 356 1282 356 1151 c 0,32,33
 356 1147 356 1147 357 1138.5 c 128,-1,34
 358 1130 358 1130 358 1126 c 1,35,-1
 356 1124 l 1,36,37
 350 1063 350 1063 315.5 899.5 c 128,-1,38
 281 736 281 736 281 645 c 0,39,40
 281 611 281 611 334 371.5 c 128,-1,41
 387 132 387 132 403 92 c 0,42,43
 405 87 405 87 412.5 74.5 c 128,-1,44
 420 62 420 62 424 52 c 128,-1,45
 428 42 428 42 428 33 c 0,46,47
 428 20 428 20 419 12 c 128,-1,48
 410 4 410 4 397 4 c 0,49,50
 383 4 383 4 371 10 c 1,51,52
 359 59 359 59 333 165 c 128,-1,53
 307 271 307 271 288.5 352 c 128,-1,54
 270 433 270 433 256 508 c 1,55,56
 233 474 233 474 211 293.5 c 128,-1,57
 189 113 189 113 174 70 c 1,58,59
 178 62 178 62 178 45 c 0,60,61
 178 27 178 27 171 10.5 c 128,-1,62
 164 -6 164 -6 147 -6 c 0,63,64
 109 -6 109 -6 109 18 c 0,0,1
EndSplineSet
EndChar

StartChar: y
Encoding: 121 121 92
Width: 561
GlyphClass: 2
Flags: W
LayerCount: 2
UndoRedoHistory
Layer: 1
Undoes
EndUndoes
Redoes
EndRedoes
EndUndoRedoHistory
Fore
SplineSet
279 -8 m 1,0,1
 299 42 299 42 299 350 c 0,2,3
 299 410 299 410 291.5 521 c 128,-1,4
 284 632 284 632 283 666 c 1,5,-1
 270 692 l 1,6,-1
 276 717 l 1,7,8
 273 724 273 724 242 806 c 128,-1,9
 211 888 211 888 189 949.5 c 128,-1,10
 167 1011 167 1011 138 1092.5 c 128,-1,11
 109 1174 109 1174 93 1230 c 128,-1,12
 77 1286 77 1286 76 1307 c 1,13,-1
 104 1329 l 1,14,15
 124 1326 124 1326 164 1198.5 c 128,-1,16
 204 1071 204 1071 242.5 943 c 128,-1,17
 281 815 281 815 297 811 c 1,18,-1
 305 848 l 1,19,-1
 301 858 l 1,20,21
 316 876 316 876 340.5 1003.5 c 128,-1,22
 365 1131 365 1131 393 1245.5 c 128,-1,23
 421 1360 421 1360 446 1360 c 0,24,25
 456 1360 456 1360 464.5 1354.5 c 128,-1,26
 473 1349 473 1349 473 1339 c 0,27,28
 473 1316 473 1316 436 1186 c 0,29,30
 429 1161 429 1161 410 1097 c 128,-1,31
 391 1033 391 1033 381.5 998 c 128,-1,32
 372 963 372 963 359.5 910 c 128,-1,33
 347 857 347 857 341.5 811.5 c 128,-1,34
 336 766 336 766 336 723 c 1,35,36
 346 698 346 698 346 688 c 128,-1,37
 346 678 346 678 340 659.5 c 128,-1,38
 334 641 334 641 334 629 c 0,39,40
 334 598 334 598 342 536 c 128,-1,41
 350 474 350 474 350 442 c 0,42,43
 350 388 350 388 351 280 c 128,-1,44
 352 172 352 172 352 117 c 2,45,-1
 352 108 l 2,46,47
 352 -31 352 -31 309 -31 c 0,48,49
 302 -31 302 -31 292 -23 c 128,-1,50
 282 -15 282 -15 279 -8 c 1,0,1
EndSplineSet
EndChar

StartChar: z
Encoding: 122 122 93
Width: 538
GlyphClass: 2
Flags: W
LayerCount: 2
UndoRedoHistory
Layer: 1
Undoes
EndUndoes
Redoes
EndRedoes
EndUndoRedoHistory
Fore
SplineSet
84 27 m 0,0,1
 84 39 84 39 89.5 67 c 128,-1,2
 95 95 95 95 104.5 132.5 c 128,-1,3
 114 170 114 170 123 202.5 c 128,-1,4
 132 235 132 235 142 271.5 c 128,-1,5
 152 308 152 308 154 317 c 0,6,7
 170 376 170 376 192.5 486 c 128,-1,8
 215 596 215 596 227 645 c 0,9,10
 243 708 243 708 287.5 847.5 c 128,-1,11
 332 987 332 987 359.5 1100.5 c 128,-1,12
 387 1214 387 1214 387 1303 c 1,13,14
 356 1303 356 1303 291 1296.5 c 128,-1,15
 226 1290 226 1290 195 1290 c 0,16,17
 183 1290 183 1290 174.5 1300.5 c 128,-1,18
 166 1311 166 1311 166 1323 c 0,19,20
 166 1341 166 1341 240 1348.5 c 128,-1,21
 314 1356 314 1356 393 1356 c 0,22,23
 409 1356 409 1356 418 1354.5 c 128,-1,24
 427 1353 427 1353 435.5 1345 c 128,-1,25
 444 1337 444 1337 444 1323 c 0,26,27
 444 1253 444 1253 394 1098.5 c 128,-1,28
 344 944 344 944 344 915 c 1,29,30
 333 859 333 859 281.5 687.5 c 128,-1,31
 230 516 230 516 191.5 349 c 128,-1,32
 153 182 153 182 152 63 c 1,33,34
 172 59 172 59 211 59 c 0,35,36
 226 59 226 59 254 62.5 c 128,-1,37
 282 66 282 66 297 66 c 0,38,39
 356 66 356 66 356 39 c 128,-1,40
 356 12 356 12 309 12 c 0,41,42
 288 12 288 12 248 15 c 128,-1,43
 208 18 208 18 188 18 c 0,44,45
 165 18 165 18 143.5 7 c 128,-1,46
 122 -4 122 -4 115 -4 c 0,47,48
 84 -4 84 -4 84 27 c 0,0,1
EndSplineSet
EndChar

StartChar: braceleft
Encoding: 123 123 94
Width: 696
GlyphClass: 2
Flags: W
LayerCount: 2
UndoRedoHistory
Layer: 1
Undoes
EndUndoes
Redoes
EndRedoes
EndUndoRedoHistory
Fore
SplineSet
96 403 m 0,0,1
 96 464 96 464 100 542 c 128,-1,2
 104 620 104 620 104 645 c 0,3,4
 104 734 104 734 45 739 c 1,5,6
 37 742 37 742 37 760 c 0,7,8
 37 773 37 773 53 776 c 1,9,10
 79 776 79 776 91.5 803.5 c 128,-1,11
 104 831 104 831 104 872 c 0,12,13
 104 903 104 903 97 1059.5 c 128,-1,14
 90 1216 90 1216 90 1305 c 0,15,16
 90 1420 90 1420 126 1482 c 128,-1,17
 162 1544 162 1544 221 1544 c 0,18,19
 243 1544 243 1544 271 1533 c 128,-1,20
 299 1522 299 1522 299 1509 c 0,21,22
 299 1498 299 1498 293 1493 c 128,-1,23
 287 1488 287 1488 282 1487.5 c 128,-1,24
 277 1487 277 1487 266 1487 c 0,25,26
 263 1487 263 1487 251 1491 c 128,-1,27
 239 1495 239 1495 225 1495 c 0,28,29
 152 1495 152 1495 152 1296 c 2,30,-1
 152 1044 l 2,31,32
 152 1017 152 1017 155 964 c 128,-1,33
 158 911 158 911 158 887 c 0,34,35
 158 838 158 838 147.5 807 c 128,-1,36
 137 776 137 776 104 758 c 1,37,38
 137 741 137 741 147.5 710.5 c 128,-1,39
 158 680 158 680 158 631 c 0,40,41
 158 598 158 598 155 527.5 c 128,-1,42
 152 457 152 457 152 420 c 2,43,-1
 152 197 l 2,44,45
 152 -2 152 -2 225 -2 c 0,46,47
 245 -2 245 -2 254.5 -2.5 c 128,-1,48
 264 -3 264 -3 276.5 -5.5 c 128,-1,49
 289 -8 289 -8 294 -13.5 c 128,-1,50
 299 -19 299 -19 299 -29 c 0,51,52
 299 -51 299 -51 221 -51 c 0,53,54
 162 -51 162 -51 126 11 c 128,-1,55
 90 73 90 73 90 188 c 0,56,57
 90 229 90 229 93 295.5 c 128,-1,58
 96 362 96 362 96 403 c 0,0,1
EndSplineSet
EndChar

StartChar: bar
Encoding: 124 124 95
Width: 514
GlyphClass: 2
Flags: W
LayerCount: 2
UndoRedoHistory
Layer: 1
Undoes
EndUndoes
Redoes
EndRedoes
EndUndoRedoHistory
Fore
SplineSet
193 2 m 1,0,-1
 186 -68 l 1,1,2
 186 -88 186 -88 152 -88 c 0,3,4
 134 -88 134 -88 130.5 -85 c 128,-1,5
 127 -82 127 -82 127 -72 c 0,6,7
 127 19 127 19 139.5 199.5 c 128,-1,8
 152 380 152 380 152 471 c 0,9,10
 152 639 152 639 168 976.5 c 128,-1,11
 184 1314 184 1314 184 1487 c 0,12,13
 184 1498 184 1498 184.5 1504.5 c 128,-1,14
 185 1511 185 1511 187 1521.5 c 128,-1,15
 189 1532 189 1532 193 1537.5 c 128,-1,16
 197 1543 197 1543 205 1547.5 c 128,-1,17
 213 1552 213 1552 225 1552 c 0,18,19
 238 1552 238 1552 238 1530 c 0,20,21
 238 1340 238 1340 218.5 951.5 c 128,-1,22
 199 563 199 563 199 371 c 0,23,24
 199 144 199 144 193 51 c 1,25,-1
 193 2 l 1,0,-1
EndSplineSet
EndChar

StartChar: braceright
Encoding: 125 125 96
Width: 696
GlyphClass: 2
Flags: W
LayerCount: 2
UndoRedoHistory
Layer: 1
Undoes
EndUndoes
Redoes
EndRedoes
EndUndoRedoHistory
Fore
SplineSet
240 1090 m 0,0,1
 240 1030 240 1030 235.5 951 c 128,-1,2
 231 872 231 872 231 848 c 0,3,4
 231 759 231 759 291 754 c 1,5,6
 299 751 299 751 299 733 c 0,7,8
 299 720 299 720 283 717 c 1,9,10
 257 717 257 717 244 689 c 128,-1,11
 231 661 231 661 231 621 c 0,12,13
 231 590 231 590 238.5 433 c 128,-1,14
 246 276 246 276 246 188 c 0,15,16
 246 73 246 73 210 11 c 128,-1,17
 174 -51 174 -51 115 -51 c 0,18,19
 90 -51 90 -51 63.5 -43 c 128,-1,20
 37 -35 37 -35 37 -23 c 0,21,22
 37 0 37 0 70 0 c 0,23,24
 73 0 73 0 85 -1 c 128,-1,25
 97 -2 97 -2 111 -2 c 0,26,27
 184 -2 184 -2 184 197 c 2,28,-1
 184 449 l 2,29,30
 184 476 184 476 181 529 c 128,-1,31
 178 582 178 582 178 606 c 0,32,33
 178 656 178 656 188 686.5 c 128,-1,34
 198 717 198 717 231 735 c 1,35,36
 198 752 198 752 188 782 c 128,-1,37
 178 812 178 812 178 862 c 0,38,39
 178 896 178 896 181 966 c 128,-1,40
 184 1036 184 1036 184 1073 c 2,41,-1
 184 1296 l 2,42,43
 184 1495 184 1495 111 1495 c 2,44,-1
 80 1495 l 2,45,46
 37 1495 37 1495 37 1516 c 0,47,48
 37 1528 37 1528 63.5 1536 c 128,-1,49
 90 1544 90 1544 115 1544 c 0,50,51
 174 1544 174 1544 210 1482 c 128,-1,52
 246 1420 246 1420 246 1305 c 0,53,54
 246 1264 246 1264 243 1197.5 c 128,-1,55
 240 1131 240 1131 240 1090 c 0,0,1
EndSplineSet
EndChar

StartChar: asciitilde
Encoding: 126 126 97
Width: 653
GlyphClass: 2
Flags: W
LayerCount: 2
UndoRedoHistory
Layer: 1
Undoes
EndUndoes
Redoes
EndRedoes
EndUndoRedoHistory
Fore
SplineSet
111 1055 m 0,0,1
 111 1118 111 1118 143 1159 c 128,-1,2
 175 1200 175 1200 236 1200 c 0,3,4
 259 1200 259 1200 284 1180.5 c 128,-1,5
 309 1161 309 1161 327.5 1137.5 c 128,-1,6
 346 1114 346 1114 369 1094.5 c 128,-1,7
 392 1075 392 1075 410 1075 c 0,8,9
 420 1075 420 1075 426 1077 c 1,10,-1
 440 1073 l 1,11,12
 443 1081 443 1081 451.5 1088.5 c 128,-1,13
 460 1096 460 1096 467.5 1100.5 c 128,-1,14
 475 1105 475 1105 481 1117.5 c 128,-1,15
 487 1130 487 1130 487 1149 c 0,16,17
 487 1157 487 1157 481.5 1169.5 c 128,-1,18
 476 1182 476 1182 475 1188 c 1,19,20
 481 1200 481 1200 496 1200 c 0,21,22
 520 1200 520 1200 531.5 1178 c 128,-1,23
 543 1156 543 1156 543 1130 c 0,24,25
 543 1087 543 1087 510 1054.5 c 128,-1,26
 477 1022 477 1022 434 1022 c 0,27,28
 397 1022 397 1022 360 1043.5 c 128,-1,29
 323 1065 323 1065 304 1084.5 c 128,-1,30
 285 1104 285 1104 252 1143 c 1,31,32
 241 1151 241 1151 228 1151 c 0,33,34
 205 1151 205 1151 183.5 1131 c 128,-1,35
 162 1111 162 1111 162 1094 c 0,36,37
 162 1087 162 1087 167 1073 c 128,-1,38
 172 1059 172 1059 172 1051 c 1,39,40
 153 1025 153 1025 130 1025 c 0,41,42
 111 1025 111 1025 111 1055 c 0,0,1
EndSplineSet
EndChar

StartChar: sterling
Encoding: 163 163 101
Width: 757
GlyphClass: 2
Flags: W
LayerCount: 2
UndoRedoHistory
Layer: 1
Undoes
EndUndoes
Redoes
EndRedoes
EndUndoRedoHistory
Fore
SplineSet
82 49 m 0,0,1
 82 67 82 67 104 83.5 c 128,-1,2
 126 100 126 100 159.5 115 c 128,-1,3
 193 130 193 130 201 135 c 0,4,5
 238 162 238 162 255 237.5 c 128,-1,6
 272 313 272 313 272 379 c 0,7,8
 272 457 272 457 254 541 c 128,-1,9
 236 625 236 625 204 731 c 128,-1,10
 172 837 172 837 160 889 c 1,11,12
 158 889 158 889 155 888 c 128,-1,13
 152 887 152 887 150 887 c 0,14,15
 139 887 139 887 130 894.5 c 128,-1,16
 121 902 121 902 121 915 c 0,17,18
 121 944 121 944 147 944 c 1,19,20
 147 993 147 993 135 1089.5 c 128,-1,21
 123 1186 123 1186 123 1235 c 0,22,23
 123 1275 123 1275 123.5 1300.5 c 128,-1,24
 124 1326 124 1326 127.5 1369 c 128,-1,25
 131 1412 131 1412 137.5 1440.5 c 128,-1,26
 144 1469 144 1469 157 1503.5 c 128,-1,27
 170 1538 170 1538 188.5 1558 c 128,-1,28
 207 1578 207 1578 235.5 1592 c 128,-1,29
 264 1606 264 1606 300 1606 c 0,30,31
 347 1606 347 1606 384.5 1564.5 c 128,-1,32
 422 1523 422 1523 437.5 1477 c 128,-1,33
 453 1431 453 1431 453 1399 c 1,34,-1
 434 1378 l 1,35,36
 419 1378 419 1378 411.5 1383 c 128,-1,37
 404 1388 404 1388 396.5 1405 c 128,-1,38
 389 1422 389 1422 387 1425 c 1,39,40
 387 1475 387 1475 357.5 1518.5 c 128,-1,41
 328 1562 328 1562 287 1562 c 0,42,43
 259 1562 259 1562 235.5 1528.5 c 128,-1,44
 212 1495 212 1495 199.5 1446.5 c 128,-1,45
 187 1398 187 1398 180.5 1351 c 128,-1,46
 174 1304 174 1304 174 1268 c 0,47,48
 174 1190 174 1190 184 1070 c 128,-1,49
 194 950 194 950 207 950 c 0,50,51
 243 950 243 950 314.5 963.5 c 128,-1,52
 386 977 386 977 422 977 c 0,53,54
 433 977 433 977 442 969.5 c 128,-1,55
 451 962 451 962 451 950 c 0,56,57
 451 918 451 918 426 918 c 0,58,59
 305 918 305 918 207 899 c 1,60,61
 252 797 252 797 287 645 c 128,-1,62
 322 493 322 493 322 375 c 0,63,64
 322 333 322 333 315 299 c 128,-1,65
 308 265 308 265 289.5 213 c 128,-1,66
 271 161 271 161 266 143 c 1,67,68
 316 143 316 143 414.5 120.5 c 128,-1,69
 513 98 513 98 563 98 c 128,-1,70
 613 98 613 98 653 115 c 1,71,-1
 682 94 l 1,72,73
 682 49 682 49 586 49 c 0,74,75
 570 49 570 49 539 52 c 128,-1,76
 508 55 508 55 492 55 c 1,77,-1
 485 51 l 1,78,79
 465 63 465 63 420 72.5 c 128,-1,80
 375 82 375 82 340 86 c 2,81,-1
 305 90 l 1,82,83
 249 90 249 90 211.5 76.5 c 128,-1,84
 174 63 174 63 113 27 c 1,85,86
 82 33 82 33 82 49 c 0,0,1
EndSplineSet
EndChar

StartChar: section
Encoding: 167 167 105
Width: 489
GlyphClass: 2
Flags: W
LayerCount: 2
UndoRedoHistory
Layer: 1
Undoes
EndUndoes
Redoes
EndRedoes
EndUndoRedoHistory
Fore
SplineSet
336 520 m 0,0,1
 336 574 336 574 316 628.5 c 128,-1,2
 296 683 296 683 272.5 719 c 128,-1,3
 249 755 249 755 210 810 c 128,-1,4
 171 865 171 865 152 897 c 1,5,6
 127 836 127 836 127 760 c 0,7,8
 127 707 127 707 146.5 653 c 128,-1,9
 166 599 166 599 188.5 564.5 c 128,-1,10
 211 530 211 530 250.5 475.5 c 128,-1,11
 290 421 290 421 309 391 c 1,12,13
 336 454 336 454 336 520 c 0,0,1
389 537 m 0,14,15
 389 431 389 431 342 354 c 1,16,17
 373 287 373 287 373 223 c 0,18,19
 373 186 373 186 363.5 141 c 128,-1,20
 354 96 354 96 336 50 c 128,-1,21
 318 4 318 4 285 -26.5 c 128,-1,22
 252 -57 252 -57 211 -57 c 0,23,24
 188 -57 188 -57 160.5 -39.5 c 128,-1,25
 133 -22 133 -22 133 0 c 0,26,27
 133 16 133 16 160 16 c 0,28,29
 168 16 168 16 181.5 10 c 128,-1,30
 195 4 195 4 203 4 c 0,31,32
 235 4 235 4 259 25 c 128,-1,33
 283 46 283 46 295 77 c 128,-1,34
 307 108 307 108 313 137 c 128,-1,35
 319 166 319 166 319 190 c 0,36,37
 319 269 319 269 287 332 c 0,38,39
 254 398 254 398 209 466 c 128,-1,40
 164 534 164 534 138 572 c 128,-1,41
 112 610 112 610 93 665 c 128,-1,42
 74 720 74 720 74 784 c 0,43,44
 74 890 74 890 119 961 c 1,45,46
 90 1027 90 1027 90 1098 c 0,47,48
 90 1135 90 1135 99.5 1180 c 128,-1,49
 109 1225 109 1225 127 1271 c 128,-1,50
 145 1317 145 1317 178 1347.5 c 128,-1,51
 211 1378 211 1378 252 1378 c 0,52,53
 275 1378 275 1378 302.5 1360.5 c 128,-1,54
 330 1343 330 1343 330 1321 c 0,55,56
 330 1305 330 1305 303 1305 c 0,57,58
 295 1305 295 1305 281.5 1311 c 128,-1,59
 268 1317 268 1317 260 1317 c 0,60,61
 228 1317 228 1317 204 1291.5 c 128,-1,62
 180 1266 180 1266 167.5 1228 c 128,-1,63
 155 1190 155 1190 149 1154.5 c 128,-1,64
 143 1119 143 1119 143 1090 c 0,65,66
 143 1011 143 1011 178 948 c 1,67,68
 210 888 210 888 254 826.5 c 128,-1,69
 298 765 298 765 324 730.5 c 128,-1,70
 350 696 350 696 369.5 645.5 c 128,-1,71
 389 595 389 595 389 537 c 0,14,15
EndSplineSet
EndChar

StartChar: copyright
Encoding: 169 169 107
Width: 1157
GlyphClass: 2
Flags: W
LayerCount: 2
UndoRedoHistory
Layer: 1
Undoes
EndUndoes
Redoes
EndRedoes
EndUndoRedoHistory
Fore
SplineSet
428 311 m 1,0,1
 388 361 388 361 362.5 418 c 128,-1,2
 337 475 337 475 326.5 543.5 c 128,-1,3
 316 612 316 612 313.5 662 c 128,-1,4
 311 712 311 712 311 793 c 2,5,-1
 311 801 l 2,6,7
 311 844 311 844 311.5 873.5 c 128,-1,8
 312 903 312 903 314.5 960 c 128,-1,9
 317 1017 317 1017 321 1059 c 128,-1,10
 325 1101 325 1101 334.5 1158 c 128,-1,11
 344 1215 344 1215 356.5 1256.5 c 128,-1,12
 369 1298 369 1298 389 1342 c 128,-1,13
 409 1386 409 1386 434 1413.5 c 128,-1,14
 459 1441 459 1441 494 1459 c 128,-1,15
 529 1477 529 1477 571 1477 c 0,16,17
 615 1477 615 1477 647 1466 c 0,18,19
 674 1457 674 1457 731 1380 c 128,-1,20
 788 1303 788 1303 788 1276 c 0,21,22
 788 1264 788 1264 781 1255.5 c 128,-1,23
 774 1247 774 1247 762 1247 c 0,24,25
 742 1247 742 1247 722.5 1272.5 c 128,-1,26
 703 1298 703 1298 689 1329 c 128,-1,27
 675 1360 675 1360 646.5 1385.5 c 128,-1,28
 618 1411 618 1411 580 1411 c 0,29,30
 536 1411 536 1411 503 1382 c 128,-1,31
 470 1353 470 1353 452 1312 c 128,-1,32
 434 1271 434 1271 421.5 1210.5 c 128,-1,33
 409 1150 409 1150 404.5 1102.5 c 128,-1,34
 400 1055 400 1055 396 996.5 c 128,-1,35
 392 938 392 938 389 918 c 1,36,-1
 393 909 l 1,37,38
 385 882 385 882 385 823 c 2,39,-1
 385 786 l 2,40,41
 385 704 385 704 388 647 c 128,-1,42
 391 590 391 590 407.5 514 c 128,-1,43
 424 438 424 438 455 397 c 1,44,-1
 455 391 l 1,45,46
 479 364 479 364 492 351.5 c 128,-1,47
 505 339 505 339 534.5 324 c 128,-1,48
 564 309 564 309 596 309 c 0,49,50
 636 309 636 309 669 326 c 128,-1,51
 702 343 702 343 719 363.5 c 128,-1,52
 736 384 736 384 752 401 c 128,-1,53
 768 418 768 418 778 418 c 0,54,55
 809 418 809 418 809 373 c 0,56,57
 809 327 809 327 733.5 288.5 c 128,-1,58
 658 250 658 250 606 250 c 0,59,60
 580 250 580 250 554.5 256 c 128,-1,61
 529 262 529 262 514 268.5 c 128,-1,62
 499 275 499 275 470.5 290 c 128,-1,63
 442 305 442 305 428 311 c 1,0,1
170 940 m 0,64,65
 170 889 170 889 173 831 c 128,-1,66
 176 773 176 773 181 702.5 c 128,-1,67
 186 632 186 632 188 594 c 0,68,69
 192 524 192 524 195 486 c 128,-1,70
 198 448 198 448 208 382.5 c 128,-1,71
 218 317 218 317 231.5 279 c 128,-1,72
 245 241 245 241 271 193 c 128,-1,73
 297 145 297 145 332 119.5 c 128,-1,74
 367 94 367 94 420 75.5 c 128,-1,75
 473 57 473 57 539 57 c 0,76,77
 638 57 638 57 713.5 85.5 c 128,-1,78
 789 114 789 114 839.5 170.5 c 128,-1,79
 890 227 890 227 922 297.5 c 128,-1,80
 954 368 954 368 977 465 c 1,81,82
 975 469 975 469 975 475 c 0,83,84
 975 495 975 495 986 532.5 c 128,-1,85
 997 570 997 570 997 588 c 2,86,-1
 997 893 l 2,87,88
 997 939 997 939 978.5 1026.5 c 128,-1,89
 960 1114 960 1114 958 1124 c 0,90,91
 894 1524 894 1524 672 1677 c 0,92,93
 671 1678 671 1678 659.5 1686 c 128,-1,94
 648 1694 648 1694 645 1695.5 c 128,-1,95
 642 1697 642 1697 632 1704 c 128,-1,96
 622 1711 622 1711 617.5 1713.5 c 128,-1,97
 613 1716 613 1716 603.5 1721 c 128,-1,98
 594 1726 594 1726 588 1728 c 128,-1,99
 582 1730 582 1730 573.5 1732.5 c 128,-1,100
 565 1735 565 1735 557 1736 c 128,-1,101
 549 1737 549 1737 541 1737 c 0,102,103
 473 1737 473 1737 417 1704.5 c 128,-1,104
 361 1672 361 1672 323.5 1620.5 c 128,-1,105
 286 1569 286 1569 257.5 1497 c 128,-1,106
 229 1425 229 1425 212.5 1353.5 c 128,-1,107
 196 1282 196 1282 186 1201 c 128,-1,108
 176 1120 176 1120 173 1059 c 128,-1,109
 170 998 170 998 170 940 c 0,64,65
98 924 m 0,110,111
 98 989 98 989 101.5 1056 c 128,-1,112
 105 1123 105 1123 116.5 1211 c 128,-1,113
 128 1299 128 1299 146.5 1376.5 c 128,-1,114
 165 1454 165 1454 197.5 1531 c 128,-1,115
 230 1608 230 1608 272.5 1663.5 c 128,-1,116
 315 1719 315 1719 377.5 1753.5 c 128,-1,117
 440 1788 440 1788 516 1788 c 0,118,119
 596 1788 596 1788 666 1757.5 c 128,-1,120
 736 1727 736 1727 788 1673 c 128,-1,121
 840 1619 840 1619 883 1549 c 128,-1,122
 926 1479 926 1479 955.5 1395.5 c 128,-1,123
 985 1312 985 1312 1007 1227.5 c 128,-1,124
 1029 1143 1029 1143 1041.5 1056 c 128,-1,125
 1054 969 1054 969 1059.5 895.5 c 128,-1,126
 1065 822 1065 822 1065 756 c 0,127,128
 1065 2 1065 2 565 2 c 0,129,130
 300 2 300 2 200 173 c 0,131,132
 137 279 137 279 120 503 c 0,133,134
 117 540 117 540 111 662 c 0,135,136
 110 678 110 678 104 775 c 128,-1,137
 98 872 98 872 98 924 c 0,110,111
EndSplineSet
EndChar

StartChar: uni00AD
Encoding: 173 173 111
Width: 620
GlyphClass: 2
Flags: W
LayerCount: 2
UndoRedoHistory
Layer: 1
Undoes
EndUndoes
Redoes
EndRedoes
EndUndoRedoHistory
Fore
SplineSet
508 739 m 0,0,1
 508 732 508 732 375.5 726.5 c 128,-1,2
 243 721 243 721 156 721 c 0,3,4
 141 721 141 721 127 730.5 c 128,-1,5
 113 740 113 740 113 756 c 0,6,7
 113 763 113 763 247 768.5 c 128,-1,8
 381 774 381 774 463 774 c 0,9,10
 478 774 478 774 493 763.5 c 128,-1,11
 508 753 508 753 508 739 c 0,0,1
EndSplineSet
EndChar

StartChar: registered
Encoding: 174 174 112
Width: 1161
GlyphClass: 2
Flags: W
LayerCount: 2
UndoRedoHistory
Layer: 1
Undoes
EndUndoes
Redoes
EndRedoes
EndUndoRedoHistory
Fore
SplineSet
438 1415 m 0,0,1
 438 1371 438 1371 439.5 1310.5 c 128,-1,2
 441 1250 441 1250 444 1167.5 c 128,-1,3
 447 1085 447 1085 454.5 1030 c 128,-1,4
 462 975 462 975 473 975 c 0,5,6
 507 975 507 975 584.5 1038.5 c 128,-1,7
 662 1102 662 1102 674 1137 c 0,8,9
 692 1192 692 1192 692 1272 c 0,10,11
 692 1300 692 1300 691.5 1317 c 128,-1,12
 691 1334 691 1334 688.5 1366.5 c 128,-1,13
 686 1399 686 1399 681.5 1420 c 128,-1,14
 677 1441 677 1441 667.5 1467.5 c 128,-1,15
 658 1494 658 1494 644.5 1510 c 128,-1,16
 631 1526 631 1526 609.5 1537 c 128,-1,17
 588 1548 588 1548 561 1548 c 0,18,19
 481 1548 481 1548 459.5 1522.5 c 128,-1,20
 438 1497 438 1497 438 1415 c 0,0,1
471 168 m 128,-1,22
 451 168 451 168 436.5 179 c 128,-1,23
 422 190 422 190 422 209 c 0,24,25
 422 385 422 385 414 473 c 0,26,27
 412 499 412 499 399.5 568.5 c 128,-1,28
 387 638 387 638 387 676 c 2,29,-1
 387 1075 l 2,30,31
 387 1138 387 1138 374.5 1262.5 c 128,-1,32
 362 1387 362 1387 362 1454 c 0,33,34
 362 1505 362 1505 373 1537 c 128,-1,35
 384 1569 384 1569 410 1585.5 c 128,-1,36
 436 1602 436 1602 468.5 1607 c 128,-1,37
 501 1612 501 1612 555 1612 c 0,38,39
 602 1612 602 1612 638 1597.5 c 128,-1,40
 674 1583 674 1583 696.5 1556 c 128,-1,41
 719 1529 719 1529 734 1498 c 128,-1,42
 749 1467 749 1467 756 1425 c 128,-1,43
 763 1383 763 1383 765.5 1348 c 128,-1,44
 768 1313 768 1313 768 1270 c 0,45,46
 768 1201 768 1201 753.5 1150.5 c 128,-1,47
 739 1100 739 1100 718.5 1074.5 c 128,-1,48
 698 1049 698 1049 677 1031.5 c 128,-1,49
 656 1014 656 1014 641.5 999.5 c 128,-1,50
 627 985 627 985 627 969 c 0,51,52
 627 951 627 951 673 782 c 128,-1,53
 719 613 719 613 766 452 c 128,-1,54
 813 291 813 291 815 291 c 1,55,-1
 815 289 l 1,56,57
 816 284 816 284 824 262.5 c 128,-1,58
 832 241 832 241 839 221.5 c 128,-1,59
 846 202 846 202 846 199 c 0,60,61
 846 184 846 184 807 168 c 1,62,63
 787 168 787 168 767 200.5 c 128,-1,64
 747 233 747 233 731 284.5 c 128,-1,65
 715 336 715 336 703 385 c 128,-1,66
 691 434 691 434 680.5 483.5 c 128,-1,67
 670 533 670 533 666 545 c 0,68,69
 651 591 651 591 626 696 c 128,-1,70
 601 801 601 801 582 870.5 c 128,-1,71
 563 940 563 940 553 940 c 0,72,73
 537 940 537 940 510.5 926.5 c 128,-1,74
 484 913 484 913 465 913 c 1,75,76
 464 900 464 900 462.5 876.5 c 128,-1,77
 461 853 461 853 460 833.5 c 128,-1,78
 459 814 459 814 459 797 c 0,79,80
 459 698 459 698 481.5 504 c 128,-1,81
 504 310 504 310 504 211 c 0,82,83
 504 189 504 189 497.5 178.5 c 128,-1,21
 491 168 491 168 471 168 c 128,-1,22
446 -84 m 1,84,85
 481 -98 481 -98 514 -98 c 1,86,-1
 532 -106 l 1,87,88
 604 -106 604 -106 664 -88.5 c 128,-1,89
 724 -71 724 -71 768.5 -42 c 128,-1,90
 813 -13 813 -13 848.5 32 c 128,-1,91
 884 77 884 77 907.5 123.5 c 128,-1,92
 931 170 931 170 948 232.5 c 128,-1,93
 965 295 965 295 974.5 349 c 128,-1,94
 984 403 984 403 989 472 c 128,-1,95
 994 541 994 541 995.5 591.5 c 128,-1,96
 997 642 997 642 997 707 c 0,97,98
 997 1295 997 1295 874 1651 c 1,99,-1
 889 1667 l 1,100,101
 869 1717 869 1717 831 1731 c 1,102,103
 794 1770 794 1770 769.5 1791.5 c 128,-1,104
 745 1813 745 1813 703.5 1834 c 128,-1,105
 662 1855 662 1855 621 1855 c 0,106,107
 541 1855 541 1855 474.5 1825 c 128,-1,108
 408 1795 408 1795 362.5 1745.5 c 128,-1,109
 317 1696 317 1696 282 1626 c 128,-1,110
 247 1556 247 1556 226.5 1484.5 c 128,-1,111
 206 1413 206 1413 193.5 1330 c 128,-1,112
 181 1247 181 1247 176.5 1179 c 128,-1,113
 172 1111 172 1111 172 1042 c 0,114,115
 172 972 172 972 179 829 c 128,-1,116
 186 686 186 686 186 616 c 0,117,118
 186 182 186 182 317 12 c 0,119,120
 344 -22 344 -22 388.5 -46.5 c 128,-1,121
 433 -71 433 -71 446 -84 c 1,84,85
102 715 m 0,122,123
 102 760 102 760 103 850 c 128,-1,124
 104 940 104 940 104 985 c 0,125,126
 104 1915 104 1915 606 1915 c 0,127,128
 687 1915 687 1915 768 1862 c 128,-1,129
 849 1809 849 1809 901 1735 c 1,130,131
 918 1730 918 1730 928 1716.5 c 128,-1,132
 938 1703 938 1703 941 1689 c 128,-1,133
 944 1675 944 1675 951 1658.5 c 128,-1,134
 958 1642 958 1642 969 1632 c 1,135,136
 969 1602 969 1602 997 1438 c 0,137,138
 1003 1397 1003 1397 1024 1279 c 128,-1,139
 1045 1161 1045 1161 1055 1078 c 128,-1,140
 1065 995 1065 995 1065 920 c 2,141,-1
 1065 854 l 2,142,143
 1065 774 1065 774 1064 722.5 c 128,-1,144
 1063 671 1063 671 1059.5 570.5 c 128,-1,145
 1056 470 1056 470 1045.5 396 c 128,-1,146
 1035 322 1035 322 1019 237.5 c 128,-1,147
 1003 153 1003 153 974.5 89.5 c 128,-1,148
 946 26 946 26 909 -12 c 0,149,150
 834 -89 834 -89 767 -127.5 c 128,-1,151
 700 -166 700 -166 610 -166 c 0,152,153
 532 -166 532 -166 467 -147 c 128,-1,154
 402 -128 402 -128 353.5 -96.5 c 128,-1,155
 305 -65 305 -65 266.5 -16.5 c 128,-1,156
 228 32 228 32 202 83 c 128,-1,157
 176 134 176 134 157 201 c 128,-1,158
 138 268 138 268 127.5 327 c 128,-1,159
 117 386 117 386 111 460 c 128,-1,160
 105 534 105 534 103.5 590 c 128,-1,161
 102 646 102 646 102 715 c 0,122,123
EndSplineSet
EndChar

StartChar: paragraph
Encoding: 182 182 120
Width: 937
GlyphClass: 2
Flags: W
LayerCount: 2
UndoRedoHistory
Layer: 1
Undoes
EndUndoes
Redoes
EndRedoes
EndUndoRedoHistory
Fore
SplineSet
150 1454 m 0,0,1
 150 1370 150 1370 174.5 1313.5 c 128,-1,2
 199 1257 199 1257 247 1226.5 c 128,-1,3
 295 1196 295 1196 354 1183.5 c 128,-1,4
 413 1171 413 1171 494 1171 c 0,5,6
 532 1171 532 1171 542.5 1179.5 c 128,-1,7
 553 1188 553 1188 553 1212 c 0,8,9
 553 1293 553 1293 544 1454 c 128,-1,10
 535 1615 535 1615 535 1696 c 0,11,12
 535 1705 535 1705 536 1724.5 c 128,-1,13
 537 1744 537 1744 537 1753 c 1,14,15
 518 1772 518 1772 430 1772 c 0,16,17
 315 1772 315 1772 232.5 1672 c 128,-1,18
 150 1572 150 1572 150 1454 c 0,0,1
711 102 m 0,19,20
 711 281 711 281 720 639 c 128,-1,21
 729 997 729 997 729 1176 c 0,22,23
 729 1251 729 1251 722 1399 c 128,-1,24
 715 1547 715 1547 715 1622 c 0,25,26
 715 1634 715 1634 716 1655.5 c 128,-1,27
 717 1677 717 1677 717 1688 c 0,28,29
 717 1738 717 1738 698 1765 c 128,-1,30
 679 1792 679 1792 623 1792 c 0,31,32
 600 1792 600 1792 600 1688 c 0,33,34
 600 1570 600 1570 613.5 1333.5 c 128,-1,35
 627 1097 627 1097 627 979 c 0,36,37
 627 905 627 905 625 820.5 c 128,-1,38
 623 736 623 736 621 677 c 128,-1,39
 619 618 619 618 614 513 c 128,-1,40
 609 408 609 408 606.5 369.5 c 128,-1,41
 604 331 604 331 596.5 205.5 c 128,-1,42
 589 80 589 80 588 57 c 1,43,44
 592 49 592 49 592 45 c 0,45,46
 592 33 592 33 578.5 23.5 c 128,-1,47
 565 14 565 14 553 14 c 0,48,49
 514 14 514 14 514 55 c 0,50,51
 514 206 514 206 535.5 509 c 128,-1,52
 557 812 557 812 557 963 c 0,53,54
 557 989 557 989 555 1041.5 c 128,-1,55
 553 1094 553 1094 553 1120 c 1,56,-1
 381 1120 l 1,57,58
 352 1132 352 1132 307.5 1145 c 128,-1,59
 263 1158 263 1158 236.5 1167.5 c 128,-1,60
 210 1177 210 1177 180 1195 c 128,-1,61
 150 1213 150 1213 130 1245 c 128,-1,62
 110 1277 110 1277 98 1325 c 0,63,64
 96 1332 96 1332 94.5 1355 c 128,-1,65
 93 1378 93 1378 86 1389 c 1,66,67
 86 1458 86 1458 99 1525.5 c 128,-1,68
 112 1593 112 1593 148.5 1659.5 c 128,-1,69
 185 1726 185 1726 240 1757 c 0,70,71
 267 1772 267 1772 320 1786.5 c 128,-1,72
 373 1801 373 1801 391 1808 c 0,73,74
 414 1818 414 1818 444.5 1822 c 128,-1,75
 475 1826 475 1826 512.5 1827 c 128,-1,76
 550 1828 550 1828 569 1831 c 1,77,78
 580 1851 580 1851 618 1851 c 0,79,80
 631 1851 631 1851 657 1843 c 128,-1,81
 683 1835 683 1835 698 1835 c 0,82,83
 729 1835 729 1835 745 1839 c 1,84,85
 756 1826 756 1826 786 1822 c 128,-1,86
 816 1818 816 1818 839 1812.5 c 128,-1,87
 862 1807 862 1807 862 1790 c 0,88,89
 862 1761 862 1761 821 1761 c 0,90,91
 806 1761 806 1761 782 1765 c 1,92,93
 782 1660 782 1660 789.5 1453 c 128,-1,94
 797 1246 797 1246 797 1141 c 0,95,96
 797 994 797 994 790.5 702 c 128,-1,97
 784 410 784 410 784 264 c 0,98,99
 784 226 784 226 790.5 149.5 c 128,-1,100
 797 73 797 73 797 35 c 0,101,102
 797 21 797 21 786.5 11.5 c 128,-1,103
 776 2 776 2 762 2 c 0,104,105
 711 2 711 2 711 102 c 0,19,20
EndSplineSet
EndChar

StartChar: AE
Encoding: 198 198 136
Width: 923
GlyphClass: 2
Flags: W
LayerCount: 2
UndoRedoHistory
Layer: 1
Undoes
EndUndoes
Redoes
EndRedoes
EndUndoRedoHistory
Fore
SplineSet
489 1393 m 1,0,1
 471 1371 471 1371 382.5 1043 c 128,-1,2
 294 715 294 715 289 664 c 1,3,4
 417 668 417 668 494 688 c 1,5,6
 495 741 495 741 498.5 902.5 c 128,-1,7
 502 1064 502 1064 502 1153 c 0,8,9
 502 1292 502 1292 489 1393 c 1,0,1
489 -12 m 1,10,11
 506 101 506 101 506 229 c 0,12,13
 506 295 506 295 501 426 c 128,-1,14
 496 557 496 557 496 621 c 1,15,-1
 485 635 l 1,16,17
 477 633 477 633 421 629 c 128,-1,18
 365 625 365 625 321 618 c 128,-1,19
 277 611 277 611 274 600 c 2,20,-1
 172 209 l 2,21,22
 172 208 172 208 159 145.5 c 128,-1,23
 146 83 146 83 131.5 42.5 c 128,-1,24
 117 2 117 2 100 2 c 0,25,26
 93 2 93 2 88.5 11 c 128,-1,27
 84 20 84 20 84 27 c 0,28,29
 86 125 86 125 166 432 c 1,30,31
 297 951 297 951 434 1393 c 1,32,33
 461 1485 461 1485 483 1515 c 0,34,35
 504 1544 504 1544 528 1544 c 0,36,37
 553 1544 553 1544 606 1549 c 128,-1,38
 659 1554 659 1554 686 1554 c 0,39,40
 750 1554 750 1554 750 1522 c 1,41,-1
 737 1497 l 1,42,43
 637 1497 637 1497 535 1485 c 1,44,45
 535 1435 535 1435 542 1333 c 128,-1,46
 549 1231 549 1231 549 1180 c 0,47,48
 549 1100 549 1100 546 941 c 128,-1,49
 543 782 543 782 543 702 c 1,50,-1
 553 690 l 1,51,52
 580 690 580 690 634 700.5 c 128,-1,53
 688 711 688 711 715 711 c 1,54,-1
 743 676 l 1,55,56
 743 641 743 641 597 641 c 2,57,-1
 543 641 l 1,58,59
 543 560 543 560 547 398 c 128,-1,60
 551 236 551 236 551 154 c 0,61,62
 551 140 551 140 550 112 c 128,-1,63
 549 84 549 84 549 70 c 0,64,65
 549 35 549 35 567 35 c 0,66,67
 606 35 606 35 683 46 c 128,-1,68
 760 57 760 57 799 57 c 0,69,70
 814 57 814 57 829 50.5 c 128,-1,71
 844 44 844 44 844 31 c 0,72,73
 844 10 844 10 783 2 c 128,-1,74
 722 -6 722 -6 649.5 -7 c 128,-1,75
 577 -8 577 -8 565 -14 c 0,76,77
 562 -16 562 -16 546 -28 c 128,-1,78
 530 -40 530 -40 518 -41 c 1,79,-1
 489 -12 l 1,10,11
EndSplineSet
EndChar

StartChar: Oslash
Encoding: 216 216 154
Width: 602
GlyphClass: 2
Flags: W
LayerCount: 2
UndoRedoHistory
Layer: 1
Undoes
EndUndoes
Redoes
EndRedoes
EndUndoRedoHistory
Fore
SplineSet
162 705 m 1,0,1
 162 634 162 634 174 490 c 128,-1,2
 186 346 186 346 186 274 c 1,3,4
 192 282 192 282 204.5 370.5 c 128,-1,5
 217 459 217 459 230.5 591 c 128,-1,6
 244 723 244 723 256.5 847.5 c 128,-1,7
 269 972 269 972 280 1088.5 c 128,-1,8
 291 1205 291 1205 293 1227 c 0,9,10
 296 1252 296 1252 302.5 1298.5 c 128,-1,11
 309 1345 309 1345 313 1383 c 128,-1,12
 317 1421 317 1421 317 1456 c 0,13,14
 317 1481 317 1481 297 1497 c 128,-1,15
 277 1513 277 1513 252 1513 c 0,16,17
 250 1513 250 1513 243.5 1510.5 c 128,-1,18
 237 1508 237 1508 229 1505 c 128,-1,19
 221 1502 221 1502 219 1501 c 1,20,-1
 207 1505 l 1,21,22
 143 1466 143 1466 143 852 c 2,23,-1
 143 839 l 2,24,25
 143 748 143 748 162 705 c 1,0,1
215 119 m 0,26,27
 215 68 215 68 235.5 45.5 c 128,-1,28
 256 23 256 23 305 23 c 0,29,30
 438 23 438 23 438 399 c 0,31,32
 438 1244 438 1244 365 1389 c 1,33,34
 336 1214 336 1214 302.5 817 c 128,-1,35
 269 420 269 420 229 215 c 1,36,37
 215 138 215 138 215 119 c 0,26,27
133 -264 m 1,38,-1
 102 -240 l 1,39,40
 103 -207 103 -207 109.5 -174.5 c 128,-1,41
 116 -142 116 -142 131.5 -66.5 c 128,-1,42
 147 9 147 9 162 111 c 1,43,44
 162 125 162 125 153.5 149.5 c 128,-1,45
 145 174 145 174 143 184 c 0,46,47
 100 453 100 453 100 952 c 2,48,-1
 100 1081 l 2,49,50
 100 1569 100 1569 250 1569 c 0,51,52
 260 1569 260 1569 281 1557.5 c 128,-1,53
 302 1546 302 1546 309 1546 c 1,54,-1
 317 1550 l 1,55,-1
 328 1540 l 1,56,57
 345 1590 345 1590 362 1688.5 c 128,-1,58
 379 1787 379 1787 381 1798 c 1,59,-1
 418 1798 l 1,60,-1
 416 1739 l 1,61,-1
 373 1491 l 1,62,63
 373 1466 373 1466 403 1432 c 1,64,-1
 401 1427 l 1,65,66
 403 1417 403 1417 408 1406.5 c 128,-1,67
 413 1396 413 1396 421.5 1383 c 128,-1,68
 430 1370 430 1370 432 1366 c 0,69,70
 455 1310 455 1310 455 1229 c 1,71,-1
 451 1227 l 1,72,73
 451 1166 451 1166 466 1039 c 128,-1,74
 481 912 481 912 481 850 c 2,75,-1
 481 838 l 1,76,-1
 485 831 l 1,77,78
 485 766 485 766 488.5 637 c 128,-1,79
 492 508 492 508 492 444 c 0,80,81
 492 407 492 407 491.5 382.5 c 128,-1,82
 491 358 491 358 488.5 312.5 c 128,-1,83
 486 267 486 267 480.5 234.5 c 128,-1,84
 475 202 475 202 466 160 c 128,-1,85
 457 118 457 118 441.5 89 c 128,-1,86
 426 60 426 60 405.5 33.5 c 128,-1,87
 385 7 385 7 355 -6.5 c 128,-1,88
 325 -20 325 -20 289 -20 c 0,89,90
 218 -20 218 -20 188 20 c 1,91,-1
 186 20 l 1,92,93
 172 -68 172 -68 133 -264 c 1,38,-1
EndSplineSet
EndChar

StartChar: germandbls
Encoding: 223 223 161
Width: 616
GlyphClass: 2
Flags: W
LayerCount: 2
UndoRedoHistory
Layer: 1
Undoes
EndUndoes
Redoes
EndRedoes
EndUndoRedoHistory
Fore
SplineSet
297 23 m 0,0,1
 281 23 281 23 267.5 32 c 128,-1,2
 254 41 254 41 254 53 c 0,3,4
 254 70 254 70 279 88 c 1,5,6
 314 105 314 105 357.5 138 c 128,-1,7
 401 171 401 171 408 197 c 1,8,9
 436 250 436 250 436 360 c 2,10,-1
 436 371 l 2,11,12
 436 433 436 433 428 494 c 128,-1,13
 420 555 420 555 401 620 c 128,-1,14
 382 685 382 685 344.5 736.5 c 128,-1,15
 307 788 307 788 256 811 c 0,16,17
 243 817 243 817 233 831 c 128,-1,18
 223 845 223 845 223 858 c 0,19,20
 223 864 223 864 224.5 868.5 c 128,-1,21
 226 873 226 873 228 876 c 128,-1,22
 230 879 230 879 234 881.5 c 128,-1,23
 238 884 238 884 240 885 c 128,-1,24
 242 886 242 886 247.5 887.5 c 128,-1,25
 253 889 253 889 254 889 c 0,26,27
 297 902 297 902 336 1006.5 c 128,-1,28
 375 1111 375 1111 375 1190 c 0,29,30
 375 1312 375 1312 343 1389 c 128,-1,31
 311 1466 311 1466 266 1466 c 0,32,33
 172 1466 172 1466 172 1255 c 0,34,35
 172 1194 172 1194 176 1071 c 128,-1,36
 180 948 180 948 180 887 c 2,37,-1
 180 809 l 2,38,39
 180 682 180 682 185 428.5 c 128,-1,40
 190 175 190 175 190 49 c 0,41,42
 190 -12 190 -12 152 -12 c 2,43,-1
 150 -12 l 2,44,45
 113 -12 113 -12 113 16 c 0,46,47
 113 102 113 102 118 275.5 c 128,-1,48
 123 449 123 449 123 535 c 0,49,50
 123 659 123 659 116 900.5 c 128,-1,51
 109 1142 109 1142 109 1266 c 0,52,53
 109 1536 109 1536 264 1536 c 0,54,55
 343 1536 343 1536 385.5 1445.5 c 128,-1,56
 428 1355 428 1355 428 1214 c 0,57,58
 428 1107 428 1107 395.5 1012 c 128,-1,59
 363 917 363 917 297 854 c 1,60,61
 393 805 393 805 443.5 705 c 128,-1,62
 494 605 494 605 494 473 c 2,63,-1
 494 426 l 2,64,65
 494 352 494 352 489 304 c 128,-1,66
 484 256 484 256 467.5 199.5 c 128,-1,67
 451 143 451 143 413 100.5 c 128,-1,68
 375 58 375 58 315 27 c 1,69,70
 303 23 303 23 297 23 c 0,0,1
EndSplineSet
EndChar

StartChar: ae
Encoding: 230 230 168
Width: 923
GlyphClass: 2
Flags: W
LayerCount: 2
UndoRedoHistory
Layer: 1
Undoes
EndUndoes
Redoes
EndRedoes
EndUndoRedoHistory
Fore
SplineSet
494 1237 m 1,0,1
 476 1218 476 1218 385 950.5 c 128,-1,2
 294 683 294 683 289 643 c 1,3,4
 379 643 379 643 494 668 c 1,5,-1
 494 948 l 2,6,7
 494 970 494 970 495 1016 c 128,-1,8
 496 1062 496 1062 496 1085 c 2,9,-1
 496 1163 l 2,10,11
 496 1212 496 1212 494 1237 c 1,0,1
489 14 m 1,12,13
 506 110 506 110 506 229 c 0,14,15
 506 292 506 292 501 415.5 c 128,-1,16
 496 539 496 539 496 600 c 1,17,-1
 485 614 l 1,18,19
 477 612 477 612 421.5 608.5 c 128,-1,20
 366 605 366 605 321.5 598 c 128,-1,21
 277 591 277 591 274 580 c 2,22,-1
 172 209 l 2,23,24
 172 208 172 208 159 145.5 c 128,-1,25
 146 83 146 83 131.5 42.5 c 128,-1,26
 117 2 117 2 100 2 c 0,27,28
 93 2 93 2 88.5 11 c 128,-1,29
 84 20 84 20 84 27 c 0,30,31
 86 125 86 125 166 432 c 1,32,33
 276 782 276 782 434 1196 c 1,34,-1
 438 1208 l 2,35,36
 438 1209 438 1209 439 1212.5 c 128,-1,37
 440 1216 440 1216 440 1217 c 0,38,39
 477 1348 477 1348 528 1348 c 0,40,41
 553 1348 553 1348 606 1349 c 128,-1,42
 659 1350 659 1350 686 1350 c 0,43,44
 750 1350 750 1350 750 1317 c 1,45,-1
 737 1292 l 1,46,-1
 635 1292 l 2,47,48
 568 1292 568 1292 535 1288 c 1,49,50
 535 1238 535 1238 538 1132 c 128,-1,51
 541 1026 541 1026 541 975 c 128,-1,52
 541 924 541 924 542 828.5 c 128,-1,53
 543 733 543 733 543 682 c 1,54,-1
 553 670 l 1,55,56
 608 690 608 690 715 690 c 1,57,-1
 743 655 l 1,58,59
 743 621 743 621 598 621 c 2,60,-1
 543 621 l 1,61,62
 543 543 543 543 547 388 c 128,-1,63
 551 233 551 233 551 154 c 0,64,65
 551 140 551 140 550 112 c 128,-1,66
 549 84 549 84 549 70 c 0,67,68
 549 35 549 35 567 35 c 0,69,70
 606 35 606 35 683 46 c 128,-1,71
 760 57 760 57 799 57 c 0,72,73
 814 57 814 57 829 50.5 c 128,-1,74
 844 44 844 44 844 31 c 0,75,76
 844 10 844 10 783 2 c 128,-1,77
 722 -6 722 -6 649.5 -7 c 128,-1,78
 577 -8 577 -8 565 -14 c 1,79,80
 559 -12 559 -12 549 -12 c 0,81,82
 544 -12 544 -12 535 -13 c 128,-1,83
 526 -14 526 -14 518 -14 c 1,84,-1
 489 14 l 1,12,13
EndSplineSet
EndChar

StartChar: oslash
Encoding: 248 248 186
Width: 565
GlyphClass: 2
Flags: W
LayerCount: 2
UndoRedoHistory
Layer: 1
Undoes
EndUndoes
Redoes
EndRedoes
EndUndoRedoHistory
Fore
SplineSet
152 647 m 1,0,1
 152 582 152 582 164 451 c 128,-1,2
 176 320 176 320 176 254 c 1,3,4
 187 321 187 321 207.5 496.5 c 128,-1,5
 228 672 228 672 248.5 860 c 128,-1,6
 269 1048 269 1048 272 1069 c 0,7,8
 275 1091 275 1091 281.5 1134.5 c 128,-1,9
 288 1178 288 1178 291.5 1213 c 128,-1,10
 295 1248 295 1248 295 1280 c 0,11,12
 295 1302 295 1302 276.5 1316.5 c 128,-1,13
 258 1331 258 1331 236 1331 c 0,14,15
 235 1331 235 1331 205 1321 c 1,16,-1
 195 1323 l 1,17,18
 137 1292 137 1292 137 782 c 2,19,-1
 137 768 l 2,20,21
 137 686 137 686 152 647 c 1,0,1
201 111 m 0,22,23
 201 65 201 65 220.5 45 c 128,-1,24
 240 25 240 25 285 25 c 0,25,26
 406 25 406 25 406 369 c 0,27,28
 406 504 406 504 403 644 c 128,-1,29
 400 784 400 784 383.5 973 c 128,-1,30
 367 1162 367 1162 338 1217 c 1,31,32
 314 1074 314 1074 287.5 835 c 128,-1,33
 261 596 261 596 242.5 415.5 c 128,-1,34
 224 235 224 235 215 201 c 0,35,36
 201 147 201 147 201 111 c 0,22,23
102 -219 m 1,37,38
 108 -158 108 -158 127 -57.5 c 128,-1,39
 146 43 146 43 152 104 c 1,40,41
 152 117 152 117 145 141 c 128,-1,42
 138 165 138 165 137 172 c 0,43,44
 96 416 96 416 96 870 c 2,45,-1
 96 993 l 2,46,47
 96 1382 96 1382 233 1382 c 0,48,49
 240 1382 240 1382 248.5 1379.5 c 128,-1,50
 257 1377 257 1377 262.5 1374.5 c 128,-1,51
 268 1372 268 1372 277 1367 c 128,-1,52
 286 1362 286 1362 289 1360 c 1,53,-1
 295 1364 l 1,54,-1
 309 1350 l 1,55,56
 312 1363 312 1363 328 1455 c 128,-1,57
 344 1547 344 1547 354 1591 c 1,58,-1
 387 1591 l 1,59,-1
 387 1573 l 2,60,61
 387 1563 387 1563 366.5 1443 c 128,-1,62
 346 1323 346 1323 346 1311 c 0,63,64
 346 1304 346 1304 349 1295.5 c 128,-1,65
 352 1287 352 1287 355.5 1282 c 128,-1,66
 359 1277 359 1277 365 1267.5 c 128,-1,67
 371 1258 371 1258 373 1255 c 1,68,-1
 371 1251 l 1,69,70
 373 1239 373 1239 385 1220 c 128,-1,71
 397 1201 397 1201 399 1196 c 0,72,73
 422 1146 422 1146 422 1071 c 1,74,-1
 418 1069 l 1,75,76
 418 1021 418 1021 431 924.5 c 128,-1,77
 444 828 444 828 444 780 c 2,78,-1
 444 770 l 1,79,-1
 449 764 l 1,80,81
 449 704 449 704 452 587 c 128,-1,82
 455 470 455 470 455 410 c 0,83,84
 455 372 455 372 454.5 345 c 128,-1,85
 454 318 454 318 450 270.5 c 128,-1,86
 446 223 446 223 439.5 188.5 c 128,-1,87
 433 154 433 154 419 113 c 128,-1,88
 405 72 405 72 385.5 46.5 c 128,-1,89
 366 21 366 21 336 3.5 c 128,-1,90
 306 -14 306 -14 268 -14 c 0,91,92
 204 -14 204 -14 178 23 c 1,93,-1
 176 23 l 1,94,-1
 174 8 l 1,95,96
 144 -248 144 -248 121 -248 c 0,97,98
 102 -248 102 -248 102 -219 c 1,37,38
EndSplineSet
EndChar

StartChar: ydieresis
Encoding: 255 255 193
Width: 561
GlyphClass: 2
Flags: W
LayerCount: 2
UndoRedoHistory
Layer: 1
Undoes
EndUndoes
Redoes
EndRedoes
EndUndoRedoHistory
Fore
SplineSet
279 -8 m 1,0,1
 299 42 299 42 299 350 c 0,2,3
 299 410 299 410 291.5 521 c 128,-1,4
 284 632 284 632 283 666 c 1,5,-1
 270 692 l 1,6,-1
 276 717 l 1,7,8
 273 724 273 724 242 806 c 128,-1,9
 211 888 211 888 189 949.5 c 128,-1,10
 167 1011 167 1011 138 1092.5 c 128,-1,11
 109 1174 109 1174 93 1230 c 128,-1,12
 77 1286 77 1286 76 1307 c 1,13,-1
 104 1329 l 1,14,15
 124 1326 124 1326 164 1198.5 c 128,-1,16
 204 1071 204 1071 242.5 943 c 128,-1,17
 281 815 281 815 297 811 c 1,18,-1
 305 848 l 1,19,-1
 301 858 l 1,20,21
 316 876 316 876 340.5 1003.5 c 128,-1,22
 365 1131 365 1131 393 1245.5 c 128,-1,23
 421 1360 421 1360 446 1360 c 0,24,25
 456 1360 456 1360 464.5 1354.5 c 128,-1,26
 473 1349 473 1349 473 1339 c 0,27,28
 473 1316 473 1316 436 1186 c 0,29,30
 429 1161 429 1161 410 1097 c 128,-1,31
 391 1033 391 1033 381.5 998 c 128,-1,32
 372 963 372 963 359.5 910 c 128,-1,33
 347 857 347 857 341.5 811.5 c 128,-1,34
 336 766 336 766 336 723 c 1,35,36
 346 698 346 698 346 688 c 128,-1,37
 346 678 346 678 340 659.5 c 128,-1,38
 334 641 334 641 334 629 c 0,39,40
 334 598 334 598 342 536 c 128,-1,41
 350 474 350 474 350 442 c 0,42,43
 350 388 350 388 351 280 c 128,-1,44
 352 172 352 172 352 117 c 2,45,-1
 352 108 l 2,46,47
 352 -31 352 -31 309 -31 c 0,48,49
 302 -31 302 -31 292 -23 c 128,-1,50
 282 -15 282 -15 279 -8 c 1,0,1
-12 1530 m 0,51,52
 -12 1548 -12 1548 3.5 1564.5 c 128,-1,53
 19 1581 19 1581 37 1581 c 0,54,55
 59 1581 59 1581 68.5 1559.5 c 128,-1,56
 78 1538 78 1538 78 1513 c 0,57,58
 78 1496 78 1496 61.5 1487.5 c 128,-1,59
 45 1479 45 1479 27 1479 c 0,60,61
 10 1479 10 1479 -1 1496 c 128,-1,62
 -12 1513 -12 1513 -12 1530 c 0,51,52
449 1532 m 0,63,64
 449 1551 449 1551 464 1567 c 128,-1,65
 479 1583 479 1583 498 1583 c 0,66,67
 515 1583 515 1583 529 1566.5 c 128,-1,68
 543 1550 543 1550 543 1534 c 0,69,70
 543 1487 543 1487 489 1487 c 0,71,72
 473 1487 473 1487 461 1501.5 c 128,-1,73
 449 1516 449 1516 449 1532 c 0,63,64
EndSplineSet
EndChar

StartChar: ordfeminine
Encoding: 170 170 194
Width: 692
GlyphClass: 2
Flags: W
LayerCount: 2
UndoRedoHistory
Layer: 1
Undoes
EndUndoes
Redoes
EndRedoes
EndUndoRedoHistory
Fore
SplineSet
512 428 m 0,0,1
 527 428 527 428 542.5 417.5 c 128,-1,2
 558 407 558 407 558 393 c 0,3,4
 558 384 558 384 417.5 379.5 c 128,-1,5
 277 375 277 375 206 375 c 0,6,7
 190 375 190 375 176 385 c 128,-1,8
 162 395 162 395 162 410 c 0,9,10
 162 418 162 418 305.5 423 c 128,-1,11
 449 428 449 428 512 428 c 0,0,1
263 892 m 1,12,-1
 337 876 l 1,13,14
 419 869 419 869 436 862 c 1,15,-1
 457 862 l 1,16,-1
 359 1282 l 1,17,18
 304 1032 304 1032 263 892 c 1,12,-1
551 494 m 1,19,20
 514 494 514 494 502 504 c 128,-1,21
 490 514 490 514 490 545 c 0,22,23
 490 586 490 586 485 628.5 c 128,-1,24
 480 671 480 671 469.5 730.5 c 128,-1,25
 459 790 459 790 457 807 c 1,26,27
 420 817 420 817 365 817 c 1,28,-1
 311 815 l 1,29,30
 298 821 298 821 247 827 c 1,31,-1
 195 652 l 1,32,33
 159 518 159 518 145 504 c 0,34,35
 138 497 138 497 121 512.5 c 128,-1,36
 104 528 104 528 104 539 c 1,37,38
 145 608 145 608 289 1211 c 1,39,40
 304 1349 304 1349 314 1366 c 1,41,-1
 342 1364 l 1,42,43
 367 1364 367 1364 379 1376 c 1,44,45
 393 1376 393 1376 404.5 1367 c 128,-1,46
 416 1358 416 1358 416 1345 c 1,47,-1
 550 666 l 1,48,49
 567 573 567 573 567 540 c 0,50,51
 567 503 567 503 551 494 c 1,19,20
EndSplineSet
EndChar

StartChar: cent
Encoding: 162 162 195
Width: 651
GlyphClass: 2
Flags: W
LayerCount: 2
UndoRedoHistory
Layer: 1
Undoes
EndUndoes
Redoes
EndRedoes
EndUndoRedoHistory
Fore
SplineSet
162 977 m 1,0,1
 145 837 145 837 145 788 c 2,2,-1
 145 781 l 2,3,4
 145 397 145 397 307 397 c 1,5,-1
 315 401 l 1,6,7
 315 550 315 550 283 870 c 1,8,9
 270 1085 270 1085 250 1161 c 1,10,11
 211 1155 211 1155 184.5 1074.5 c 128,-1,12
 158 994 158 994 162 977 c 1,0,1
338 25 m 1,13,-1
 334 23 l 1,14,15
 330 137 330 137 330 203 c 2,16,-1
 330 330 l 1,17,18
 295 344 295 344 274.5 352.5 c 128,-1,19
 254 361 254 361 223.5 378.5 c 128,-1,20
 193 396 193 396 175.5 412.5 c 128,-1,21
 158 429 158 429 142 455 c 128,-1,22
 126 481 126 481 121 512 c 1,23,24
 94 632 94 632 94 842 c 0,25,26
 94 1154 94 1154 258 1243 c 1,27,28
 258 1264 258 1264 253 1306 c 128,-1,29
 248 1348 248 1348 248 1370 c 0,30,31
 248 1436 248 1436 274 1436 c 1,32,-1
 287 1427 l 1,33,34
 285 1409 285 1409 285 1374 c 0,35,36
 285 1314 285 1314 295 1239 c 1,37,38
 303 1236 303 1236 338 1225 c 128,-1,39
 373 1214 373 1214 401 1204.5 c 128,-1,40
 429 1195 429 1195 453 1176 c 128,-1,41
 477 1157 477 1157 477 1135 c 0,42,43
 477 1128 477 1128 471.5 1118 c 128,-1,44
 466 1108 466 1108 459 1108 c 0,45,46
 441 1108 441 1108 424.5 1132.5 c 128,-1,47
 408 1157 408 1157 406 1159 c 0,48,49
 397 1169 397 1169 372.5 1176.5 c 128,-1,50
 348 1184 348 1184 340 1194 c 1,51,-1
 303 1194 l 1,52,-1
 301 1198 l 1,53,54
 301 1067 301 1067 331.5 814 c 128,-1,55
 362 561 362 561 362 430 c 0,56,57
 362 426 362 426 361 415 c 128,-1,58
 360 404 360 404 360 401 c 0,59,60
 360 383 360 383 377 369 c 1,61,62
 419 369 419 369 452 386.5 c 128,-1,63
 485 404 485 404 504.5 426.5 c 128,-1,64
 524 449 524 449 551 489 c 1,65,66
 573 489 573 489 573 453 c 0,67,68
 573 412 573 412 501.5 369 c 128,-1,69
 430 326 430 326 385 326 c 2,70,-1
 367 326 l 1,71,72
 367 308 367 308 366 273 c 128,-1,73
 365 238 365 238 365 221 c 0,74,75
 365 188 365 188 368 124 c 128,-1,76
 371 60 371 60 371 27 c 0,77,78
 371 11 371 11 358 11 c 0,79,80
 351 11 351 11 344.5 15.5 c 128,-1,81
 338 20 338 20 338 25 c 1,13,-1
EndSplineSet
EndChar

StartChar: currency
Encoding: 164 164 196
Width: 868
GlyphClass: 2
Flags: W
LayerCount: 2
UndoRedoHistory
Layer: 1
Undoes
EndUndoes
Redoes
EndRedoes
EndUndoRedoHistory
Fore
SplineSet
262 412 m 1,0,1
 262 346 262 346 313.5 314.5 c 128,-1,2
 365 283 365 283 436 283 c 0,3,4
 487 283 487 283 528 308.5 c 128,-1,5
 569 334 569 334 595 377.5 c 128,-1,6
 621 421 621 421 640 472.5 c 128,-1,7
 659 524 659 524 668.5 582.5 c 128,-1,8
 678 641 678 641 682 688.5 c 128,-1,9
 686 736 686 736 686 780 c 0,10,11
 686 846 686 846 665 960 c 128,-1,12
 644 1074 644 1074 612 1094 c 1,13,14
 594 1094 594 1094 583.5 1108 c 128,-1,15
 573 1122 573 1122 573 1141 c 1,16,17
 552 1170 552 1170 510 1187 c 128,-1,18
 468 1204 468 1204 428 1204 c 0,19,20
 400 1204 400 1204 349 1162.5 c 128,-1,21
 298 1121 298 1121 295 1094 c 1,22,-1
 313 1075 l 1,23,24
 313 1046 313 1046 304.5 1038.5 c 128,-1,25
 296 1031 296 1031 283.5 1031.5 c 128,-1,26
 271 1032 271 1032 266 1024 c 0,27,28
 248 998 248 998 229.5 872.5 c 128,-1,29
 211 747 211 747 211 696 c 0,30,31
 211 683 211 683 215 659 c 1,32,33
 209 634 209 634 209 586 c 0,34,35
 209 527 209 527 219 484.5 c 128,-1,36
 229 442 229 442 262 412 c 1,0,1
686 258 m 1,37,38
 647 328 647 328 643 334 c 1,39,40
 550 231 550 231 399 231 c 0,41,42
 351 231 351 231 302.5 258.5 c 128,-1,43
 254 286 254 286 219 326 c 1,44,45
 207 326 207 326 195.5 301 c 128,-1,46
 184 276 184 276 168 251.5 c 128,-1,47
 152 227 152 227 131 227 c 0,48,49
 107 227 107 227 98.5 240 c 128,-1,50
 90 253 90 253 90 279 c 0,51,52
 90 283 90 283 132 329 c 128,-1,53
 174 375 174 375 180 395 c 1,54,55
 164 421 164 421 155.5 459 c 128,-1,56
 147 497 147 497 146 522 c 128,-1,57
 145 547 145 547 145 592 c 0,58,59
 145 659 145 659 150 747 c 128,-1,60
 155 835 155 835 173 940 c 128,-1,61
 191 1045 191 1045 219 1075 c 1,62,63
 219 1097 219 1097 170 1148.5 c 128,-1,64
 121 1200 121 1200 121 1212 c 0,65,66
 121 1235 121 1235 145 1235 c 0,67,68
 168 1235 168 1235 186.5 1219 c 128,-1,69
 205 1203 205 1203 223 1176.5 c 128,-1,70
 241 1150 241 1150 252 1141 c 1,71,72
 260 1147 260 1147 290 1179 c 128,-1,73
 320 1211 320 1211 347 1237.5 c 128,-1,74
 374 1264 374 1264 383 1264 c 0,75,76
 446 1264 446 1264 496.5 1246.5 c 128,-1,77
 547 1229 547 1229 604 1190 c 1,78,79
 617 1192 617 1192 638 1226.5 c 128,-1,80
 659 1261 659 1261 684 1295 c 128,-1,81
 709 1329 709 1329 733 1329 c 1,82,-1
 762 1298 l 1,83,84
 760 1282 760 1282 714 1224 c 128,-1,85
 668 1166 668 1166 668 1143 c 0,86,87
 668 1134 668 1134 702 1032 c 1,88,89
 758 857 758 857 758 774 c 0,90,91
 758 686 758 686 719 530 c 0,92,93
 717 520 717 520 708 489.5 c 128,-1,94
 699 459 699 459 694.5 437 c 128,-1,95
 690 415 690 415 690 397 c 0,96,97
 690 367 690 367 709.5 337 c 128,-1,98
 729 307 729 307 748.5 284 c 128,-1,99
 768 261 768 261 768 248 c 0,100,101
 768 219 768 219 741 219 c 0,102,103
 686 219 686 219 686 258 c 1,37,38
EndSplineSet
EndChar

